<?xml version="1.0" encoding="utf-8" standalone="no"?>
<!DOCTYPE svg PUBLIC "-//W3C//DTD SVG 1.1//EN"
  "http://www.w3.org/Graphics/SVG/1.1/DTD/svg11.dtd">
<svg xmlns:xlink="http://www.w3.org/1999/xlink" width="465.984pt" height="336.96pt" viewBox="0 0 465.984 336.96" xmlns="http://www.w3.org/2000/svg" version="1.1">
 <metadata>
  <rdf:RDF xmlns:dc="http://purl.org/dc/elements/1.1/" xmlns:cc="http://creativecommons.org/ns#" xmlns:rdf="http://www.w3.org/1999/02/22-rdf-syntax-ns#">
   <cc:Work>
    <dc:type rdf:resource="http://purl.org/dc/dcmitype/StillImage"/>
    <dc:date>2023-05-27T21:08:53.769634</dc:date>
    <dc:format>image/svg+xml</dc:format>
    <dc:creator>
     <cc:Agent>
      <dc:title>Matplotlib v3.7.1, https://matplotlib.org/</dc:title>
     </cc:Agent>
    </dc:creator>
   </cc:Work>
  </rdf:RDF>
 </metadata>
 <defs>
  <style type="text/css">*{stroke-linejoin: round; stroke-linecap: butt}</style>
 </defs>
 <g id="figure_1">
  <g id="patch_1">
   <path d="M 0 336.96 
L 465.984 336.96 
L 465.984 0 
L 0 0 
z
" style="fill: #ffffff; stroke: #ffffff; stroke-linejoin: miter"/>
  </g>
  <g id="axes_1">
   <g id="patch_2">
    <path d="M 44.000938 301.239312 
L 458.784 301.239312 
L 458.784 7.2 
L 44.000938 7.2 
z
" style="fill: #ebebeb"/>
   </g>
   <g id="matplotlib.axis_1">
    <g id="xtick_1">
     <g id="line2d_1">
      <path d="M 59.04587 301.239312 
L 59.04587 7.2 
" clip-path="url(#pcdda317217)" style="fill: none; stroke: #ffffff"/>
     </g>
     <g id="line2d_2">
      <path d="M 59.04587 301.239312 
" style="fill: none; stroke: #000000; stroke-width: 1.5"/>
      <defs>
       <path id="mc3611d127e" d="M 0 0 
L 0 2.75 
" style="stroke: #333333"/>
      </defs>
      <g>
       <use xlink:href="#mc3611d127e" x="59.04587" y="301.239312" style="stroke: #333333"/>
      </g>
     </g>
     <g id="text_1">
      <!-- 0 -->
      <g style="fill: #4d4d4d" transform="translate(56.24637 312.675937) scale(0.088 -0.088)">
       <defs>
        <path id="DejaVuSans-30" d="M 2034 4250 
Q 1547 4250 1301 3770 
Q 1056 3291 1056 2328 
Q 1056 1369 1301 889 
Q 1547 409 2034 409 
Q 2525 409 2770 889 
Q 3016 1369 3016 2328 
Q 3016 3291 2770 3770 
Q 2525 4250 2034 4250 
z
M 2034 4750 
Q 2819 4750 3233 4129 
Q 3647 3509 3647 2328 
Q 3647 1150 3233 529 
Q 2819 -91 2034 -91 
Q 1250 -91 836 529 
Q 422 1150 422 2328 
Q 422 3509 836 4129 
Q 1250 4750 2034 4750 
z
" transform="scale(0.015625)"/>
       </defs>
       <use xlink:href="#DejaVuSans-30"/>
      </g>
     </g>
    </g>
    <g id="xtick_2">
     <g id="line2d_3">
      <path d="M 154.266958 301.239312 
L 154.266958 7.2 
" clip-path="url(#pcdda317217)" style="fill: none; stroke: #ffffff"/>
     </g>
     <g id="line2d_4">
      <path d="M 154.266958 301.239312 
" style="fill: none; stroke: #000000; stroke-width: 1.5"/>
      <g>
       <use xlink:href="#mc3611d127e" x="154.266958" y="301.239312" style="stroke: #333333"/>
      </g>
     </g>
     <g id="text_2">
      <!-- 25 -->
      <g style="fill: #4d4d4d" transform="translate(148.667958 312.675937) scale(0.088 -0.088)">
       <defs>
        <path id="DejaVuSans-32" d="M 1228 531 
L 3431 531 
L 3431 0 
L 469 0 
L 469 531 
Q 828 903 1448 1529 
Q 2069 2156 2228 2338 
Q 2531 2678 2651 2914 
Q 2772 3150 2772 3378 
Q 2772 3750 2511 3984 
Q 2250 4219 1831 4219 
Q 1534 4219 1204 4116 
Q 875 4013 500 3803 
L 500 4441 
Q 881 4594 1212 4672 
Q 1544 4750 1819 4750 
Q 2544 4750 2975 4387 
Q 3406 4025 3406 3419 
Q 3406 3131 3298 2873 
Q 3191 2616 2906 2266 
Q 2828 2175 2409 1742 
Q 1991 1309 1228 531 
z
" transform="scale(0.015625)"/>
        <path id="DejaVuSans-35" d="M 691 4666 
L 3169 4666 
L 3169 4134 
L 1269 4134 
L 1269 2991 
Q 1406 3038 1543 3061 
Q 1681 3084 1819 3084 
Q 2600 3084 3056 2656 
Q 3513 2228 3513 1497 
Q 3513 744 3044 326 
Q 2575 -91 1722 -91 
Q 1428 -91 1123 -41 
Q 819 9 494 109 
L 494 744 
Q 775 591 1075 516 
Q 1375 441 1709 441 
Q 2250 441 2565 725 
Q 2881 1009 2881 1497 
Q 2881 1984 2565 2268 
Q 2250 2553 1709 2553 
Q 1456 2553 1204 2497 
Q 953 2441 691 2322 
L 691 4666 
z
" transform="scale(0.015625)"/>
       </defs>
       <use xlink:href="#DejaVuSans-32"/>
       <use xlink:href="#DejaVuSans-35" x="63.623047"/>
      </g>
     </g>
    </g>
    <g id="xtick_3">
     <g id="line2d_5">
      <path d="M 249.488047 301.239312 
L 249.488047 7.2 
" clip-path="url(#pcdda317217)" style="fill: none; stroke: #ffffff"/>
     </g>
     <g id="line2d_6">
      <path d="M 249.488047 301.239312 
" style="fill: none; stroke: #000000; stroke-width: 1.5"/>
      <g>
       <use xlink:href="#mc3611d127e" x="249.488047" y="301.239312" style="stroke: #333333"/>
      </g>
     </g>
     <g id="text_3">
      <!-- 50 -->
      <g style="fill: #4d4d4d" transform="translate(243.889047 312.675937) scale(0.088 -0.088)">
       <use xlink:href="#DejaVuSans-35"/>
       <use xlink:href="#DejaVuSans-30" x="63.623047"/>
      </g>
     </g>
    </g>
    <g id="xtick_4">
     <g id="line2d_7">
      <path d="M 344.709136 301.239312 
L 344.709136 7.2 
" clip-path="url(#pcdda317217)" style="fill: none; stroke: #ffffff"/>
     </g>
     <g id="line2d_8">
      <path d="M 344.709136 301.239312 
" style="fill: none; stroke: #000000; stroke-width: 1.5"/>
      <g>
       <use xlink:href="#mc3611d127e" x="344.709136" y="301.239312" style="stroke: #333333"/>
      </g>
     </g>
     <g id="text_4">
      <!-- 75 -->
      <g style="fill: #4d4d4d" transform="translate(339.110136 312.675937) scale(0.088 -0.088)">
       <defs>
        <path id="DejaVuSans-37" d="M 525 4666 
L 3525 4666 
L 3525 4397 
L 1831 0 
L 1172 0 
L 2766 4134 
L 525 4134 
L 525 4666 
z
" transform="scale(0.015625)"/>
       </defs>
       <use xlink:href="#DejaVuSans-37"/>
       <use xlink:href="#DejaVuSans-35" x="63.623047"/>
      </g>
     </g>
    </g>
    <g id="xtick_5">
     <g id="line2d_9">
      <path d="M 439.930224 301.239312 
L 439.930224 7.2 
" clip-path="url(#pcdda317217)" style="fill: none; stroke: #ffffff"/>
     </g>
     <g id="line2d_10">
      <path d="M 439.930224 301.239312 
" style="fill: none; stroke: #000000; stroke-width: 1.5"/>
      <g>
       <use xlink:href="#mc3611d127e" x="439.930224" y="301.239312" style="stroke: #333333"/>
      </g>
     </g>
     <g id="text_5">
      <!-- 100 -->
      <g style="fill: #4d4d4d" transform="translate(431.531724 312.675937) scale(0.088 -0.088)">
       <defs>
        <path id="DejaVuSans-31" d="M 794 531 
L 1825 531 
L 1825 4091 
L 703 3866 
L 703 4441 
L 1819 4666 
L 2450 4666 
L 2450 531 
L 3481 531 
L 3481 0 
L 794 0 
L 794 531 
z
" transform="scale(0.015625)"/>
       </defs>
       <use xlink:href="#DejaVuSans-31"/>
       <use xlink:href="#DejaVuSans-30" x="63.623047"/>
       <use xlink:href="#DejaVuSans-30" x="127.246094"/>
      </g>
     </g>
    </g>
    <g id="xtick_6">
     <g id="line2d_11">
      <path d="M 106.656414 301.239312 
L 106.656414 7.2 
" clip-path="url(#pcdda317217)" style="fill: none; stroke: #ffffff; stroke-width: 0.5"/>
     </g>
    </g>
    <g id="xtick_7">
     <g id="line2d_12">
      <path d="M 201.877503 301.239312 
L 201.877503 7.2 
" clip-path="url(#pcdda317217)" style="fill: none; stroke: #ffffff; stroke-width: 0.5"/>
     </g>
    </g>
    <g id="xtick_8">
     <g id="line2d_13">
      <path d="M 297.098591 301.239312 
L 297.098591 7.2 
" clip-path="url(#pcdda317217)" style="fill: none; stroke: #ffffff; stroke-width: 0.5"/>
     </g>
    </g>
    <g id="xtick_9">
     <g id="line2d_14">
      <path d="M 392.31968 301.239312 
L 392.31968 7.2 
" clip-path="url(#pcdda317217)" style="fill: none; stroke: #ffffff; stroke-width: 0.5"/>
     </g>
    </g>
   </g>
   <g id="matplotlib.axis_2">
    <g id="ytick_1">
     <g id="line2d_15">
      <path d="M 44.000938 251.751124 
L 458.784 251.751124 
" clip-path="url(#pcdda317217)" style="fill: none; stroke: #ffffff"/>
     </g>
     <g id="line2d_16">
      <path d="M 44.000938 251.751124 
" style="fill: none; stroke: #000000; stroke-width: 1.5"/>
      <defs>
       <path id="m6dd4bf173a" d="M 0 0 
L -2.75 0 
" style="stroke: #333333"/>
      </defs>
      <g>
       <use xlink:href="#m6dd4bf173a" x="44.000938" y="251.751124" style="stroke: #333333"/>
      </g>
     </g>
     <g id="text_6">
      <!-- 870 -->
      <g style="fill: #4d4d4d" transform="translate(22.453938 254.179374) scale(0.088 -0.088)">
       <defs>
        <path id="DejaVuSans-38" d="M 2034 2216 
Q 1584 2216 1326 1975 
Q 1069 1734 1069 1313 
Q 1069 891 1326 650 
Q 1584 409 2034 409 
Q 2484 409 2743 651 
Q 3003 894 3003 1313 
Q 3003 1734 2745 1975 
Q 2488 2216 2034 2216 
z
M 1403 2484 
Q 997 2584 770 2862 
Q 544 3141 544 3541 
Q 544 4100 942 4425 
Q 1341 4750 2034 4750 
Q 2731 4750 3128 4425 
Q 3525 4100 3525 3541 
Q 3525 3141 3298 2862 
Q 3072 2584 2669 2484 
Q 3125 2378 3379 2068 
Q 3634 1759 3634 1313 
Q 3634 634 3220 271 
Q 2806 -91 2034 -91 
Q 1263 -91 848 271 
Q 434 634 434 1313 
Q 434 1759 690 2068 
Q 947 2378 1403 2484 
z
M 1172 3481 
Q 1172 3119 1398 2916 
Q 1625 2713 2034 2713 
Q 2441 2713 2670 2916 
Q 2900 3119 2900 3481 
Q 2900 3844 2670 4047 
Q 2441 4250 2034 4250 
Q 1625 4250 1398 4047 
Q 1172 3844 1172 3481 
z
" transform="scale(0.015625)"/>
       </defs>
       <use xlink:href="#DejaVuSans-38"/>
       <use xlink:href="#DejaVuSans-37" x="63.623047"/>
       <use xlink:href="#DejaVuSans-30" x="127.246094"/>
      </g>
     </g>
    </g>
    <g id="ytick_2">
     <g id="line2d_17">
      <path d="M 44.000938 179.505592 
L 458.784 179.505592 
" clip-path="url(#pcdda317217)" style="fill: none; stroke: #ffffff"/>
     </g>
     <g id="line2d_18">
      <path d="M 44.000938 179.505592 
" style="fill: none; stroke: #000000; stroke-width: 1.5"/>
      <g>
       <use xlink:href="#m6dd4bf173a" x="44.000938" y="179.505592" style="stroke: #333333"/>
      </g>
     </g>
     <g id="text_7">
      <!-- 880 -->
      <g style="fill: #4d4d4d" transform="translate(22.453938 181.933842) scale(0.088 -0.088)">
       <use xlink:href="#DejaVuSans-38"/>
       <use xlink:href="#DejaVuSans-38" x="63.623047"/>
       <use xlink:href="#DejaVuSans-30" x="127.246094"/>
      </g>
     </g>
    </g>
    <g id="ytick_3">
     <g id="line2d_19">
      <path d="M 44.000938 107.260061 
L 458.784 107.260061 
" clip-path="url(#pcdda317217)" style="fill: none; stroke: #ffffff"/>
     </g>
     <g id="line2d_20">
      <path d="M 44.000938 107.260061 
" style="fill: none; stroke: #000000; stroke-width: 1.5"/>
      <g>
       <use xlink:href="#m6dd4bf173a" x="44.000938" y="107.260061" style="stroke: #333333"/>
      </g>
     </g>
     <g id="text_8">
      <!-- 890 -->
      <g style="fill: #4d4d4d" transform="translate(22.453938 109.688311) scale(0.088 -0.088)">
       <defs>
        <path id="DejaVuSans-39" d="M 703 97 
L 703 672 
Q 941 559 1184 500 
Q 1428 441 1663 441 
Q 2288 441 2617 861 
Q 2947 1281 2994 2138 
Q 2813 1869 2534 1725 
Q 2256 1581 1919 1581 
Q 1219 1581 811 2004 
Q 403 2428 403 3163 
Q 403 3881 828 4315 
Q 1253 4750 1959 4750 
Q 2769 4750 3195 4129 
Q 3622 3509 3622 2328 
Q 3622 1225 3098 567 
Q 2575 -91 1691 -91 
Q 1453 -91 1209 -44 
Q 966 3 703 97 
z
M 1959 2075 
Q 2384 2075 2632 2365 
Q 2881 2656 2881 3163 
Q 2881 3666 2632 3958 
Q 2384 4250 1959 4250 
Q 1534 4250 1286 3958 
Q 1038 3666 1038 3163 
Q 1038 2656 1286 2365 
Q 1534 2075 1959 2075 
z
" transform="scale(0.015625)"/>
       </defs>
       <use xlink:href="#DejaVuSans-38"/>
       <use xlink:href="#DejaVuSans-39" x="63.623047"/>
       <use xlink:href="#DejaVuSans-30" x="127.246094"/>
      </g>
     </g>
    </g>
    <g id="ytick_4">
     <g id="line2d_21">
      <path d="M 44.000938 35.01453 
L 458.784 35.01453 
" clip-path="url(#pcdda317217)" style="fill: none; stroke: #ffffff"/>
     </g>
     <g id="line2d_22">
      <path d="M 44.000938 35.01453 
" style="fill: none; stroke: #000000; stroke-width: 1.5"/>
      <g>
       <use xlink:href="#m6dd4bf173a" x="44.000938" y="35.01453" style="stroke: #333333"/>
      </g>
     </g>
     <g id="text_9">
      <!-- 900 -->
      <g style="fill: #4d4d4d" transform="translate(22.453938 37.44278) scale(0.088 -0.088)">
       <use xlink:href="#DejaVuSans-39"/>
       <use xlink:href="#DejaVuSans-30" x="63.623047"/>
       <use xlink:href="#DejaVuSans-30" x="127.246094"/>
      </g>
     </g>
    </g>
    <g id="ytick_5">
     <g id="line2d_23">
      <path d="M 44.000938 287.873889 
L 458.784 287.873889 
" clip-path="url(#pcdda317217)" style="fill: none; stroke: #ffffff; stroke-width: 0.5"/>
     </g>
    </g>
    <g id="ytick_6">
     <g id="line2d_24">
      <path d="M 44.000938 215.628358 
L 458.784 215.628358 
" clip-path="url(#pcdda317217)" style="fill: none; stroke: #ffffff; stroke-width: 0.5"/>
     </g>
    </g>
    <g id="ytick_7">
     <g id="line2d_25">
      <path d="M 44.000938 143.382827 
L 458.784 143.382827 
" clip-path="url(#pcdda317217)" style="fill: none; stroke: #ffffff; stroke-width: 0.5"/>
     </g>
    </g>
    <g id="ytick_8">
     <g id="line2d_26">
      <path d="M 44.000938 71.137295 
L 458.784 71.137295 
" clip-path="url(#pcdda317217)" style="fill: none; stroke: #ffffff; stroke-width: 0.5"/>
     </g>
    </g>
   </g>
   <g id="PathCollection_1">
    <path d="M 62.854713 289.646343 
C 63.324773 289.646343 63.775644 289.459586 64.108027 289.127203 
C 64.44041 288.794821 64.627167 288.343949 64.627167 287.873889 
C 64.627167 287.403829 64.44041 286.952958 64.108027 286.620575 
C 63.775644 286.288192 63.324773 286.101435 62.854713 286.101435 
C 62.384653 286.101435 61.933782 286.288192 61.601399 286.620575 
C 61.269016 286.952958 61.082259 287.403829 61.082259 287.873889 
C 61.082259 288.343949 61.269016 288.794821 61.601399 289.127203 
C 61.933782 289.459586 62.384653 289.646343 62.854713 289.646343 
z
" clip-path="url(#pcdda317217)" style="stroke: #000000; stroke-width: 0.886227"/>
    <path d="M 66.663557 181.278046 
C 67.133617 181.278046 67.584488 181.091289 67.916871 180.758906 
C 68.249254 180.426524 68.43601 179.975652 68.43601 179.505592 
C 68.43601 179.035532 68.249254 178.584661 67.916871 178.252278 
C 67.584488 177.919895 67.133617 177.733138 66.663557 177.733138 
C 66.193496 177.733138 65.742625 177.919895 65.410242 178.252278 
C 65.07786 178.584661 64.891103 179.035532 64.891103 179.505592 
C 64.891103 179.975652 65.07786 180.426524 65.410242 180.758906 
C 65.742625 181.091289 66.193496 181.278046 66.663557 181.278046 
z
" clip-path="url(#pcdda317217)" style="stroke: #000000; stroke-width: 0.886227"/>
    <path d="M 70.4724 109.032515 
C 70.94246 109.032515 71.393332 108.845758 71.725714 108.513375 
C 72.058097 108.180992 72.244854 107.730121 72.244854 107.260061 
C 72.244854 106.790001 72.058097 106.33913 71.725714 106.006747 
C 71.393332 105.674364 70.94246 105.487607 70.4724 105.487607 
C 70.00234 105.487607 69.551469 105.674364 69.219086 106.006747 
C 68.886703 106.33913 68.699946 106.790001 68.699946 107.260061 
C 68.699946 107.730121 68.886703 108.180992 69.219086 108.513375 
C 69.551469 108.845758 70.00234 109.032515 70.4724 109.032515 
z
" clip-path="url(#pcdda317217)" style="stroke: #000000; stroke-width: 0.886227"/>
    <path d="M 74.281244 94.583408 
C 74.751304 94.583408 75.202175 94.396652 75.534558 94.064269 
C 75.866941 93.731886 76.053698 93.281015 76.053698 92.810955 
C 76.053698 92.340894 75.866941 91.890023 75.534558 91.55764 
C 75.202175 91.225258 74.751304 91.038501 74.281244 91.038501 
C 73.811183 91.038501 73.360312 91.225258 73.02793 91.55764 
C 72.695547 91.890023 72.50879 92.340894 72.50879 92.810955 
C 72.50879 93.281015 72.695547 93.731886 73.02793 94.064269 
C 73.360312 94.396652 73.811183 94.583408 74.281244 94.583408 
z
" clip-path="url(#pcdda317217)" style="stroke: #000000; stroke-width: 0.886227"/>
    <path d="M 78.090087 58.460643 
C 78.560148 58.460643 79.011019 58.273886 79.343401 57.941503 
C 79.675784 57.60912 79.862541 57.158249 79.862541 56.688189 
C 79.862541 56.218129 79.675784 55.767258 79.343401 55.434875 
C 79.011019 55.102492 78.560148 54.915735 78.090087 54.915735 
C 77.620027 54.915735 77.169156 55.102492 76.836773 55.434875 
C 76.50439 55.767258 76.317633 56.218129 76.317633 56.688189 
C 76.317633 57.158249 76.50439 57.60912 76.836773 57.941503 
C 77.169156 58.273886 77.620027 58.460643 78.090087 58.460643 
z
" clip-path="url(#pcdda317217)" style="stroke: #000000; stroke-width: 0.886227"/>
    <path d="M 81.898931 36.786983 
C 82.368991 36.786983 82.819862 36.600226 83.152245 36.267844 
C 83.484628 35.935461 83.671385 35.48459 83.671385 35.01453 
C 83.671385 34.544469 83.484628 34.093598 83.152245 33.761215 
C 82.819862 33.428833 82.368991 33.242076 81.898931 33.242076 
C 81.428871 33.242076 80.977999 33.428833 80.645617 33.761215 
C 80.313234 34.093598 80.126477 34.544469 80.126477 35.01453 
C 80.126477 35.48459 80.313234 35.935461 80.645617 36.267844 
C 80.977999 36.600226 81.428871 36.786983 81.898931 36.786983 
z
" clip-path="url(#pcdda317217)" style="stroke: #000000; stroke-width: 0.886227"/>
    <path d="M 85.707774 22.337877 
C 86.177835 22.337877 86.628706 22.15112 86.961089 21.818737 
C 87.293471 21.486355 87.480228 21.035484 87.480228 20.565423 
C 87.480228 20.095363 87.293471 19.644492 86.961089 19.312109 
C 86.628706 18.979726 86.177835 18.792969 85.707774 18.792969 
C 85.237714 18.792969 84.786843 18.979726 84.45446 19.312109 
C 84.122077 19.644492 83.935321 20.095363 83.935321 20.565423 
C 83.935321 21.035484 84.122077 21.486355 84.45446 21.818737 
C 84.786843 22.15112 85.237714 22.337877 85.707774 22.337877 
z
" clip-path="url(#pcdda317217)" style="stroke: #000000; stroke-width: 0.886227"/>
    <path d="M 89.516618 101.807962 
C 89.986678 101.807962 90.437549 101.621205 90.769932 101.288822 
C 91.102315 100.956439 91.289072 100.505568 91.289072 100.035508 
C 91.289072 99.565447 91.102315 99.114576 90.769932 98.782194 
C 90.437549 98.449811 89.986678 98.263054 89.516618 98.263054 
C 89.046558 98.263054 88.595687 98.449811 88.263304 98.782194 
C 87.930921 99.114576 87.744164 99.565447 87.744164 100.035508 
C 87.744164 100.505568 87.930921 100.956439 88.263304 101.288822 
C 88.595687 101.621205 89.046558 101.807962 89.516618 101.807962 
z
" clip-path="url(#pcdda317217)" style="stroke: #000000; stroke-width: 0.886227"/>
    <path d="M 93.325461 72.909749 
C 93.795522 72.909749 94.246393 72.722992 94.578776 72.390609 
C 94.911158 72.058227 95.097915 71.607355 95.097915 71.137295 
C 95.097915 70.667235 94.911158 70.216364 94.578776 69.883981 
C 94.246393 69.551598 93.795522 69.364841 93.325461 69.364841 
C 92.855401 69.364841 92.40453 69.551598 92.072147 69.883981 
C 91.739765 70.216364 91.553008 70.667235 91.553008 71.137295 
C 91.553008 71.607355 91.739765 72.058227 92.072147 72.390609 
C 92.40453 72.722992 92.855401 72.909749 93.325461 72.909749 
z
" clip-path="url(#pcdda317217)" style="stroke: #000000; stroke-width: 0.886227"/>
    <path d="M 97.134305 145.15528 
C 97.604365 145.15528 98.055236 144.968523 98.387619 144.636141 
C 98.720002 144.303758 98.906759 143.852887 98.906759 143.382827 
C 98.906759 142.912766 98.720002 142.461895 98.387619 142.129512 
C 98.055236 141.79713 97.604365 141.610373 97.134305 141.610373 
C 96.664245 141.610373 96.213374 141.79713 95.880991 142.129512 
C 95.548608 142.461895 95.361851 142.912766 95.361851 143.382827 
C 95.361851 143.852887 95.548608 144.303758 95.880991 144.636141 
C 96.213374 144.968523 96.664245 145.15528 97.134305 145.15528 
z
" clip-path="url(#pcdda317217)" style="stroke: #000000; stroke-width: 0.886227"/>
    <path d="M 100.943149 109.032515 
C 101.413209 109.032515 101.86408 108.845758 102.196463 108.513375 
C 102.528845 108.180992 102.715602 107.730121 102.715602 107.260061 
C 102.715602 106.790001 102.528845 106.33913 102.196463 106.006747 
C 101.86408 105.674364 101.413209 105.487607 100.943149 105.487607 
C 100.473088 105.487607 100.022217 105.674364 99.689834 106.006747 
C 99.357452 106.33913 99.170695 106.790001 99.170695 107.260061 
C 99.170695 107.730121 99.357452 108.180992 99.689834 108.513375 
C 100.022217 108.845758 100.473088 109.032515 100.943149 109.032515 
z
" clip-path="url(#pcdda317217)" style="stroke: #000000; stroke-width: 0.886227"/>
    <path d="M 104.751992 123.481621 
C 105.222052 123.481621 105.672923 123.294864 106.005306 122.962481 
C 106.337689 122.630098 106.524446 122.179227 106.524446 121.709167 
C 106.524446 121.239107 106.337689 120.788236 106.005306 120.455853 
C 105.672923 120.12347 105.222052 119.936713 104.751992 119.936713 
C 104.281932 119.936713 103.831061 120.12347 103.498678 120.455853 
C 103.166295 120.788236 102.979538 121.239107 102.979538 121.709167 
C 102.979538 122.179227 103.166295 122.630098 103.498678 122.962481 
C 103.831061 123.294864 104.281932 123.481621 104.751992 123.481621 
z
" clip-path="url(#pcdda317217)" style="stroke: #000000; stroke-width: 0.886227"/>
    <path d="M 108.560836 145.15528 
C 109.030896 145.15528 109.481767 144.968523 109.81415 144.636141 
C 110.146533 144.303758 110.33329 143.852887 110.33329 143.382827 
C 110.33329 142.912766 110.146533 142.461895 109.81415 142.129512 
C 109.481767 141.79713 109.030896 141.610373 108.560836 141.610373 
C 108.090775 141.610373 107.639904 141.79713 107.307522 142.129512 
C 106.975139 142.461895 106.788382 142.912766 106.788382 143.382827 
C 106.788382 143.852887 106.975139 144.303758 107.307522 144.636141 
C 107.639904 144.968523 108.090775 145.15528 108.560836 145.15528 
z
" clip-path="url(#pcdda317217)" style="stroke: #000000; stroke-width: 0.886227"/>
    <path d="M 112.369679 166.82894 
C 112.839739 166.82894 113.290611 166.642183 113.622993 166.3098 
C 113.955376 165.977417 114.142133 165.526546 114.142133 165.056486 
C 114.142133 164.586426 113.955376 164.135555 113.622993 163.803172 
C 113.290611 163.470789 112.839739 163.284032 112.369679 163.284032 
C 111.899619 163.284032 111.448748 163.470789 111.116365 163.803172 
C 110.783982 164.135555 110.597225 164.586426 110.597225 165.056486 
C 110.597225 165.526546 110.783982 165.977417 111.116365 166.3098 
C 111.448748 166.642183 111.899619 166.82894 112.369679 166.82894 
z
" clip-path="url(#pcdda317217)" style="stroke: #000000; stroke-width: 0.886227"/>
    <path d="M 116.178523 224.625365 
C 116.648583 224.625365 117.099454 224.438608 117.431837 224.106225 
C 117.76422 223.773842 117.950977 223.322971 117.950977 222.852911 
C 117.950977 222.382851 117.76422 221.93198 117.431837 221.599597 
C 117.099454 221.267214 116.648583 221.080457 116.178523 221.080457 
C 115.708463 221.080457 115.257591 221.267214 114.925209 221.599597 
C 114.592826 221.93198 114.406069 222.382851 114.406069 222.852911 
C 114.406069 223.322971 114.592826 223.773842 114.925209 224.106225 
C 115.257591 224.438608 115.708463 224.625365 116.178523 224.625365 
z
" clip-path="url(#pcdda317217)" style="stroke: #000000; stroke-width: 0.886227"/>
    <path d="M 119.987366 188.502599 
C 120.457427 188.502599 120.908298 188.315842 121.24068 187.983459 
C 121.573063 187.651077 121.75982 187.200206 121.75982 186.730145 
C 121.75982 186.260085 121.573063 185.809214 121.24068 185.476831 
C 120.908298 185.144448 120.457427 184.957691 119.987366 184.957691 
C 119.517306 184.957691 119.066435 185.144448 118.734052 185.476831 
C 118.401669 185.809214 118.214912 186.260085 118.214912 186.730145 
C 118.214912 187.200206 118.401669 187.651077 118.734052 187.983459 
C 119.066435 188.315842 119.517306 188.502599 119.987366 188.502599 
z
" clip-path="url(#pcdda317217)" style="stroke: #000000; stroke-width: 0.886227"/>
    <path d="M 123.79621 109.032515 
C 124.26627 109.032515 124.717141 108.845758 125.049524 108.513375 
C 125.381907 108.180992 125.568664 107.730121 125.568664 107.260061 
C 125.568664 106.790001 125.381907 106.33913 125.049524 106.006747 
C 124.717141 105.674364 124.26627 105.487607 123.79621 105.487607 
C 123.32615 105.487607 122.875279 105.674364 122.542896 106.006747 
C 122.210513 106.33913 122.023756 106.790001 122.023756 107.260061 
C 122.023756 107.730121 122.210513 108.180992 122.542896 108.513375 
C 122.875279 108.845758 123.32615 109.032515 123.79621 109.032515 
z
" clip-path="url(#pcdda317217)" style="stroke: #000000; stroke-width: 0.886227"/>
    <path d="M 127.605053 166.82894 
C 128.075114 166.82894 128.525985 166.642183 128.858368 166.3098 
C 129.19075 165.977417 129.377507 165.526546 129.377507 165.056486 
C 129.377507 164.586426 129.19075 164.135555 128.858368 163.803172 
C 128.525985 163.470789 128.075114 163.284032 127.605053 163.284032 
C 127.134993 163.284032 126.684122 163.470789 126.351739 163.803172 
C 126.019356 164.135555 125.8326 164.586426 125.8326 165.056486 
C 125.8326 165.526546 126.019356 165.977417 126.351739 166.3098 
C 126.684122 166.642183 127.134993 166.82894 127.605053 166.82894 
z
" clip-path="url(#pcdda317217)" style="stroke: #000000; stroke-width: 0.886227"/>
    <path d="M 131.413897 152.379834 
C 131.883957 152.379834 132.334828 152.193077 132.667211 151.860694 
C 132.999594 151.528311 133.186351 151.07744 133.186351 150.60738 
C 133.186351 150.137319 132.999594 149.686448 132.667211 149.354066 
C 132.334828 149.021683 131.883957 148.834926 131.413897 148.834926 
C 130.943837 148.834926 130.492966 149.021683 130.160583 149.354066 
C 129.8282 149.686448 129.641443 150.137319 129.641443 150.60738 
C 129.641443 151.07744 129.8282 151.528311 130.160583 151.860694 
C 130.492966 152.193077 130.943837 152.379834 131.413897 152.379834 
z
" clip-path="url(#pcdda317217)" style="stroke: #000000; stroke-width: 0.886227"/>
    <path d="M 135.222741 116.257068 
C 135.692801 116.257068 136.143672 116.070311 136.476055 115.737928 
C 136.808437 115.405545 136.995194 114.954674 136.995194 114.484614 
C 136.995194 114.014554 136.808437 113.563683 136.476055 113.2313 
C 136.143672 112.898917 135.692801 112.71216 135.222741 112.71216 
C 134.75268 112.71216 134.301809 112.898917 133.969426 113.2313 
C 133.637044 113.563683 133.450287 114.014554 133.450287 114.484614 
C 133.450287 114.954674 133.637044 115.405545 133.969426 115.737928 
C 134.301809 116.070311 134.75268 116.257068 135.222741 116.257068 
z
" clip-path="url(#pcdda317217)" style="stroke: #000000; stroke-width: 0.886227"/>
    <path d="M 139.031584 101.807962 
C 139.501644 101.807962 139.952515 101.621205 140.284898 101.288822 
C 140.617281 100.956439 140.804038 100.505568 140.804038 100.035508 
C 140.804038 99.565447 140.617281 99.114576 140.284898 98.782194 
C 139.952515 98.449811 139.501644 98.263054 139.031584 98.263054 
C 138.561524 98.263054 138.110653 98.449811 137.77827 98.782194 
C 137.445887 99.114576 137.25913 99.565447 137.25913 100.035508 
C 137.25913 100.505568 137.445887 100.956439 137.77827 101.288822 
C 138.110653 101.621205 138.561524 101.807962 139.031584 101.807962 
z
" clip-path="url(#pcdda317217)" style="stroke: #000000; stroke-width: 0.886227"/>
    <path d="M 142.840428 174.053493 
C 143.310488 174.053493 143.761359 173.866736 144.093742 173.534353 
C 144.426125 173.20197 144.612881 172.751099 144.612881 172.281039 
C 144.612881 171.810979 144.426125 171.360108 144.093742 171.027725 
C 143.761359 170.695342 143.310488 170.508585 142.840428 170.508585 
C 142.370367 170.508585 141.919496 170.695342 141.587113 171.027725 
C 141.254731 171.360108 141.067974 171.810979 141.067974 172.281039 
C 141.067974 172.751099 141.254731 173.20197 141.587113 173.534353 
C 141.919496 173.866736 142.370367 174.053493 142.840428 174.053493 
z
" clip-path="url(#pcdda317217)" style="stroke: #000000; stroke-width: 0.886227"/>
    <path d="M 146.649271 22.337877 
C 147.119331 22.337877 147.570202 22.15112 147.902585 21.818737 
C 148.234968 21.486355 148.421725 21.035484 148.421725 20.565423 
C 148.421725 20.095363 148.234968 19.644492 147.902585 19.312109 
C 147.570202 18.979726 147.119331 18.792969 146.649271 18.792969 
C 146.179211 18.792969 145.72834 18.979726 145.395957 19.312109 
C 145.063574 19.644492 144.876817 20.095363 144.876817 20.565423 
C 144.876817 21.035484 145.063574 21.486355 145.395957 21.818737 
C 145.72834 22.15112 146.179211 22.337877 146.649271 22.337877 
z
" clip-path="url(#pcdda317217)" style="stroke: #000000; stroke-width: 0.886227"/>
    <path d="M 150.458115 44.011537 
C 150.928175 44.011537 151.379046 43.82478 151.711429 43.492397 
C 152.043812 43.160014 152.230569 42.709143 152.230569 42.239083 
C 152.230569 41.769022 152.043812 41.318151 151.711429 40.985769 
C 151.379046 40.653386 150.928175 40.466629 150.458115 40.466629 
C 149.988054 40.466629 149.537183 40.653386 149.204801 40.985769 
C 148.872418 41.318151 148.685661 41.769022 148.685661 42.239083 
C 148.685661 42.709143 148.872418 43.160014 149.204801 43.492397 
C 149.537183 43.82478 149.988054 44.011537 150.458115 44.011537 
z
" clip-path="url(#pcdda317217)" style="stroke: #000000; stroke-width: 0.886227"/>
    <path d="M 154.266958 87.358855 
C 154.737019 87.358855 155.18789 87.172098 155.520272 86.839716 
C 155.852655 86.507333 156.039412 86.056462 156.039412 85.586401 
C 156.039412 85.116341 155.852655 84.66547 155.520272 84.333087 
C 155.18789 84.000705 154.737019 83.813948 154.266958 83.813948 
C 153.796898 83.813948 153.346027 84.000705 153.013644 84.333087 
C 152.681261 84.66547 152.494504 85.116341 152.494504 85.586401 
C 152.494504 86.056462 152.681261 86.507333 153.013644 86.839716 
C 153.346027 87.172098 153.796898 87.358855 154.266958 87.358855 
z
" clip-path="url(#pcdda317217)" style="stroke: #000000; stroke-width: 0.886227"/>
    <path d="M 158.075802 94.583408 
C 158.545862 94.583408 158.996733 94.396652 159.329116 94.064269 
C 159.661499 93.731886 159.848256 93.281015 159.848256 92.810955 
C 159.848256 92.340894 159.661499 91.890023 159.329116 91.55764 
C 158.996733 91.225258 158.545862 91.038501 158.075802 91.038501 
C 157.605742 91.038501 157.15487 91.225258 156.822488 91.55764 
C 156.490105 91.890023 156.303348 92.340894 156.303348 92.810955 
C 156.303348 93.281015 156.490105 93.731886 156.822488 94.064269 
C 157.15487 94.396652 157.605742 94.583408 158.075802 94.583408 
z
" clip-path="url(#pcdda317217)" style="stroke: #000000; stroke-width: 0.886227"/>
    <path d="M 161.884645 109.032515 
C 162.354706 109.032515 162.805577 108.845758 163.137959 108.513375 
C 163.470342 108.180992 163.657099 107.730121 163.657099 107.260061 
C 163.657099 106.790001 163.470342 106.33913 163.137959 106.006747 
C 162.805577 105.674364 162.354706 105.487607 161.884645 105.487607 
C 161.414585 105.487607 160.963714 105.674364 160.631331 106.006747 
C 160.298948 106.33913 160.112191 106.790001 160.112191 107.260061 
C 160.112191 107.730121 160.298948 108.180992 160.631331 108.513375 
C 160.963714 108.845758 161.414585 109.032515 161.884645 109.032515 
z
" clip-path="url(#pcdda317217)" style="stroke: #000000; stroke-width: 0.886227"/>
    <path d="M 165.693489 166.82894 
C 166.163549 166.82894 166.61442 166.642183 166.946803 166.3098 
C 167.279186 165.977417 167.465943 165.526546 167.465943 165.056486 
C 167.465943 164.586426 167.279186 164.135555 166.946803 163.803172 
C 166.61442 163.470789 166.163549 163.284032 165.693489 163.284032 
C 165.223429 163.284032 164.772558 163.470789 164.440175 163.803172 
C 164.107792 164.135555 163.921035 164.586426 163.921035 165.056486 
C 163.921035 165.526546 164.107792 165.977417 164.440175 166.3098 
C 164.772558 166.642183 165.223429 166.82894 165.693489 166.82894 
z
" clip-path="url(#pcdda317217)" style="stroke: #000000; stroke-width: 0.886227"/>
    <path d="M 169.502332 195.727152 
C 169.972393 195.727152 170.423264 195.540395 170.755647 195.208013 
C 171.088029 194.87563 171.274786 194.424759 171.274786 193.954698 
C 171.274786 193.484638 171.088029 193.033767 170.755647 192.701384 
C 170.423264 192.369002 169.972393 192.182245 169.502332 192.182245 
C 169.032272 192.182245 168.581401 192.369002 168.249018 192.701384 
C 167.916636 193.033767 167.729879 193.484638 167.729879 193.954698 
C 167.729879 194.424759 167.916636 194.87563 168.249018 195.208013 
C 168.581401 195.540395 169.032272 195.727152 169.502332 195.727152 
z
" clip-path="url(#pcdda317217)" style="stroke: #000000; stroke-width: 0.886227"/>
    <path d="M 173.311176 195.727152 
C 173.781236 195.727152 174.232107 195.540395 174.56449 195.208013 
C 174.896873 194.87563 175.08363 194.424759 175.08363 193.954698 
C 175.08363 193.484638 174.896873 193.033767 174.56449 192.701384 
C 174.232107 192.369002 173.781236 192.182245 173.311176 192.182245 
C 172.841116 192.182245 172.390245 192.369002 172.057862 192.701384 
C 171.725479 193.033767 171.538722 193.484638 171.538722 193.954698 
C 171.538722 194.424759 171.725479 194.87563 172.057862 195.208013 
C 172.390245 195.540395 172.841116 195.727152 173.311176 195.727152 
z
" clip-path="url(#pcdda317217)" style="stroke: #000000; stroke-width: 0.886227"/>
    <path d="M 177.12002 202.951705 
C 177.59008 202.951705 178.040951 202.764949 178.373334 202.432566 
C 178.705716 202.100183 178.892473 201.649312 178.892473 201.179252 
C 178.892473 200.709191 178.705716 200.25832 178.373334 199.925937 
C 178.040951 199.593555 177.59008 199.406798 177.12002 199.406798 
C 176.649959 199.406798 176.199088 199.593555 175.866705 199.925937 
C 175.534323 200.25832 175.347566 200.709191 175.347566 201.179252 
C 175.347566 201.649312 175.534323 202.100183 175.866705 202.432566 
C 176.199088 202.764949 176.649959 202.951705 177.12002 202.951705 
z
" clip-path="url(#pcdda317217)" style="stroke: #000000; stroke-width: 0.886227"/>
    <path d="M 180.928863 36.786983 
C 181.398923 36.786983 181.849794 36.600226 182.182177 36.267844 
C 182.51456 35.935461 182.701317 35.48459 182.701317 35.01453 
C 182.701317 34.544469 182.51456 34.093598 182.182177 33.761215 
C 181.849794 33.428833 181.398923 33.242076 180.928863 33.242076 
C 180.458803 33.242076 180.007932 33.428833 179.675549 33.761215 
C 179.343166 34.093598 179.156409 34.544469 179.156409 35.01453 
C 179.156409 35.48459 179.343166 35.935461 179.675549 36.267844 
C 180.007932 36.600226 180.458803 36.786983 180.928863 36.786983 
z
" clip-path="url(#pcdda317217)" style="stroke: #000000; stroke-width: 0.886227"/>
    <path d="M 184.737707 22.337877 
C 185.207767 22.337877 185.658638 22.15112 185.991021 21.818737 
C 186.323404 21.486355 186.51016 21.035484 186.51016 20.565423 
C 186.51016 20.095363 186.323404 19.644492 185.991021 19.312109 
C 185.658638 18.979726 185.207767 18.792969 184.737707 18.792969 
C 184.267646 18.792969 183.816775 18.979726 183.484393 19.312109 
C 183.15201 19.644492 182.965253 20.095363 182.965253 20.565423 
C 182.965253 21.035484 183.15201 21.486355 183.484393 21.818737 
C 183.816775 22.15112 184.267646 22.337877 184.737707 22.337877 
z
" clip-path="url(#pcdda317217)" style="stroke: #000000; stroke-width: 0.886227"/>
    <path d="M 188.54655 44.011537 
C 189.01661 44.011537 189.467482 43.82478 189.799864 43.492397 
C 190.132247 43.160014 190.319004 42.709143 190.319004 42.239083 
C 190.319004 41.769022 190.132247 41.318151 189.799864 40.985769 
C 189.467482 40.653386 189.01661 40.466629 188.54655 40.466629 
C 188.07649 40.466629 187.625619 40.653386 187.293236 40.985769 
C 186.960853 41.318151 186.774096 41.769022 186.774096 42.239083 
C 186.774096 42.709143 186.960853 43.160014 187.293236 43.492397 
C 187.625619 43.82478 188.07649 44.011537 188.54655 44.011537 
z
" clip-path="url(#pcdda317217)" style="stroke: #000000; stroke-width: 0.886227"/>
    <path d="M 192.355394 87.358855 
C 192.825454 87.358855 193.276325 87.172098 193.608708 86.839716 
C 193.941091 86.507333 194.127848 86.056462 194.127848 85.586401 
C 194.127848 85.116341 193.941091 84.66547 193.608708 84.333087 
C 193.276325 84.000705 192.825454 83.813948 192.355394 83.813948 
C 191.885333 83.813948 191.434462 84.000705 191.10208 84.333087 
C 190.769697 84.66547 190.58294 85.116341 190.58294 85.586401 
C 190.58294 86.056462 190.769697 86.507333 191.10208 86.839716 
C 191.434462 87.172098 191.885333 87.358855 192.355394 87.358855 
z
" clip-path="url(#pcdda317217)" style="stroke: #000000; stroke-width: 0.886227"/>
    <path d="M 196.164237 94.583408 
C 196.634298 94.583408 197.085169 94.396652 197.417551 94.064269 
C 197.749934 93.731886 197.936691 93.281015 197.936691 92.810955 
C 197.936691 92.340894 197.749934 91.890023 197.417551 91.55764 
C 197.085169 91.225258 196.634298 91.038501 196.164237 91.038501 
C 195.694177 91.038501 195.243306 91.225258 194.910923 91.55764 
C 194.57854 91.890023 194.391783 92.340894 194.391783 92.810955 
C 194.391783 93.281015 194.57854 93.731886 194.910923 94.064269 
C 195.243306 94.396652 195.694177 94.583408 196.164237 94.583408 
z
" clip-path="url(#pcdda317217)" style="stroke: #000000; stroke-width: 0.886227"/>
    <path d="M 199.973081 109.032515 
C 200.443141 109.032515 200.894012 108.845758 201.226395 108.513375 
C 201.558778 108.180992 201.745535 107.730121 201.745535 107.260061 
C 201.745535 106.790001 201.558778 106.33913 201.226395 106.006747 
C 200.894012 105.674364 200.443141 105.487607 199.973081 105.487607 
C 199.503021 105.487607 199.052149 105.674364 198.719767 106.006747 
C 198.387384 106.33913 198.200627 106.790001 198.200627 107.260061 
C 198.200627 107.730121 198.387384 108.180992 198.719767 108.513375 
C 199.052149 108.845758 199.503021 109.032515 199.973081 109.032515 
z
" clip-path="url(#pcdda317217)" style="stroke: #000000; stroke-width: 0.886227"/>
    <path d="M 203.781924 166.82894 
C 204.251985 166.82894 204.702856 166.642183 205.035239 166.3098 
C 205.367621 165.977417 205.554378 165.526546 205.554378 165.056486 
C 205.554378 164.586426 205.367621 164.135555 205.035239 163.803172 
C 204.702856 163.470789 204.251985 163.284032 203.781924 163.284032 
C 203.311864 163.284032 202.860993 163.470789 202.52861 163.803172 
C 202.196227 164.135555 202.009471 164.586426 202.009471 165.056486 
C 202.009471 165.526546 202.196227 165.977417 202.52861 166.3098 
C 202.860993 166.642183 203.311864 166.82894 203.781924 166.82894 
z
" clip-path="url(#pcdda317217)" style="stroke: #000000; stroke-width: 0.886227"/>
    <path d="M 207.590768 195.727152 
C 208.060828 195.727152 208.511699 195.540395 208.844082 195.208013 
C 209.176465 194.87563 209.363222 194.424759 209.363222 193.954698 
C 209.363222 193.484638 209.176465 193.033767 208.844082 192.701384 
C 208.511699 192.369002 208.060828 192.182245 207.590768 192.182245 
C 207.120708 192.182245 206.669837 192.369002 206.337454 192.701384 
C 206.005071 193.033767 205.818314 193.484638 205.818314 193.954698 
C 205.818314 194.424759 206.005071 194.87563 206.337454 195.208013 
C 206.669837 195.540395 207.120708 195.727152 207.590768 195.727152 
z
" clip-path="url(#pcdda317217)" style="stroke: #000000; stroke-width: 0.886227"/>
    <path d="M 211.399611 195.727152 
C 211.869672 195.727152 212.320543 195.540395 212.652926 195.208013 
C 212.985308 194.87563 213.172065 194.424759 213.172065 193.954698 
C 213.172065 193.484638 212.985308 193.033767 212.652926 192.701384 
C 212.320543 192.369002 211.869672 192.182245 211.399611 192.182245 
C 210.929551 192.182245 210.47868 192.369002 210.146297 192.701384 
C 209.813915 193.033767 209.627158 193.484638 209.627158 193.954698 
C 209.627158 194.424759 209.813915 194.87563 210.146297 195.208013 
C 210.47868 195.540395 210.929551 195.727152 211.399611 195.727152 
z
" clip-path="url(#pcdda317217)" style="stroke: #000000; stroke-width: 0.886227"/>
    <path d="M 215.208455 202.951705 
C 215.678515 202.951705 216.129386 202.764949 216.461769 202.432566 
C 216.794152 202.100183 216.980909 201.649312 216.980909 201.179252 
C 216.980909 200.709191 216.794152 200.25832 216.461769 199.925937 
C 216.129386 199.593555 215.678515 199.406798 215.208455 199.406798 
C 214.738395 199.406798 214.287524 199.593555 213.955141 199.925937 
C 213.622758 200.25832 213.436001 200.709191 213.436001 201.179252 
C 213.436001 201.649312 213.622758 202.100183 213.955141 202.432566 
C 214.287524 202.764949 214.738395 202.951705 215.208455 202.951705 
z
" clip-path="url(#pcdda317217)" style="stroke: #000000; stroke-width: 0.886227"/>
    <path d="M 219.017299 36.786983 
C 219.487359 36.786983 219.93823 36.600226 220.270613 36.267844 
C 220.602996 35.935461 220.789752 35.48459 220.789752 35.01453 
C 220.789752 34.544469 220.602996 34.093598 220.270613 33.761215 
C 219.93823 33.428833 219.487359 33.242076 219.017299 33.242076 
C 218.547238 33.242076 218.096367 33.428833 217.763984 33.761215 
C 217.431602 34.093598 217.244845 34.544469 217.244845 35.01453 
C 217.244845 35.48459 217.431602 35.935461 217.763984 36.267844 
C 218.096367 36.600226 218.547238 36.786983 219.017299 36.786983 
z
" clip-path="url(#pcdda317217)" style="stroke: #000000; stroke-width: 0.886227"/>
    <path d="M 222.826142 22.337877 
C 223.296202 22.337877 223.747073 22.15112 224.079456 21.818737 
C 224.411839 21.486355 224.598596 21.035484 224.598596 20.565423 
C 224.598596 20.095363 224.411839 19.644492 224.079456 19.312109 
C 223.747073 18.979726 223.296202 18.792969 222.826142 18.792969 
C 222.356082 18.792969 221.905211 18.979726 221.572828 19.312109 
C 221.240445 19.644492 221.053688 20.095363 221.053688 20.565423 
C 221.053688 21.035484 221.240445 21.486355 221.572828 21.818737 
C 221.905211 22.15112 222.356082 22.337877 222.826142 22.337877 
z
" clip-path="url(#pcdda317217)" style="stroke: #000000; stroke-width: 0.886227"/>
    <path d="M 226.634986 44.011537 
C 227.105046 44.011537 227.555917 43.82478 227.8883 43.492397 
C 228.220683 43.160014 228.40744 42.709143 228.40744 42.239083 
C 228.40744 41.769022 228.220683 41.318151 227.8883 40.985769 
C 227.555917 40.653386 227.105046 40.466629 226.634986 40.466629 
C 226.164925 40.466629 225.714054 40.653386 225.381672 40.985769 
C 225.049289 41.318151 224.862532 41.769022 224.862532 42.239083 
C 224.862532 42.709143 225.049289 43.160014 225.381672 43.492397 
C 225.714054 43.82478 226.164925 44.011537 226.634986 44.011537 
z
" clip-path="url(#pcdda317217)" style="stroke: #000000; stroke-width: 0.886227"/>
    <path d="M 230.443829 87.358855 
C 230.913889 87.358855 231.364761 87.172098 231.697143 86.839716 
C 232.029526 86.507333 232.216283 86.056462 232.216283 85.586401 
C 232.216283 85.116341 232.029526 84.66547 231.697143 84.333087 
C 231.364761 84.000705 230.913889 83.813948 230.443829 83.813948 
C 229.973769 83.813948 229.522898 84.000705 229.190515 84.333087 
C 228.858132 84.66547 228.671375 85.116341 228.671375 85.586401 
C 228.671375 86.056462 228.858132 86.507333 229.190515 86.839716 
C 229.522898 87.172098 229.973769 87.358855 230.443829 87.358855 
z
" clip-path="url(#pcdda317217)" style="stroke: #000000; stroke-width: 0.886227"/>
    <path d="M 234.252673 94.583408 
C 234.722733 94.583408 235.173604 94.396652 235.505987 94.064269 
C 235.83837 93.731886 236.025127 93.281015 236.025127 92.810955 
C 236.025127 92.340894 235.83837 91.890023 235.505987 91.55764 
C 235.173604 91.225258 234.722733 91.038501 234.252673 91.038501 
C 233.782613 91.038501 233.331741 91.225258 232.999359 91.55764 
C 232.666976 91.890023 232.480219 92.340894 232.480219 92.810955 
C 232.480219 93.281015 232.666976 93.731886 232.999359 94.064269 
C 233.331741 94.396652 233.782613 94.583408 234.252673 94.583408 
z
" clip-path="url(#pcdda317217)" style="stroke: #000000; stroke-width: 0.886227"/>
    <path d="M 238.061516 109.032515 
C 238.531577 109.032515 238.982448 108.845758 239.31483 108.513375 
C 239.647213 108.180992 239.83397 107.730121 239.83397 107.260061 
C 239.83397 106.790001 239.647213 106.33913 239.31483 106.006747 
C 238.982448 105.674364 238.531577 105.487607 238.061516 105.487607 
C 237.591456 105.487607 237.140585 105.674364 236.808202 106.006747 
C 236.475819 106.33913 236.289062 106.790001 236.289062 107.260061 
C 236.289062 107.730121 236.475819 108.180992 236.808202 108.513375 
C 237.140585 108.845758 237.591456 109.032515 238.061516 109.032515 
z
" clip-path="url(#pcdda317217)" style="stroke: #000000; stroke-width: 0.886227"/>
    <path d="M 241.87036 166.82894 
C 242.34042 166.82894 242.791291 166.642183 243.123674 166.3098 
C 243.456057 165.977417 243.642814 165.526546 243.642814 165.056486 
C 243.642814 164.586426 243.456057 164.135555 243.123674 163.803172 
C 242.791291 163.470789 242.34042 163.284032 241.87036 163.284032 
C 241.4003 163.284032 240.949429 163.470789 240.617046 163.803172 
C 240.284663 164.135555 240.097906 164.586426 240.097906 165.056486 
C 240.097906 165.526546 240.284663 165.977417 240.617046 166.3098 
C 240.949429 166.642183 241.4003 166.82894 241.87036 166.82894 
z
" clip-path="url(#pcdda317217)" style="stroke: #000000; stroke-width: 0.886227"/>
    <path d="M 245.679203 195.727152 
C 246.149264 195.727152 246.600135 195.540395 246.932518 195.208013 
C 247.2649 194.87563 247.451657 194.424759 247.451657 193.954698 
C 247.451657 193.484638 247.2649 193.033767 246.932518 192.701384 
C 246.600135 192.369002 246.149264 192.182245 245.679203 192.182245 
C 245.209143 192.182245 244.758272 192.369002 244.425889 192.701384 
C 244.093506 193.033767 243.90675 193.484638 243.90675 193.954698 
C 243.90675 194.424759 244.093506 194.87563 244.425889 195.208013 
C 244.758272 195.540395 245.209143 195.727152 245.679203 195.727152 
z
" clip-path="url(#pcdda317217)" style="stroke: #000000; stroke-width: 0.886227"/>
    <path d="M 249.488047 195.727152 
C 249.958107 195.727152 250.408978 195.540395 250.741361 195.208013 
C 251.073744 194.87563 251.260501 194.424759 251.260501 193.954698 
C 251.260501 193.484638 251.073744 193.033767 250.741361 192.701384 
C 250.408978 192.369002 249.958107 192.182245 249.488047 192.182245 
C 249.017987 192.182245 248.567116 192.369002 248.234733 192.701384 
C 247.90235 193.033767 247.715593 193.484638 247.715593 193.954698 
C 247.715593 194.424759 247.90235 194.87563 248.234733 195.208013 
C 248.567116 195.540395 249.017987 195.727152 249.488047 195.727152 
z
" clip-path="url(#pcdda317217)" style="stroke: #000000; stroke-width: 0.886227"/>
    <path d="M 253.296891 202.951705 
C 253.766951 202.951705 254.217822 202.764949 254.550205 202.432566 
C 254.882587 202.100183 255.069344 201.649312 255.069344 201.179252 
C 255.069344 200.709191 254.882587 200.25832 254.550205 199.925937 
C 254.217822 199.593555 253.766951 199.406798 253.296891 199.406798 
C 252.82683 199.406798 252.375959 199.593555 252.043576 199.925937 
C 251.711194 200.25832 251.524437 200.709191 251.524437 201.179252 
C 251.524437 201.649312 251.711194 202.100183 252.043576 202.432566 
C 252.375959 202.764949 252.82683 202.951705 253.296891 202.951705 
z
" clip-path="url(#pcdda317217)" style="stroke: #000000; stroke-width: 0.886227"/>
    <path d="M 257.105734 36.786983 
C 257.575794 36.786983 258.026665 36.600226 258.359048 36.267844 
C 258.691431 35.935461 258.878188 35.48459 258.878188 35.01453 
C 258.878188 34.544469 258.691431 34.093598 258.359048 33.761215 
C 258.026665 33.428833 257.575794 33.242076 257.105734 33.242076 
C 256.635674 33.242076 256.184803 33.428833 255.85242 33.761215 
C 255.520037 34.093598 255.33328 34.544469 255.33328 35.01453 
C 255.33328 35.48459 255.520037 35.935461 255.85242 36.267844 
C 256.184803 36.600226 256.635674 36.786983 257.105734 36.786983 
z
" clip-path="url(#pcdda317217)" style="stroke: #000000; stroke-width: 0.886227"/>
    <path d="M 260.914578 22.337877 
C 261.384638 22.337877 261.835509 22.15112 262.167892 21.818737 
C 262.500275 21.486355 262.687031 21.035484 262.687031 20.565423 
C 262.687031 20.095363 262.500275 19.644492 262.167892 19.312109 
C 261.835509 18.979726 261.384638 18.792969 260.914578 18.792969 
C 260.444517 18.792969 259.993646 18.979726 259.661263 19.312109 
C 259.328881 19.644492 259.142124 20.095363 259.142124 20.565423 
C 259.142124 21.035484 259.328881 21.486355 259.661263 21.818737 
C 259.993646 22.15112 260.444517 22.337877 260.914578 22.337877 
z
" clip-path="url(#pcdda317217)" style="stroke: #000000; stroke-width: 0.886227"/>
    <path d="M 264.723421 44.011537 
C 265.193481 44.011537 265.644353 43.82478 265.976735 43.492397 
C 266.309118 43.160014 266.495875 42.709143 266.495875 42.239083 
C 266.495875 41.769022 266.309118 41.318151 265.976735 40.985769 
C 265.644353 40.653386 265.193481 40.466629 264.723421 40.466629 
C 264.253361 40.466629 263.80249 40.653386 263.470107 40.985769 
C 263.137724 41.318151 262.950967 41.769022 262.950967 42.239083 
C 262.950967 42.709143 263.137724 43.160014 263.470107 43.492397 
C 263.80249 43.82478 264.253361 44.011537 264.723421 44.011537 
z
" clip-path="url(#pcdda317217)" style="stroke: #000000; stroke-width: 0.886227"/>
    <path d="M 268.532265 87.358855 
C 269.002325 87.358855 269.453196 87.172098 269.785579 86.839716 
C 270.117962 86.507333 270.304719 86.056462 270.304719 85.586401 
C 270.304719 85.116341 270.117962 84.66547 269.785579 84.333087 
C 269.453196 84.000705 269.002325 83.813948 268.532265 83.813948 
C 268.062204 83.813948 267.611333 84.000705 267.278951 84.333087 
C 266.946568 84.66547 266.759811 85.116341 266.759811 85.586401 
C 266.759811 86.056462 266.946568 86.507333 267.278951 86.839716 
C 267.611333 87.172098 268.062204 87.358855 268.532265 87.358855 
z
" clip-path="url(#pcdda317217)" style="stroke: #000000; stroke-width: 0.886227"/>
    <path d="M 272.341108 94.583408 
C 272.811169 94.583408 273.26204 94.396652 273.594422 94.064269 
C 273.926805 93.731886 274.113562 93.281015 274.113562 92.810955 
C 274.113562 92.340894 273.926805 91.890023 273.594422 91.55764 
C 273.26204 91.225258 272.811169 91.038501 272.341108 91.038501 
C 271.871048 91.038501 271.420177 91.225258 271.087794 91.55764 
C 270.755411 91.890023 270.568654 92.340894 270.568654 92.810955 
C 270.568654 93.281015 270.755411 93.731886 271.087794 94.064269 
C 271.420177 94.396652 271.871048 94.583408 272.341108 94.583408 
z
" clip-path="url(#pcdda317217)" style="stroke: #000000; stroke-width: 0.886227"/>
    <path d="M 276.149952 109.032515 
C 276.620012 109.032515 277.070883 108.845758 277.403266 108.513375 
C 277.735649 108.180992 277.922406 107.730121 277.922406 107.260061 
C 277.922406 106.790001 277.735649 106.33913 277.403266 106.006747 
C 277.070883 105.674364 276.620012 105.487607 276.149952 105.487607 
C 275.679892 105.487607 275.22902 105.674364 274.896638 106.006747 
C 274.564255 106.33913 274.377498 106.790001 274.377498 107.260061 
C 274.377498 107.730121 274.564255 108.180992 274.896638 108.513375 
C 275.22902 108.845758 275.679892 109.032515 276.149952 109.032515 
z
" clip-path="url(#pcdda317217)" style="stroke: #000000; stroke-width: 0.886227"/>
    <path d="M 279.958795 166.82894 
C 280.428856 166.82894 280.879727 166.642183 281.21211 166.3098 
C 281.544492 165.977417 281.731249 165.526546 281.731249 165.056486 
C 281.731249 164.586426 281.544492 164.135555 281.21211 163.803172 
C 280.879727 163.470789 280.428856 163.284032 279.958795 163.284032 
C 279.488735 163.284032 279.037864 163.470789 278.705481 163.803172 
C 278.373098 164.135555 278.186342 164.586426 278.186342 165.056486 
C 278.186342 165.526546 278.373098 165.977417 278.705481 166.3098 
C 279.037864 166.642183 279.488735 166.82894 279.958795 166.82894 
z
" clip-path="url(#pcdda317217)" style="stroke: #000000; stroke-width: 0.886227"/>
    <path d="M 283.767639 195.727152 
C 284.237699 195.727152 284.68857 195.540395 285.020953 195.208013 
C 285.353336 194.87563 285.540093 194.424759 285.540093 193.954698 
C 285.540093 193.484638 285.353336 193.033767 285.020953 192.701384 
C 284.68857 192.369002 284.237699 192.182245 283.767639 192.182245 
C 283.297579 192.182245 282.846708 192.369002 282.514325 192.701384 
C 282.181942 193.033767 281.995185 193.484638 281.995185 193.954698 
C 281.995185 194.424759 282.181942 194.87563 282.514325 195.208013 
C 282.846708 195.540395 283.297579 195.727152 283.767639 195.727152 
z
" clip-path="url(#pcdda317217)" style="stroke: #000000; stroke-width: 0.886227"/>
    <path d="M 287.576482 195.727152 
C 288.046543 195.727152 288.497414 195.540395 288.829797 195.208013 
C 289.162179 194.87563 289.348936 194.424759 289.348936 193.954698 
C 289.348936 193.484638 289.162179 193.033767 288.829797 192.701384 
C 288.497414 192.369002 288.046543 192.182245 287.576482 192.182245 
C 287.106422 192.182245 286.655551 192.369002 286.323168 192.701384 
C 285.990786 193.033767 285.804029 193.484638 285.804029 193.954698 
C 285.804029 194.424759 285.990786 194.87563 286.323168 195.208013 
C 286.655551 195.540395 287.106422 195.727152 287.576482 195.727152 
z
" clip-path="url(#pcdda317217)" style="stroke: #000000; stroke-width: 0.886227"/>
    <path d="M 291.385326 202.951705 
C 291.855386 202.951705 292.306257 202.764949 292.63864 202.432566 
C 292.971023 202.100183 293.15778 201.649312 293.15778 201.179252 
C 293.15778 200.709191 292.971023 200.25832 292.63864 199.925937 
C 292.306257 199.593555 291.855386 199.406798 291.385326 199.406798 
C 290.915266 199.406798 290.464395 199.593555 290.132012 199.925937 
C 289.799629 200.25832 289.612872 200.709191 289.612872 201.179252 
C 289.612872 201.649312 289.799629 202.100183 290.132012 202.432566 
C 290.464395 202.764949 290.915266 202.951705 291.385326 202.951705 
z
" clip-path="url(#pcdda317217)" style="stroke: #000000; stroke-width: 0.886227"/>
    <path d="M 295.19417 36.786983 
C 295.66423 36.786983 296.115101 36.600226 296.447484 36.267844 
C 296.779866 35.935461 296.966623 35.48459 296.966623 35.01453 
C 296.966623 34.544469 296.779866 34.093598 296.447484 33.761215 
C 296.115101 33.428833 295.66423 33.242076 295.19417 33.242076 
C 294.724109 33.242076 294.273238 33.428833 293.940855 33.761215 
C 293.608473 34.093598 293.421716 34.544469 293.421716 35.01453 
C 293.421716 35.48459 293.608473 35.935461 293.940855 36.267844 
C 294.273238 36.600226 294.724109 36.786983 295.19417 36.786983 
z
" clip-path="url(#pcdda317217)" style="stroke: #000000; stroke-width: 0.886227"/>
    <path d="M 299.003013 22.337877 
C 299.473073 22.337877 299.923944 22.15112 300.256327 21.818737 
C 300.58871 21.486355 300.775467 21.035484 300.775467 20.565423 
C 300.775467 20.095363 300.58871 19.644492 300.256327 19.312109 
C 299.923944 18.979726 299.473073 18.792969 299.003013 18.792969 
C 298.532953 18.792969 298.082082 18.979726 297.749699 19.312109 
C 297.417316 19.644492 297.230559 20.095363 297.230559 20.565423 
C 297.230559 21.035484 297.417316 21.486355 297.749699 21.818737 
C 298.082082 22.15112 298.532953 22.337877 299.003013 22.337877 
z
" clip-path="url(#pcdda317217)" style="stroke: #000000; stroke-width: 0.886227"/>
    <path d="M 302.811857 44.011537 
C 303.281917 44.011537 303.732788 43.82478 304.065171 43.492397 
C 304.397554 43.160014 304.584311 42.709143 304.584311 42.239083 
C 304.584311 41.769022 304.397554 41.318151 304.065171 40.985769 
C 303.732788 40.653386 303.281917 40.466629 302.811857 40.466629 
C 302.341796 40.466629 301.890925 40.653386 301.558543 40.985769 
C 301.22616 41.318151 301.039403 41.769022 301.039403 42.239083 
C 301.039403 42.709143 301.22616 43.160014 301.558543 43.492397 
C 301.890925 43.82478 302.341796 44.011537 302.811857 44.011537 
z
" clip-path="url(#pcdda317217)" style="stroke: #000000; stroke-width: 0.886227"/>
    <path d="M 306.6207 87.358855 
C 307.09076 87.358855 307.541632 87.172098 307.874014 86.839716 
C 308.206397 86.507333 308.393154 86.056462 308.393154 85.586401 
C 308.393154 85.116341 308.206397 84.66547 307.874014 84.333087 
C 307.541632 84.000705 307.09076 83.813948 306.6207 83.813948 
C 306.15064 83.813948 305.699769 84.000705 305.367386 84.333087 
C 305.035003 84.66547 304.848246 85.116341 304.848246 85.586401 
C 304.848246 86.056462 305.035003 86.507333 305.367386 86.839716 
C 305.699769 87.172098 306.15064 87.358855 306.6207 87.358855 
z
" clip-path="url(#pcdda317217)" style="stroke: #000000; stroke-width: 0.886227"/>
    <path d="M 310.429544 94.583408 
C 310.899604 94.583408 311.350475 94.396652 311.682858 94.064269 
C 312.015241 93.731886 312.201998 93.281015 312.201998 92.810955 
C 312.201998 92.340894 312.015241 91.890023 311.682858 91.55764 
C 311.350475 91.225258 310.899604 91.038501 310.429544 91.038501 
C 309.959484 91.038501 309.508612 91.225258 309.17623 91.55764 
C 308.843847 91.890023 308.65709 92.340894 308.65709 92.810955 
C 308.65709 93.281015 308.843847 93.731886 309.17623 94.064269 
C 309.508612 94.396652 309.959484 94.583408 310.429544 94.583408 
z
" clip-path="url(#pcdda317217)" style="stroke: #000000; stroke-width: 0.886227"/>
    <path d="M 314.238387 109.032515 
C 314.708448 109.032515 315.159319 108.845758 315.491701 108.513375 
C 315.824084 108.180992 316.010841 107.730121 316.010841 107.260061 
C 316.010841 106.790001 315.824084 106.33913 315.491701 106.006747 
C 315.159319 105.674364 314.708448 105.487607 314.238387 105.487607 
C 313.768327 105.487607 313.317456 105.674364 312.985073 106.006747 
C 312.65269 106.33913 312.465933 106.790001 312.465933 107.260061 
C 312.465933 107.730121 312.65269 108.180992 312.985073 108.513375 
C 313.317456 108.845758 313.768327 109.032515 314.238387 109.032515 
z
" clip-path="url(#pcdda317217)" style="stroke: #000000; stroke-width: 0.886227"/>
    <path d="M 318.047231 166.82894 
C 318.517291 166.82894 318.968162 166.642183 319.300545 166.3098 
C 319.632928 165.977417 319.819685 165.526546 319.819685 165.056486 
C 319.819685 164.586426 319.632928 164.135555 319.300545 163.803172 
C 318.968162 163.470789 318.517291 163.284032 318.047231 163.284032 
C 317.577171 163.284032 317.1263 163.470789 316.793917 163.803172 
C 316.461534 164.135555 316.274777 164.586426 316.274777 165.056486 
C 316.274777 165.526546 316.461534 165.977417 316.793917 166.3098 
C 317.1263 166.642183 317.577171 166.82894 318.047231 166.82894 
z
" clip-path="url(#pcdda317217)" style="stroke: #000000; stroke-width: 0.886227"/>
    <path d="M 321.856074 195.727152 
C 322.326135 195.727152 322.777006 195.540395 323.109389 195.208013 
C 323.441771 194.87563 323.628528 194.424759 323.628528 193.954698 
C 323.628528 193.484638 323.441771 193.033767 323.109389 192.701384 
C 322.777006 192.369002 322.326135 192.182245 321.856074 192.182245 
C 321.386014 192.182245 320.935143 192.369002 320.60276 192.701384 
C 320.270377 193.033767 320.083621 193.484638 320.083621 193.954698 
C 320.083621 194.424759 320.270377 194.87563 320.60276 195.208013 
C 320.935143 195.540395 321.386014 195.727152 321.856074 195.727152 
z
" clip-path="url(#pcdda317217)" style="stroke: #000000; stroke-width: 0.886227"/>
    <path d="M 325.664918 195.727152 
C 326.134978 195.727152 326.585849 195.540395 326.918232 195.208013 
C 327.250615 194.87563 327.437372 194.424759 327.437372 193.954698 
C 327.437372 193.484638 327.250615 193.033767 326.918232 192.701384 
C 326.585849 192.369002 326.134978 192.182245 325.664918 192.182245 
C 325.194858 192.182245 324.743987 192.369002 324.411604 192.701384 
C 324.079221 193.033767 323.892464 193.484638 323.892464 193.954698 
C 323.892464 194.424759 324.079221 194.87563 324.411604 195.208013 
C 324.743987 195.540395 325.194858 195.727152 325.664918 195.727152 
z
" clip-path="url(#pcdda317217)" style="stroke: #000000; stroke-width: 0.886227"/>
    <path d="M 329.473762 202.951705 
C 329.943822 202.951705 330.394693 202.764949 330.727076 202.432566 
C 331.059458 202.100183 331.246215 201.649312 331.246215 201.179252 
C 331.246215 200.709191 331.059458 200.25832 330.727076 199.925937 
C 330.394693 199.593555 329.943822 199.406798 329.473762 199.406798 
C 329.003701 199.406798 328.55283 199.593555 328.220447 199.925937 
C 327.888065 200.25832 327.701308 200.709191 327.701308 201.179252 
C 327.701308 201.649312 327.888065 202.100183 328.220447 202.432566 
C 328.55283 202.764949 329.003701 202.951705 329.473762 202.951705 
z
" clip-path="url(#pcdda317217)" style="stroke: #000000; stroke-width: 0.886227"/>
    <path d="M 333.282605 36.786983 
C 333.752665 36.786983 334.203536 36.600226 334.535919 36.267844 
C 334.868302 35.935461 335.055059 35.48459 335.055059 35.01453 
C 335.055059 34.544469 334.868302 34.093598 334.535919 33.761215 
C 334.203536 33.428833 333.752665 33.242076 333.282605 33.242076 
C 332.812545 33.242076 332.361674 33.428833 332.029291 33.761215 
C 331.696908 34.093598 331.510151 34.544469 331.510151 35.01453 
C 331.510151 35.48459 331.696908 35.935461 332.029291 36.267844 
C 332.361674 36.600226 332.812545 36.786983 333.282605 36.786983 
z
" clip-path="url(#pcdda317217)" style="stroke: #000000; stroke-width: 0.886227"/>
    <path d="M 337.091449 22.337877 
C 337.561509 22.337877 338.01238 22.15112 338.344763 21.818737 
C 338.677146 21.486355 338.863902 21.035484 338.863902 20.565423 
C 338.863902 20.095363 338.677146 19.644492 338.344763 19.312109 
C 338.01238 18.979726 337.561509 18.792969 337.091449 18.792969 
C 336.621388 18.792969 336.170517 18.979726 335.838134 19.312109 
C 335.505752 19.644492 335.318995 20.095363 335.318995 20.565423 
C 335.318995 21.035484 335.505752 21.486355 335.838134 21.818737 
C 336.170517 22.15112 336.621388 22.337877 337.091449 22.337877 
z
" clip-path="url(#pcdda317217)" style="stroke: #000000; stroke-width: 0.886227"/>
    <path d="M 340.900292 44.011537 
C 341.370352 44.011537 341.821223 43.82478 342.153606 43.492397 
C 342.485989 43.160014 342.672746 42.709143 342.672746 42.239083 
C 342.672746 41.769022 342.485989 41.318151 342.153606 40.985769 
C 341.821223 40.653386 341.370352 40.466629 340.900292 40.466629 
C 340.430232 40.466629 339.979361 40.653386 339.646978 40.985769 
C 339.314595 41.318151 339.127838 41.769022 339.127838 42.239083 
C 339.127838 42.709143 339.314595 43.160014 339.646978 43.492397 
C 339.979361 43.82478 340.430232 44.011537 340.900292 44.011537 
z
" clip-path="url(#pcdda317217)" style="stroke: #000000; stroke-width: 0.886227"/>
    <path d="M 344.709136 87.358855 
C 345.179196 87.358855 345.630067 87.172098 345.96245 86.839716 
C 346.294833 86.507333 346.48159 86.056462 346.48159 85.586401 
C 346.48159 85.116341 346.294833 84.66547 345.96245 84.333087 
C 345.630067 84.000705 345.179196 83.813948 344.709136 83.813948 
C 344.239075 83.813948 343.788204 84.000705 343.455822 84.333087 
C 343.123439 84.66547 342.936682 85.116341 342.936682 85.586401 
C 342.936682 86.056462 343.123439 86.507333 343.455822 86.839716 
C 343.788204 87.172098 344.239075 87.358855 344.709136 87.358855 
z
" clip-path="url(#pcdda317217)" style="stroke: #000000; stroke-width: 0.886227"/>
    <path d="M 348.517979 94.583408 
C 348.98804 94.583408 349.438911 94.396652 349.771293 94.064269 
C 350.103676 93.731886 350.290433 93.281015 350.290433 92.810955 
C 350.290433 92.340894 350.103676 91.890023 349.771293 91.55764 
C 349.438911 91.225258 348.98804 91.038501 348.517979 91.038501 
C 348.047919 91.038501 347.597048 91.225258 347.264665 91.55764 
C 346.932282 91.890023 346.745525 92.340894 346.745525 92.810955 
C 346.745525 93.281015 346.932282 93.731886 347.264665 94.064269 
C 347.597048 94.396652 348.047919 94.583408 348.517979 94.583408 
z
" clip-path="url(#pcdda317217)" style="stroke: #000000; stroke-width: 0.886227"/>
    <path d="M 352.326823 109.032515 
C 352.796883 109.032515 353.247754 108.845758 353.580137 108.513375 
C 353.91252 108.180992 354.099277 107.730121 354.099277 107.260061 
C 354.099277 106.790001 353.91252 106.33913 353.580137 106.006747 
C 353.247754 105.674364 352.796883 105.487607 352.326823 105.487607 
C 351.856763 105.487607 351.405891 105.674364 351.073509 106.006747 
C 350.741126 106.33913 350.554369 106.790001 350.554369 107.260061 
C 350.554369 107.730121 350.741126 108.180992 351.073509 108.513375 
C 351.405891 108.845758 351.856763 109.032515 352.326823 109.032515 
z
" clip-path="url(#pcdda317217)" style="stroke: #000000; stroke-width: 0.886227"/>
    <path d="M 356.135666 166.82894 
C 356.605727 166.82894 357.056598 166.642183 357.38898 166.3098 
C 357.721363 165.977417 357.90812 165.526546 357.90812 165.056486 
C 357.90812 164.586426 357.721363 164.135555 357.38898 163.803172 
C 357.056598 163.470789 356.605727 163.284032 356.135666 163.284032 
C 355.665606 163.284032 355.214735 163.470789 354.882352 163.803172 
C 354.549969 164.135555 354.363213 164.586426 354.363213 165.056486 
C 354.363213 165.526546 354.549969 165.977417 354.882352 166.3098 
C 355.214735 166.642183 355.665606 166.82894 356.135666 166.82894 
z
" clip-path="url(#pcdda317217)" style="stroke: #000000; stroke-width: 0.886227"/>
    <path d="M 359.94451 195.727152 
C 360.41457 195.727152 360.865441 195.540395 361.197824 195.208013 
C 361.530207 194.87563 361.716964 194.424759 361.716964 193.954698 
C 361.716964 193.484638 361.530207 193.033767 361.197824 192.701384 
C 360.865441 192.369002 360.41457 192.182245 359.94451 192.182245 
C 359.47445 192.182245 359.023579 192.369002 358.691196 192.701384 
C 358.358813 193.033767 358.172056 193.484638 358.172056 193.954698 
C 358.172056 194.424759 358.358813 194.87563 358.691196 195.208013 
C 359.023579 195.540395 359.47445 195.727152 359.94451 195.727152 
z
" clip-path="url(#pcdda317217)" style="stroke: #000000; stroke-width: 0.886227"/>
    <path d="M 363.753353 195.727152 
C 364.223414 195.727152 364.674285 195.540395 365.006668 195.208013 
C 365.33905 194.87563 365.525807 194.424759 365.525807 193.954698 
C 365.525807 193.484638 365.33905 193.033767 365.006668 192.701384 
C 364.674285 192.369002 364.223414 192.182245 363.753353 192.182245 
C 363.283293 192.182245 362.832422 192.369002 362.500039 192.701384 
C 362.167657 193.033767 361.9809 193.484638 361.9809 193.954698 
C 361.9809 194.424759 362.167657 194.87563 362.500039 195.208013 
C 362.832422 195.540395 363.283293 195.727152 363.753353 195.727152 
z
" clip-path="url(#pcdda317217)" style="stroke: #000000; stroke-width: 0.886227"/>
    <path d="M 367.562197 202.951705 
C 368.032257 202.951705 368.483128 202.764949 368.815511 202.432566 
C 369.147894 202.100183 369.334651 201.649312 369.334651 201.179252 
C 369.334651 200.709191 369.147894 200.25832 368.815511 199.925937 
C 368.483128 199.593555 368.032257 199.406798 367.562197 199.406798 
C 367.092137 199.406798 366.641266 199.593555 366.308883 199.925937 
C 365.9765 200.25832 365.789743 200.709191 365.789743 201.179252 
C 365.789743 201.649312 365.9765 202.100183 366.308883 202.432566 
C 366.641266 202.764949 367.092137 202.951705 367.562197 202.951705 
z
" clip-path="url(#pcdda317217)" style="stroke: #000000; stroke-width: 0.886227"/>
    <path d="M 371.371041 36.786983 
C 371.841101 36.786983 372.291972 36.600226 372.624355 36.267844 
C 372.956737 35.935461 373.143494 35.48459 373.143494 35.01453 
C 373.143494 34.544469 372.956737 34.093598 372.624355 33.761215 
C 372.291972 33.428833 371.841101 33.242076 371.371041 33.242076 
C 370.90098 33.242076 370.450109 33.428833 370.117726 33.761215 
C 369.785344 34.093598 369.598587 34.544469 369.598587 35.01453 
C 369.598587 35.48459 369.785344 35.935461 370.117726 36.267844 
C 370.450109 36.600226 370.90098 36.786983 371.371041 36.786983 
z
" clip-path="url(#pcdda317217)" style="stroke: #000000; stroke-width: 0.886227"/>
    <path d="M 375.179884 22.337877 
C 375.649944 22.337877 376.100815 22.15112 376.433198 21.818737 
C 376.765581 21.486355 376.952338 21.035484 376.952338 20.565423 
C 376.952338 20.095363 376.765581 19.644492 376.433198 19.312109 
C 376.100815 18.979726 375.649944 18.792969 375.179884 18.792969 
C 374.709824 18.792969 374.258953 18.979726 373.92657 19.312109 
C 373.594187 19.644492 373.40743 20.095363 373.40743 20.565423 
C 373.40743 21.035484 373.594187 21.486355 373.92657 21.818737 
C 374.258953 22.15112 374.709824 22.337877 375.179884 22.337877 
z
" clip-path="url(#pcdda317217)" style="stroke: #000000; stroke-width: 0.886227"/>
    <path d="M 378.988728 44.011537 
C 379.458788 44.011537 379.909659 43.82478 380.242042 43.492397 
C 380.574425 43.160014 380.761181 42.709143 380.761181 42.239083 
C 380.761181 41.769022 380.574425 41.318151 380.242042 40.985769 
C 379.909659 40.653386 379.458788 40.466629 378.988728 40.466629 
C 378.518667 40.466629 378.067796 40.653386 377.735414 40.985769 
C 377.403031 41.318151 377.216274 41.769022 377.216274 42.239083 
C 377.216274 42.709143 377.403031 43.160014 377.735414 43.492397 
C 378.067796 43.82478 378.518667 44.011537 378.988728 44.011537 
z
" clip-path="url(#pcdda317217)" style="stroke: #000000; stroke-width: 0.886227"/>
    <path d="M 382.797571 87.358855 
C 383.267631 87.358855 383.718503 87.172098 384.050885 86.839716 
C 384.383268 86.507333 384.570025 86.056462 384.570025 85.586401 
C 384.570025 85.116341 384.383268 84.66547 384.050885 84.333087 
C 383.718503 84.000705 383.267631 83.813948 382.797571 83.813948 
C 382.327511 83.813948 381.87664 84.000705 381.544257 84.333087 
C 381.211874 84.66547 381.025117 85.116341 381.025117 85.586401 
C 381.025117 86.056462 381.211874 86.507333 381.544257 86.839716 
C 381.87664 87.172098 382.327511 87.358855 382.797571 87.358855 
z
" clip-path="url(#pcdda317217)" style="stroke: #000000; stroke-width: 0.886227"/>
    <path d="M 386.606415 94.583408 
C 387.076475 94.583408 387.527346 94.396652 387.859729 94.064269 
C 388.192112 93.731886 388.378869 93.281015 388.378869 92.810955 
C 388.378869 92.340894 388.192112 91.890023 387.859729 91.55764 
C 387.527346 91.225258 387.076475 91.038501 386.606415 91.038501 
C 386.136354 91.038501 385.685483 91.225258 385.353101 91.55764 
C 385.020718 91.890023 384.833961 92.340894 384.833961 92.810955 
C 384.833961 93.281015 385.020718 93.731886 385.353101 94.064269 
C 385.685483 94.396652 386.136354 94.583408 386.606415 94.583408 
z
" clip-path="url(#pcdda317217)" style="stroke: #000000; stroke-width: 0.886227"/>
    <path d="M 390.415258 109.032515 
C 390.885319 109.032515 391.33619 108.845758 391.668572 108.513375 
C 392.000955 108.180992 392.187712 107.730121 392.187712 107.260061 
C 392.187712 106.790001 392.000955 106.33913 391.668572 106.006747 
C 391.33619 105.674364 390.885319 105.487607 390.415258 105.487607 
C 389.945198 105.487607 389.494327 105.674364 389.161944 106.006747 
C 388.829561 106.33913 388.642804 106.790001 388.642804 107.260061 
C 388.642804 107.730121 388.829561 108.180992 389.161944 108.513375 
C 389.494327 108.845758 389.945198 109.032515 390.415258 109.032515 
z
" clip-path="url(#pcdda317217)" style="stroke: #000000; stroke-width: 0.886227"/>
    <path d="M 394.224102 166.82894 
C 394.694162 166.82894 395.145033 166.642183 395.477416 166.3098 
C 395.809799 165.977417 395.996556 165.526546 395.996556 165.056486 
C 395.996556 164.586426 395.809799 164.135555 395.477416 163.803172 
C 395.145033 163.470789 394.694162 163.284032 394.224102 163.284032 
C 393.754042 163.284032 393.30317 163.470789 392.970788 163.803172 
C 392.638405 164.135555 392.451648 164.586426 392.451648 165.056486 
C 392.451648 165.526546 392.638405 165.977417 392.970788 166.3098 
C 393.30317 166.642183 393.754042 166.82894 394.224102 166.82894 
z
" clip-path="url(#pcdda317217)" style="stroke: #000000; stroke-width: 0.886227"/>
    <path d="M 398.032945 195.727152 
C 398.503006 195.727152 398.953877 195.540395 399.28626 195.208013 
C 399.618642 194.87563 399.805399 194.424759 399.805399 193.954698 
C 399.805399 193.484638 399.618642 193.033767 399.28626 192.701384 
C 398.953877 192.369002 398.503006 192.182245 398.032945 192.182245 
C 397.562885 192.182245 397.112014 192.369002 396.779631 192.701384 
C 396.447248 193.033767 396.260492 193.484638 396.260492 193.954698 
C 396.260492 194.424759 396.447248 194.87563 396.779631 195.208013 
C 397.112014 195.540395 397.562885 195.727152 398.032945 195.727152 
z
" clip-path="url(#pcdda317217)" style="stroke: #000000; stroke-width: 0.886227"/>
    <path d="M 401.841789 195.727152 
C 402.311849 195.727152 402.76272 195.540395 403.095103 195.208013 
C 403.427486 194.87563 403.614243 194.424759 403.614243 193.954698 
C 403.614243 193.484638 403.427486 193.033767 403.095103 192.701384 
C 402.76272 192.369002 402.311849 192.182245 401.841789 192.182245 
C 401.371729 192.182245 400.920858 192.369002 400.588475 192.701384 
C 400.256092 193.033767 400.069335 193.484638 400.069335 193.954698 
C 400.069335 194.424759 400.256092 194.87563 400.588475 195.208013 
C 400.920858 195.540395 401.371729 195.727152 401.841789 195.727152 
z
" clip-path="url(#pcdda317217)" style="stroke: #000000; stroke-width: 0.886227"/>
    <path d="M 405.650632 202.951705 
C 406.120693 202.951705 406.571564 202.764949 406.903947 202.432566 
C 407.236329 202.100183 407.423086 201.649312 407.423086 201.179252 
C 407.423086 200.709191 407.236329 200.25832 406.903947 199.925937 
C 406.571564 199.593555 406.120693 199.406798 405.650632 199.406798 
C 405.180572 199.406798 404.729701 199.593555 404.397318 199.925937 
C 404.064936 200.25832 403.878179 200.709191 403.878179 201.179252 
C 403.878179 201.649312 404.064936 202.100183 404.397318 202.432566 
C 404.729701 202.764949 405.180572 202.951705 405.650632 202.951705 
z
" clip-path="url(#pcdda317217)" style="stroke: #000000; stroke-width: 0.886227"/>
    <path d="M 409.459476 36.786983 
C 409.929536 36.786983 410.380407 36.600226 410.71279 36.267844 
C 411.045173 35.935461 411.23193 35.48459 411.23193 35.01453 
C 411.23193 34.544469 411.045173 34.093598 410.71279 33.761215 
C 410.380407 33.428833 409.929536 33.242076 409.459476 33.242076 
C 408.989416 33.242076 408.538545 33.428833 408.206162 33.761215 
C 407.873779 34.093598 407.687022 34.544469 407.687022 35.01453 
C 407.687022 35.48459 407.873779 35.935461 408.206162 36.267844 
C 408.538545 36.600226 408.989416 36.786983 409.459476 36.786983 
z
" clip-path="url(#pcdda317217)" style="stroke: #000000; stroke-width: 0.886227"/>
    <path d="M 413.26832 22.337877 
C 413.73838 22.337877 414.189251 22.15112 414.521634 21.818737 
C 414.854017 21.486355 415.040773 21.035484 415.040773 20.565423 
C 415.040773 20.095363 414.854017 19.644492 414.521634 19.312109 
C 414.189251 18.979726 413.73838 18.792969 413.26832 18.792969 
C 412.798259 18.792969 412.347388 18.979726 412.015005 19.312109 
C 411.682623 19.644492 411.495866 20.095363 411.495866 20.565423 
C 411.495866 21.035484 411.682623 21.486355 412.015005 21.818737 
C 412.347388 22.15112 412.798259 22.337877 413.26832 22.337877 
z
" clip-path="url(#pcdda317217)" style="stroke: #000000; stroke-width: 0.886227"/>
    <path d="M 417.077163 44.011537 
C 417.547223 44.011537 417.998094 43.82478 418.330477 43.492397 
C 418.66286 43.160014 418.849617 42.709143 418.849617 42.239083 
C 418.849617 41.769022 418.66286 41.318151 418.330477 40.985769 
C 417.998094 40.653386 417.547223 40.466629 417.077163 40.466629 
C 416.607103 40.466629 416.156232 40.653386 415.823849 40.985769 
C 415.491466 41.318151 415.304709 41.769022 415.304709 42.239083 
C 415.304709 42.709143 415.491466 43.160014 415.823849 43.492397 
C 416.156232 43.82478 416.607103 44.011537 417.077163 44.011537 
z
" clip-path="url(#pcdda317217)" style="stroke: #000000; stroke-width: 0.886227"/>
    <path d="M 420.886007 87.358855 
C 421.356067 87.358855 421.806938 87.172098 422.139321 86.839716 
C 422.471704 86.507333 422.658461 86.056462 422.658461 85.586401 
C 422.658461 85.116341 422.471704 84.66547 422.139321 84.333087 
C 421.806938 84.000705 421.356067 83.813948 420.886007 83.813948 
C 420.415946 83.813948 419.965075 84.000705 419.632693 84.333087 
C 419.30031 84.66547 419.113553 85.116341 419.113553 85.586401 
C 419.113553 86.056462 419.30031 86.507333 419.632693 86.839716 
C 419.965075 87.172098 420.415946 87.358855 420.886007 87.358855 
z
" clip-path="url(#pcdda317217)" style="stroke: #000000; stroke-width: 0.886227"/>
    <path d="M 424.69485 94.583408 
C 425.16491 94.583408 425.615782 94.396652 425.948164 94.064269 
C 426.280547 93.731886 426.467304 93.281015 426.467304 92.810955 
C 426.467304 92.340894 426.280547 91.890023 425.948164 91.55764 
C 425.615782 91.225258 425.16491 91.038501 424.69485 91.038501 
C 424.22479 91.038501 423.773919 91.225258 423.441536 91.55764 
C 423.109153 91.890023 422.922396 92.340894 422.922396 92.810955 
C 422.922396 93.281015 423.109153 93.731886 423.441536 94.064269 
C 423.773919 94.396652 424.22479 94.583408 424.69485 94.583408 
z
" clip-path="url(#pcdda317217)" style="stroke: #000000; stroke-width: 0.886227"/>
    <path d="M 428.503694 109.032515 
C 428.973754 109.032515 429.424625 108.845758 429.757008 108.513375 
C 430.089391 108.180992 430.276148 107.730121 430.276148 107.260061 
C 430.276148 106.790001 430.089391 106.33913 429.757008 106.006747 
C 429.424625 105.674364 428.973754 105.487607 428.503694 105.487607 
C 428.033634 105.487607 427.582762 105.674364 427.25038 106.006747 
C 426.917997 106.33913 426.73124 106.790001 426.73124 107.260061 
C 426.73124 107.730121 426.917997 108.180992 427.25038 108.513375 
C 427.582762 108.845758 428.033634 109.032515 428.503694 109.032515 
z
" clip-path="url(#pcdda317217)" style="stroke: #000000; stroke-width: 0.886227"/>
    <path d="M 432.312537 166.82894 
C 432.782598 166.82894 433.233469 166.642183 433.565851 166.3098 
C 433.898234 165.977417 434.084991 165.526546 434.084991 165.056486 
C 434.084991 164.586426 433.898234 164.135555 433.565851 163.803172 
C 433.233469 163.470789 432.782598 163.284032 432.312537 163.284032 
C 431.842477 163.284032 431.391606 163.470789 431.059223 163.803172 
C 430.72684 164.135555 430.540083 164.586426 430.540083 165.056486 
C 430.540083 165.526546 430.72684 165.977417 431.059223 166.3098 
C 431.391606 166.642183 431.842477 166.82894 432.312537 166.82894 
z
" clip-path="url(#pcdda317217)" style="stroke: #000000; stroke-width: 0.886227"/>
    <path d="M 436.121381 195.727152 
C 436.591441 195.727152 437.042312 195.540395 437.374695 195.208013 
C 437.707078 194.87563 437.893835 194.424759 437.893835 193.954698 
C 437.893835 193.484638 437.707078 193.033767 437.374695 192.701384 
C 437.042312 192.369002 436.591441 192.182245 436.121381 192.182245 
C 435.651321 192.182245 435.20045 192.369002 434.868067 192.701384 
C 434.535684 193.033767 434.348927 193.484638 434.348927 193.954698 
C 434.348927 194.424759 434.535684 194.87563 434.868067 195.208013 
C 435.20045 195.540395 435.651321 195.727152 436.121381 195.727152 
z
" clip-path="url(#pcdda317217)" style="stroke: #000000; stroke-width: 0.886227"/>
    <path d="M 439.930224 195.727152 
C 440.400285 195.727152 440.851156 195.540395 441.183539 195.208013 
C 441.515921 194.87563 441.702678 194.424759 441.702678 193.954698 
C 441.702678 193.484638 441.515921 193.033767 441.183539 192.701384 
C 440.851156 192.369002 440.400285 192.182245 439.930224 192.182245 
C 439.460164 192.182245 439.009293 192.369002 438.67691 192.701384 
C 438.344528 193.033767 438.157771 193.484638 438.157771 193.954698 
C 438.157771 194.424759 438.344528 194.87563 438.67691 195.208013 
C 439.009293 195.540395 439.460164 195.727152 439.930224 195.727152 
z
" clip-path="url(#pcdda317217)" style="stroke: #000000; stroke-width: 0.886227"/>
   </g>
   <g id="line2d_27">
    <path d="M 62.854713 287.873889 
L 66.663557 179.505592 
L 70.4724 107.260061 
L 74.281244 92.810955 
L 78.090087 56.688189 
L 81.898931 35.01453 
L 85.707774 20.565423 
L 89.516618 100.035508 
L 93.325461 71.137295 
L 97.134305 143.382827 
L 100.943149 107.260061 
L 104.751992 121.709167 
L 108.560836 143.382827 
L 112.369679 165.056486 
L 116.178523 222.852911 
L 119.987366 186.730145 
L 123.79621 107.260061 
L 127.605053 165.056486 
L 131.413897 150.60738 
L 135.222741 114.484614 
L 139.031584 100.035508 
L 142.840428 172.281039 
L 146.649271 20.565423 
L 150.458115 42.239083 
L 154.266958 85.586401 
L 158.075802 92.810955 
L 161.884645 107.260061 
L 165.693489 165.056486 
L 169.502332 193.954698 
L 173.311176 193.954698 
L 177.12002 201.179252 
L 180.928863 35.01453 
L 184.737707 20.565423 
L 188.54655 42.239083 
L 192.355394 85.586401 
L 196.164237 92.810955 
L 199.973081 107.260061 
L 203.781924 165.056486 
L 207.590768 193.954698 
L 211.399611 193.954698 
L 215.208455 201.179252 
L 219.017299 35.01453 
L 222.826142 20.565423 
L 226.634986 42.239083 
L 230.443829 85.586401 
L 234.252673 92.810955 
L 238.061516 107.260061 
L 241.87036 165.056486 
L 245.679203 193.954698 
L 249.488047 193.954698 
L 253.296891 201.179252 
L 257.105734 35.01453 
L 260.914578 20.565423 
L 264.723421 42.239083 
L 268.532265 85.586401 
L 272.341108 92.810955 
L 276.149952 107.260061 
L 279.958795 165.056486 
L 283.767639 193.954698 
L 287.576482 193.954698 
L 291.385326 201.179252 
L 295.19417 35.01453 
L 299.003013 20.565423 
L 302.811857 42.239083 
L 306.6207 85.586401 
L 310.429544 92.810955 
L 314.238387 107.260061 
L 318.047231 165.056486 
L 321.856074 193.954698 
L 325.664918 193.954698 
L 329.473762 201.179252 
L 333.282605 35.01453 
L 337.091449 20.565423 
L 340.900292 42.239083 
L 344.709136 85.586401 
L 348.517979 92.810955 
L 352.326823 107.260061 
L 356.135666 165.056486 
L 359.94451 193.954698 
L 363.753353 193.954698 
L 367.562197 201.179252 
L 371.371041 35.01453 
L 375.179884 20.565423 
L 378.988728 42.239083 
L 382.797571 85.586401 
L 386.606415 92.810955 
L 390.415258 107.260061 
L 394.224102 165.056486 
L 398.032945 193.954698 
L 401.841789 193.954698 
L 405.650632 201.179252 
L 409.459476 35.01453 
L 413.26832 20.565423 
L 417.077163 42.239083 
L 420.886007 85.586401 
L 424.69485 92.810955 
L 428.503694 107.260061 
L 432.312537 165.056486 
L 436.121381 193.954698 
L 439.930224 193.954698 
" clip-path="url(#pcdda317217)" style="fill: none; stroke: #000000; stroke-width: 0.886227"/>
   </g>
  </g>
  <g id="text_10">
   <!-- iteracao -->
   <g transform="translate(228.932703 327.472344) scale(0.11 -0.11)">
    <defs>
     <path id="DejaVuSans-69" d="M 603 3500 
L 1178 3500 
L 1178 0 
L 603 0 
L 603 3500 
z
M 603 4863 
L 1178 4863 
L 1178 4134 
L 603 4134 
L 603 4863 
z
" transform="scale(0.015625)"/>
     <path id="DejaVuSans-74" d="M 1172 4494 
L 1172 3500 
L 2356 3500 
L 2356 3053 
L 1172 3053 
L 1172 1153 
Q 1172 725 1289 603 
Q 1406 481 1766 481 
L 2356 481 
L 2356 0 
L 1766 0 
Q 1100 0 847 248 
Q 594 497 594 1153 
L 594 3053 
L 172 3053 
L 172 3500 
L 594 3500 
L 594 4494 
L 1172 4494 
z
" transform="scale(0.015625)"/>
     <path id="DejaVuSans-65" d="M 3597 1894 
L 3597 1613 
L 953 1613 
Q 991 1019 1311 708 
Q 1631 397 2203 397 
Q 2534 397 2845 478 
Q 3156 559 3463 722 
L 3463 178 
Q 3153 47 2828 -22 
Q 2503 -91 2169 -91 
Q 1331 -91 842 396 
Q 353 884 353 1716 
Q 353 2575 817 3079 
Q 1281 3584 2069 3584 
Q 2775 3584 3186 3129 
Q 3597 2675 3597 1894 
z
M 3022 2063 
Q 3016 2534 2758 2815 
Q 2500 3097 2075 3097 
Q 1594 3097 1305 2825 
Q 1016 2553 972 2059 
L 3022 2063 
z
" transform="scale(0.015625)"/>
     <path id="DejaVuSans-72" d="M 2631 2963 
Q 2534 3019 2420 3045 
Q 2306 3072 2169 3072 
Q 1681 3072 1420 2755 
Q 1159 2438 1159 1844 
L 1159 0 
L 581 0 
L 581 3500 
L 1159 3500 
L 1159 2956 
Q 1341 3275 1631 3429 
Q 1922 3584 2338 3584 
Q 2397 3584 2469 3576 
Q 2541 3569 2628 3553 
L 2631 2963 
z
" transform="scale(0.015625)"/>
     <path id="DejaVuSans-61" d="M 2194 1759 
Q 1497 1759 1228 1600 
Q 959 1441 959 1056 
Q 959 750 1161 570 
Q 1363 391 1709 391 
Q 2188 391 2477 730 
Q 2766 1069 2766 1631 
L 2766 1759 
L 2194 1759 
z
M 3341 1997 
L 3341 0 
L 2766 0 
L 2766 531 
Q 2569 213 2275 61 
Q 1981 -91 1556 -91 
Q 1019 -91 701 211 
Q 384 513 384 1019 
Q 384 1609 779 1909 
Q 1175 2209 1959 2209 
L 2766 2209 
L 2766 2266 
Q 2766 2663 2505 2880 
Q 2244 3097 1772 3097 
Q 1472 3097 1187 3025 
Q 903 2953 641 2809 
L 641 3341 
Q 956 3463 1253 3523 
Q 1550 3584 1831 3584 
Q 2591 3584 2966 3190 
Q 3341 2797 3341 1997 
z
" transform="scale(0.015625)"/>
     <path id="DejaVuSans-63" d="M 3122 3366 
L 3122 2828 
Q 2878 2963 2633 3030 
Q 2388 3097 2138 3097 
Q 1578 3097 1268 2742 
Q 959 2388 959 1747 
Q 959 1106 1268 751 
Q 1578 397 2138 397 
Q 2388 397 2633 464 
Q 2878 531 3122 666 
L 3122 134 
Q 2881 22 2623 -34 
Q 2366 -91 2075 -91 
Q 1284 -91 818 406 
Q 353 903 353 1747 
Q 353 2603 823 3093 
Q 1294 3584 2113 3584 
Q 2378 3584 2631 3529 
Q 2884 3475 3122 3366 
z
" transform="scale(0.015625)"/>
     <path id="DejaVuSans-6f" d="M 1959 3097 
Q 1497 3097 1228 2736 
Q 959 2375 959 1747 
Q 959 1119 1226 758 
Q 1494 397 1959 397 
Q 2419 397 2687 759 
Q 2956 1122 2956 1747 
Q 2956 2369 2687 2733 
Q 2419 3097 1959 3097 
z
M 1959 3584 
Q 2709 3584 3137 3096 
Q 3566 2609 3566 1747 
Q 3566 888 3137 398 
Q 2709 -91 1959 -91 
Q 1206 -91 779 398 
Q 353 888 353 1747 
Q 353 2609 779 3096 
Q 1206 3584 1959 3584 
z
" transform="scale(0.015625)"/>
    </defs>
    <use xlink:href="#DejaVuSans-69"/>
    <use xlink:href="#DejaVuSans-74" x="27.783203"/>
    <use xlink:href="#DejaVuSans-65" x="66.992188"/>
    <use xlink:href="#DejaVuSans-72" x="128.515625"/>
    <use xlink:href="#DejaVuSans-61" x="169.628906"/>
    <use xlink:href="#DejaVuSans-63" x="230.908203"/>
    <use xlink:href="#DejaVuSans-61" x="285.888672"/>
    <use xlink:href="#DejaVuSans-6f" x="347.167969"/>
   </g>
  </g>
  <g id="text_11">
   <!-- aptidao -->
   <g transform="translate(15.558281 174.993328) rotate(-90) scale(0.11 -0.11)">
    <defs>
     <path id="DejaVuSans-70" d="M 1159 525 
L 1159 -1331 
L 581 -1331 
L 581 3500 
L 1159 3500 
L 1159 2969 
Q 1341 3281 1617 3432 
Q 1894 3584 2278 3584 
Q 2916 3584 3314 3078 
Q 3713 2572 3713 1747 
Q 3713 922 3314 415 
Q 2916 -91 2278 -91 
Q 1894 -91 1617 61 
Q 1341 213 1159 525 
z
M 3116 1747 
Q 3116 2381 2855 2742 
Q 2594 3103 2138 3103 
Q 1681 3103 1420 2742 
Q 1159 2381 1159 1747 
Q 1159 1113 1420 752 
Q 1681 391 2138 391 
Q 2594 391 2855 752 
Q 3116 1113 3116 1747 
z
" transform="scale(0.015625)"/>
     <path id="DejaVuSans-64" d="M 2906 2969 
L 2906 4863 
L 3481 4863 
L 3481 0 
L 2906 0 
L 2906 525 
Q 2725 213 2448 61 
Q 2172 -91 1784 -91 
Q 1150 -91 751 415 
Q 353 922 353 1747 
Q 353 2572 751 3078 
Q 1150 3584 1784 3584 
Q 2172 3584 2448 3432 
Q 2725 3281 2906 2969 
z
M 947 1747 
Q 947 1113 1208 752 
Q 1469 391 1925 391 
Q 2381 391 2643 752 
Q 2906 1113 2906 1747 
Q 2906 2381 2643 2742 
Q 2381 3103 1925 3103 
Q 1469 3103 1208 2742 
Q 947 2381 947 1747 
z
" transform="scale(0.015625)"/>
    </defs>
    <use xlink:href="#DejaVuSans-61"/>
    <use xlink:href="#DejaVuSans-70" x="61.279297"/>
    <use xlink:href="#DejaVuSans-74" x="124.755859"/>
    <use xlink:href="#DejaVuSans-69" x="163.964844"/>
    <use xlink:href="#DejaVuSans-64" x="191.748047"/>
    <use xlink:href="#DejaVuSans-61" x="255.224609"/>
    <use xlink:href="#DejaVuSans-6f" x="316.503906"/>
   </g>
  </g>
 </g>
 <defs>
  <clipPath id="pcdda317217">
   <rect x="44.000938" y="7.2" width="414.783062" height="294.039312"/>
  </clipPath>
 </defs>
</svg>
