<?xml version="1.0" encoding="utf-8" standalone="no"?>
<!DOCTYPE svg PUBLIC "-//W3C//DTD SVG 1.1//EN"
  "http://www.w3.org/Graphics/SVG/1.1/DTD/svg11.dtd">
<svg xmlns:xlink="http://www.w3.org/1999/xlink" width="465.984pt" height="336.96pt" viewBox="0 0 465.984 336.96" xmlns="http://www.w3.org/2000/svg" version="1.1">
 <metadata>
  <rdf:RDF xmlns:dc="http://purl.org/dc/elements/1.1/" xmlns:cc="http://creativecommons.org/ns#" xmlns:rdf="http://www.w3.org/1999/02/22-rdf-syntax-ns#">
   <cc:Work>
    <dc:type rdf:resource="http://purl.org/dc/dcmitype/StillImage"/>
    <dc:date>2023-05-27T21:14:48.801682</dc:date>
    <dc:format>image/svg+xml</dc:format>
    <dc:creator>
     <cc:Agent>
      <dc:title>Matplotlib v3.7.1, https://matplotlib.org/</dc:title>
     </cc:Agent>
    </dc:creator>
   </cc:Work>
  </rdf:RDF>
 </metadata>
 <defs>
  <style type="text/css">*{stroke-linejoin: round; stroke-linecap: butt}</style>
 </defs>
 <g id="figure_1">
  <g id="patch_1">
   <path d="M 0 336.96 
L 465.984 336.96 
L 465.984 0 
L 0 0 
z
" style="fill: #ffffff; stroke: #ffffff; stroke-linejoin: miter"/>
  </g>
  <g id="axes_1">
   <g id="patch_2">
    <path d="M 44.000938 301.239312 
L 458.784 301.239312 
L 458.784 7.2 
L 44.000938 7.2 
z
" style="fill: #ebebeb"/>
   </g>
   <g id="matplotlib.axis_1">
    <g id="xtick_1">
     <g id="line2d_1">
      <path d="M 59.04587 301.239312 
L 59.04587 7.2 
" clip-path="url(#p7508c10fd6)" style="fill: none; stroke: #ffffff"/>
     </g>
     <g id="line2d_2">
      <path d="M 59.04587 301.239312 
" style="fill: none; stroke: #000000; stroke-width: 1.5"/>
      <defs>
       <path id="mee46dc3efa" d="M 0 0 
L 0 2.75 
" style="stroke: #333333"/>
      </defs>
      <g>
       <use xlink:href="#mee46dc3efa" x="59.04587" y="301.239312" style="stroke: #333333"/>
      </g>
     </g>
     <g id="text_1">
      <!-- 0 -->
      <g style="fill: #4d4d4d" transform="translate(56.24637 312.675937) scale(0.088 -0.088)">
       <defs>
        <path id="DejaVuSans-30" d="M 2034 4250 
Q 1547 4250 1301 3770 
Q 1056 3291 1056 2328 
Q 1056 1369 1301 889 
Q 1547 409 2034 409 
Q 2525 409 2770 889 
Q 3016 1369 3016 2328 
Q 3016 3291 2770 3770 
Q 2525 4250 2034 4250 
z
M 2034 4750 
Q 2819 4750 3233 4129 
Q 3647 3509 3647 2328 
Q 3647 1150 3233 529 
Q 2819 -91 2034 -91 
Q 1250 -91 836 529 
Q 422 1150 422 2328 
Q 422 3509 836 4129 
Q 1250 4750 2034 4750 
z
" transform="scale(0.015625)"/>
       </defs>
       <use xlink:href="#DejaVuSans-30"/>
      </g>
     </g>
    </g>
    <g id="xtick_2">
     <g id="line2d_3">
      <path d="M 154.266958 301.239312 
L 154.266958 7.2 
" clip-path="url(#p7508c10fd6)" style="fill: none; stroke: #ffffff"/>
     </g>
     <g id="line2d_4">
      <path d="M 154.266958 301.239312 
" style="fill: none; stroke: #000000; stroke-width: 1.5"/>
      <g>
       <use xlink:href="#mee46dc3efa" x="154.266958" y="301.239312" style="stroke: #333333"/>
      </g>
     </g>
     <g id="text_2">
      <!-- 25 -->
      <g style="fill: #4d4d4d" transform="translate(148.667958 312.675937) scale(0.088 -0.088)">
       <defs>
        <path id="DejaVuSans-32" d="M 1228 531 
L 3431 531 
L 3431 0 
L 469 0 
L 469 531 
Q 828 903 1448 1529 
Q 2069 2156 2228 2338 
Q 2531 2678 2651 2914 
Q 2772 3150 2772 3378 
Q 2772 3750 2511 3984 
Q 2250 4219 1831 4219 
Q 1534 4219 1204 4116 
Q 875 4013 500 3803 
L 500 4441 
Q 881 4594 1212 4672 
Q 1544 4750 1819 4750 
Q 2544 4750 2975 4387 
Q 3406 4025 3406 3419 
Q 3406 3131 3298 2873 
Q 3191 2616 2906 2266 
Q 2828 2175 2409 1742 
Q 1991 1309 1228 531 
z
" transform="scale(0.015625)"/>
        <path id="DejaVuSans-35" d="M 691 4666 
L 3169 4666 
L 3169 4134 
L 1269 4134 
L 1269 2991 
Q 1406 3038 1543 3061 
Q 1681 3084 1819 3084 
Q 2600 3084 3056 2656 
Q 3513 2228 3513 1497 
Q 3513 744 3044 326 
Q 2575 -91 1722 -91 
Q 1428 -91 1123 -41 
Q 819 9 494 109 
L 494 744 
Q 775 591 1075 516 
Q 1375 441 1709 441 
Q 2250 441 2565 725 
Q 2881 1009 2881 1497 
Q 2881 1984 2565 2268 
Q 2250 2553 1709 2553 
Q 1456 2553 1204 2497 
Q 953 2441 691 2322 
L 691 4666 
z
" transform="scale(0.015625)"/>
       </defs>
       <use xlink:href="#DejaVuSans-32"/>
       <use xlink:href="#DejaVuSans-35" x="63.623047"/>
      </g>
     </g>
    </g>
    <g id="xtick_3">
     <g id="line2d_5">
      <path d="M 249.488047 301.239312 
L 249.488047 7.2 
" clip-path="url(#p7508c10fd6)" style="fill: none; stroke: #ffffff"/>
     </g>
     <g id="line2d_6">
      <path d="M 249.488047 301.239312 
" style="fill: none; stroke: #000000; stroke-width: 1.5"/>
      <g>
       <use xlink:href="#mee46dc3efa" x="249.488047" y="301.239312" style="stroke: #333333"/>
      </g>
     </g>
     <g id="text_3">
      <!-- 50 -->
      <g style="fill: #4d4d4d" transform="translate(243.889047 312.675937) scale(0.088 -0.088)">
       <use xlink:href="#DejaVuSans-35"/>
       <use xlink:href="#DejaVuSans-30" x="63.623047"/>
      </g>
     </g>
    </g>
    <g id="xtick_4">
     <g id="line2d_7">
      <path d="M 344.709136 301.239312 
L 344.709136 7.2 
" clip-path="url(#p7508c10fd6)" style="fill: none; stroke: #ffffff"/>
     </g>
     <g id="line2d_8">
      <path d="M 344.709136 301.239312 
" style="fill: none; stroke: #000000; stroke-width: 1.5"/>
      <g>
       <use xlink:href="#mee46dc3efa" x="344.709136" y="301.239312" style="stroke: #333333"/>
      </g>
     </g>
     <g id="text_4">
      <!-- 75 -->
      <g style="fill: #4d4d4d" transform="translate(339.110136 312.675937) scale(0.088 -0.088)">
       <defs>
        <path id="DejaVuSans-37" d="M 525 4666 
L 3525 4666 
L 3525 4397 
L 1831 0 
L 1172 0 
L 2766 4134 
L 525 4134 
L 525 4666 
z
" transform="scale(0.015625)"/>
       </defs>
       <use xlink:href="#DejaVuSans-37"/>
       <use xlink:href="#DejaVuSans-35" x="63.623047"/>
      </g>
     </g>
    </g>
    <g id="xtick_5">
     <g id="line2d_9">
      <path d="M 439.930224 301.239312 
L 439.930224 7.2 
" clip-path="url(#p7508c10fd6)" style="fill: none; stroke: #ffffff"/>
     </g>
     <g id="line2d_10">
      <path d="M 439.930224 301.239312 
" style="fill: none; stroke: #000000; stroke-width: 1.5"/>
      <g>
       <use xlink:href="#mee46dc3efa" x="439.930224" y="301.239312" style="stroke: #333333"/>
      </g>
     </g>
     <g id="text_5">
      <!-- 100 -->
      <g style="fill: #4d4d4d" transform="translate(431.531724 312.675937) scale(0.088 -0.088)">
       <defs>
        <path id="DejaVuSans-31" d="M 794 531 
L 1825 531 
L 1825 4091 
L 703 3866 
L 703 4441 
L 1819 4666 
L 2450 4666 
L 2450 531 
L 3481 531 
L 3481 0 
L 794 0 
L 794 531 
z
" transform="scale(0.015625)"/>
       </defs>
       <use xlink:href="#DejaVuSans-31"/>
       <use xlink:href="#DejaVuSans-30" x="63.623047"/>
       <use xlink:href="#DejaVuSans-30" x="127.246094"/>
      </g>
     </g>
    </g>
    <g id="xtick_6">
     <g id="line2d_11">
      <path d="M 106.656414 301.239312 
L 106.656414 7.2 
" clip-path="url(#p7508c10fd6)" style="fill: none; stroke: #ffffff; stroke-width: 0.5"/>
     </g>
    </g>
    <g id="xtick_7">
     <g id="line2d_12">
      <path d="M 201.877503 301.239312 
L 201.877503 7.2 
" clip-path="url(#p7508c10fd6)" style="fill: none; stroke: #ffffff; stroke-width: 0.5"/>
     </g>
    </g>
    <g id="xtick_8">
     <g id="line2d_13">
      <path d="M 297.098591 301.239312 
L 297.098591 7.2 
" clip-path="url(#p7508c10fd6)" style="fill: none; stroke: #ffffff; stroke-width: 0.5"/>
     </g>
    </g>
    <g id="xtick_9">
     <g id="line2d_14">
      <path d="M 392.31968 301.239312 
L 392.31968 7.2 
" clip-path="url(#p7508c10fd6)" style="fill: none; stroke: #ffffff; stroke-width: 0.5"/>
     </g>
    </g>
   </g>
   <g id="matplotlib.axis_2">
    <g id="ytick_1">
     <g id="line2d_15">
      <path d="M 44.000938 251.751124 
L 458.784 251.751124 
" clip-path="url(#p7508c10fd6)" style="fill: none; stroke: #ffffff"/>
     </g>
     <g id="line2d_16">
      <path d="M 44.000938 251.751124 
" style="fill: none; stroke: #000000; stroke-width: 1.5"/>
      <defs>
       <path id="m34ea4c1c0c" d="M 0 0 
L -2.75 0 
" style="stroke: #333333"/>
      </defs>
      <g>
       <use xlink:href="#m34ea4c1c0c" x="44.000938" y="251.751124" style="stroke: #333333"/>
      </g>
     </g>
     <g id="text_6">
      <!-- 870 -->
      <g style="fill: #4d4d4d" transform="translate(22.453938 254.179374) scale(0.088 -0.088)">
       <defs>
        <path id="DejaVuSans-38" d="M 2034 2216 
Q 1584 2216 1326 1975 
Q 1069 1734 1069 1313 
Q 1069 891 1326 650 
Q 1584 409 2034 409 
Q 2484 409 2743 651 
Q 3003 894 3003 1313 
Q 3003 1734 2745 1975 
Q 2488 2216 2034 2216 
z
M 1403 2484 
Q 997 2584 770 2862 
Q 544 3141 544 3541 
Q 544 4100 942 4425 
Q 1341 4750 2034 4750 
Q 2731 4750 3128 4425 
Q 3525 4100 3525 3541 
Q 3525 3141 3298 2862 
Q 3072 2584 2669 2484 
Q 3125 2378 3379 2068 
Q 3634 1759 3634 1313 
Q 3634 634 3220 271 
Q 2806 -91 2034 -91 
Q 1263 -91 848 271 
Q 434 634 434 1313 
Q 434 1759 690 2068 
Q 947 2378 1403 2484 
z
M 1172 3481 
Q 1172 3119 1398 2916 
Q 1625 2713 2034 2713 
Q 2441 2713 2670 2916 
Q 2900 3119 2900 3481 
Q 2900 3844 2670 4047 
Q 2441 4250 2034 4250 
Q 1625 4250 1398 4047 
Q 1172 3844 1172 3481 
z
" transform="scale(0.015625)"/>
       </defs>
       <use xlink:href="#DejaVuSans-38"/>
       <use xlink:href="#DejaVuSans-37" x="63.623047"/>
       <use xlink:href="#DejaVuSans-30" x="127.246094"/>
      </g>
     </g>
    </g>
    <g id="ytick_2">
     <g id="line2d_17">
      <path d="M 44.000938 179.505592 
L 458.784 179.505592 
" clip-path="url(#p7508c10fd6)" style="fill: none; stroke: #ffffff"/>
     </g>
     <g id="line2d_18">
      <path d="M 44.000938 179.505592 
" style="fill: none; stroke: #000000; stroke-width: 1.5"/>
      <g>
       <use xlink:href="#m34ea4c1c0c" x="44.000938" y="179.505592" style="stroke: #333333"/>
      </g>
     </g>
     <g id="text_7">
      <!-- 880 -->
      <g style="fill: #4d4d4d" transform="translate(22.453938 181.933842) scale(0.088 -0.088)">
       <use xlink:href="#DejaVuSans-38"/>
       <use xlink:href="#DejaVuSans-38" x="63.623047"/>
       <use xlink:href="#DejaVuSans-30" x="127.246094"/>
      </g>
     </g>
    </g>
    <g id="ytick_3">
     <g id="line2d_19">
      <path d="M 44.000938 107.260061 
L 458.784 107.260061 
" clip-path="url(#p7508c10fd6)" style="fill: none; stroke: #ffffff"/>
     </g>
     <g id="line2d_20">
      <path d="M 44.000938 107.260061 
" style="fill: none; stroke: #000000; stroke-width: 1.5"/>
      <g>
       <use xlink:href="#m34ea4c1c0c" x="44.000938" y="107.260061" style="stroke: #333333"/>
      </g>
     </g>
     <g id="text_8">
      <!-- 890 -->
      <g style="fill: #4d4d4d" transform="translate(22.453938 109.688311) scale(0.088 -0.088)">
       <defs>
        <path id="DejaVuSans-39" d="M 703 97 
L 703 672 
Q 941 559 1184 500 
Q 1428 441 1663 441 
Q 2288 441 2617 861 
Q 2947 1281 2994 2138 
Q 2813 1869 2534 1725 
Q 2256 1581 1919 1581 
Q 1219 1581 811 2004 
Q 403 2428 403 3163 
Q 403 3881 828 4315 
Q 1253 4750 1959 4750 
Q 2769 4750 3195 4129 
Q 3622 3509 3622 2328 
Q 3622 1225 3098 567 
Q 2575 -91 1691 -91 
Q 1453 -91 1209 -44 
Q 966 3 703 97 
z
M 1959 2075 
Q 2384 2075 2632 2365 
Q 2881 2656 2881 3163 
Q 2881 3666 2632 3958 
Q 2384 4250 1959 4250 
Q 1534 4250 1286 3958 
Q 1038 3666 1038 3163 
Q 1038 2656 1286 2365 
Q 1534 2075 1959 2075 
z
" transform="scale(0.015625)"/>
       </defs>
       <use xlink:href="#DejaVuSans-38"/>
       <use xlink:href="#DejaVuSans-39" x="63.623047"/>
       <use xlink:href="#DejaVuSans-30" x="127.246094"/>
      </g>
     </g>
    </g>
    <g id="ytick_4">
     <g id="line2d_21">
      <path d="M 44.000938 35.01453 
L 458.784 35.01453 
" clip-path="url(#p7508c10fd6)" style="fill: none; stroke: #ffffff"/>
     </g>
     <g id="line2d_22">
      <path d="M 44.000938 35.01453 
" style="fill: none; stroke: #000000; stroke-width: 1.5"/>
      <g>
       <use xlink:href="#m34ea4c1c0c" x="44.000938" y="35.01453" style="stroke: #333333"/>
      </g>
     </g>
     <g id="text_9">
      <!-- 900 -->
      <g style="fill: #4d4d4d" transform="translate(22.453938 37.44278) scale(0.088 -0.088)">
       <use xlink:href="#DejaVuSans-39"/>
       <use xlink:href="#DejaVuSans-30" x="63.623047"/>
       <use xlink:href="#DejaVuSans-30" x="127.246094"/>
      </g>
     </g>
    </g>
    <g id="ytick_5">
     <g id="line2d_23">
      <path d="M 44.000938 287.873889 
L 458.784 287.873889 
" clip-path="url(#p7508c10fd6)" style="fill: none; stroke: #ffffff; stroke-width: 0.5"/>
     </g>
    </g>
    <g id="ytick_6">
     <g id="line2d_24">
      <path d="M 44.000938 215.628358 
L 458.784 215.628358 
" clip-path="url(#p7508c10fd6)" style="fill: none; stroke: #ffffff; stroke-width: 0.5"/>
     </g>
    </g>
    <g id="ytick_7">
     <g id="line2d_25">
      <path d="M 44.000938 143.382827 
L 458.784 143.382827 
" clip-path="url(#p7508c10fd6)" style="fill: none; stroke: #ffffff; stroke-width: 0.5"/>
     </g>
    </g>
    <g id="ytick_8">
     <g id="line2d_26">
      <path d="M 44.000938 71.137295 
L 458.784 71.137295 
" clip-path="url(#p7508c10fd6)" style="fill: none; stroke: #ffffff; stroke-width: 0.5"/>
     </g>
    </g>
   </g>
   <g id="PathCollection_1">
    <path d="M 62.854713 289.646343 
C 63.324773 289.646343 63.775644 289.459586 64.108027 289.127203 
C 64.44041 288.794821 64.627167 288.343949 64.627167 287.873889 
C 64.627167 287.403829 64.44041 286.952958 64.108027 286.620575 
C 63.775644 286.288192 63.324773 286.101435 62.854713 286.101435 
C 62.384653 286.101435 61.933782 286.288192 61.601399 286.620575 
C 61.269016 286.952958 61.082259 287.403829 61.082259 287.873889 
C 61.082259 288.343949 61.269016 288.794821 61.601399 289.127203 
C 61.933782 289.459586 62.384653 289.646343 62.854713 289.646343 
z
" clip-path="url(#p7508c10fd6)" style="stroke: #000000; stroke-width: 0.886227"/>
    <path d="M 66.663557 181.278046 
C 67.133617 181.278046 67.584488 181.091289 67.916871 180.758906 
C 68.249254 180.426524 68.43601 179.975652 68.43601 179.505592 
C 68.43601 179.035532 68.249254 178.584661 67.916871 178.252278 
C 67.584488 177.919895 67.133617 177.733138 66.663557 177.733138 
C 66.193496 177.733138 65.742625 177.919895 65.410242 178.252278 
C 65.07786 178.584661 64.891103 179.035532 64.891103 179.505592 
C 64.891103 179.975652 65.07786 180.426524 65.410242 180.758906 
C 65.742625 181.091289 66.193496 181.278046 66.663557 181.278046 
z
" clip-path="url(#p7508c10fd6)" style="stroke: #000000; stroke-width: 0.886227"/>
    <path d="M 70.4724 109.032515 
C 70.94246 109.032515 71.393332 108.845758 71.725714 108.513375 
C 72.058097 108.180992 72.244854 107.730121 72.244854 107.260061 
C 72.244854 106.790001 72.058097 106.33913 71.725714 106.006747 
C 71.393332 105.674364 70.94246 105.487607 70.4724 105.487607 
C 70.00234 105.487607 69.551469 105.674364 69.219086 106.006747 
C 68.886703 106.33913 68.699946 106.790001 68.699946 107.260061 
C 68.699946 107.730121 68.886703 108.180992 69.219086 108.513375 
C 69.551469 108.845758 70.00234 109.032515 70.4724 109.032515 
z
" clip-path="url(#p7508c10fd6)" style="stroke: #000000; stroke-width: 0.886227"/>
    <path d="M 74.281244 94.583408 
C 74.751304 94.583408 75.202175 94.396652 75.534558 94.064269 
C 75.866941 93.731886 76.053698 93.281015 76.053698 92.810955 
C 76.053698 92.340894 75.866941 91.890023 75.534558 91.55764 
C 75.202175 91.225258 74.751304 91.038501 74.281244 91.038501 
C 73.811183 91.038501 73.360312 91.225258 73.02793 91.55764 
C 72.695547 91.890023 72.50879 92.340894 72.50879 92.810955 
C 72.50879 93.281015 72.695547 93.731886 73.02793 94.064269 
C 73.360312 94.396652 73.811183 94.583408 74.281244 94.583408 
z
" clip-path="url(#p7508c10fd6)" style="stroke: #000000; stroke-width: 0.886227"/>
    <path d="M 78.090087 58.460643 
C 78.560148 58.460643 79.011019 58.273886 79.343401 57.941503 
C 79.675784 57.60912 79.862541 57.158249 79.862541 56.688189 
C 79.862541 56.218129 79.675784 55.767258 79.343401 55.434875 
C 79.011019 55.102492 78.560148 54.915735 78.090087 54.915735 
C 77.620027 54.915735 77.169156 55.102492 76.836773 55.434875 
C 76.50439 55.767258 76.317633 56.218129 76.317633 56.688189 
C 76.317633 57.158249 76.50439 57.60912 76.836773 57.941503 
C 77.169156 58.273886 77.620027 58.460643 78.090087 58.460643 
z
" clip-path="url(#p7508c10fd6)" style="stroke: #000000; stroke-width: 0.886227"/>
    <path d="M 81.898931 36.786983 
C 82.368991 36.786983 82.819862 36.600226 83.152245 36.267844 
C 83.484628 35.935461 83.671385 35.48459 83.671385 35.01453 
C 83.671385 34.544469 83.484628 34.093598 83.152245 33.761215 
C 82.819862 33.428833 82.368991 33.242076 81.898931 33.242076 
C 81.428871 33.242076 80.977999 33.428833 80.645617 33.761215 
C 80.313234 34.093598 80.126477 34.544469 80.126477 35.01453 
C 80.126477 35.48459 80.313234 35.935461 80.645617 36.267844 
C 80.977999 36.600226 81.428871 36.786983 81.898931 36.786983 
z
" clip-path="url(#p7508c10fd6)" style="stroke: #000000; stroke-width: 0.886227"/>
    <path d="M 85.707774 22.337877 
C 86.177835 22.337877 86.628706 22.15112 86.961089 21.818737 
C 87.293471 21.486355 87.480228 21.035484 87.480228 20.565423 
C 87.480228 20.095363 87.293471 19.644492 86.961089 19.312109 
C 86.628706 18.979726 86.177835 18.792969 85.707774 18.792969 
C 85.237714 18.792969 84.786843 18.979726 84.45446 19.312109 
C 84.122077 19.644492 83.935321 20.095363 83.935321 20.565423 
C 83.935321 21.035484 84.122077 21.486355 84.45446 21.818737 
C 84.786843 22.15112 85.237714 22.337877 85.707774 22.337877 
z
" clip-path="url(#p7508c10fd6)" style="stroke: #000000; stroke-width: 0.886227"/>
    <path d="M 89.516618 101.807962 
C 89.986678 101.807962 90.437549 101.621205 90.769932 101.288822 
C 91.102315 100.956439 91.289072 100.505568 91.289072 100.035508 
C 91.289072 99.565447 91.102315 99.114576 90.769932 98.782194 
C 90.437549 98.449811 89.986678 98.263054 89.516618 98.263054 
C 89.046558 98.263054 88.595687 98.449811 88.263304 98.782194 
C 87.930921 99.114576 87.744164 99.565447 87.744164 100.035508 
C 87.744164 100.505568 87.930921 100.956439 88.263304 101.288822 
C 88.595687 101.621205 89.046558 101.807962 89.516618 101.807962 
z
" clip-path="url(#p7508c10fd6)" style="stroke: #000000; stroke-width: 0.886227"/>
    <path d="M 93.325461 72.909749 
C 93.795522 72.909749 94.246393 72.722992 94.578776 72.390609 
C 94.911158 72.058227 95.097915 71.607355 95.097915 71.137295 
C 95.097915 70.667235 94.911158 70.216364 94.578776 69.883981 
C 94.246393 69.551598 93.795522 69.364841 93.325461 69.364841 
C 92.855401 69.364841 92.40453 69.551598 92.072147 69.883981 
C 91.739765 70.216364 91.553008 70.667235 91.553008 71.137295 
C 91.553008 71.607355 91.739765 72.058227 92.072147 72.390609 
C 92.40453 72.722992 92.855401 72.909749 93.325461 72.909749 
z
" clip-path="url(#p7508c10fd6)" style="stroke: #000000; stroke-width: 0.886227"/>
    <path d="M 97.134305 145.15528 
C 97.604365 145.15528 98.055236 144.968523 98.387619 144.636141 
C 98.720002 144.303758 98.906759 143.852887 98.906759 143.382827 
C 98.906759 142.912766 98.720002 142.461895 98.387619 142.129512 
C 98.055236 141.79713 97.604365 141.610373 97.134305 141.610373 
C 96.664245 141.610373 96.213374 141.79713 95.880991 142.129512 
C 95.548608 142.461895 95.361851 142.912766 95.361851 143.382827 
C 95.361851 143.852887 95.548608 144.303758 95.880991 144.636141 
C 96.213374 144.968523 96.664245 145.15528 97.134305 145.15528 
z
" clip-path="url(#p7508c10fd6)" style="stroke: #000000; stroke-width: 0.886227"/>
    <path d="M 100.943149 109.032515 
C 101.413209 109.032515 101.86408 108.845758 102.196463 108.513375 
C 102.528845 108.180992 102.715602 107.730121 102.715602 107.260061 
C 102.715602 106.790001 102.528845 106.33913 102.196463 106.006747 
C 101.86408 105.674364 101.413209 105.487607 100.943149 105.487607 
C 100.473088 105.487607 100.022217 105.674364 99.689834 106.006747 
C 99.357452 106.33913 99.170695 106.790001 99.170695 107.260061 
C 99.170695 107.730121 99.357452 108.180992 99.689834 108.513375 
C 100.022217 108.845758 100.473088 109.032515 100.943149 109.032515 
z
" clip-path="url(#p7508c10fd6)" style="stroke: #000000; stroke-width: 0.886227"/>
    <path d="M 104.751992 130.706174 
C 105.222052 130.706174 105.672923 130.519417 106.005306 130.187034 
C 106.337689 129.854652 106.524446 129.403781 106.524446 128.93372 
C 106.524446 128.46366 106.337689 128.012789 106.005306 127.680406 
C 105.672923 127.348023 105.222052 127.161266 104.751992 127.161266 
C 104.281932 127.161266 103.831061 127.348023 103.498678 127.680406 
C 103.166295 128.012789 102.979538 128.46366 102.979538 128.93372 
C 102.979538 129.403781 103.166295 129.854652 103.498678 130.187034 
C 103.831061 130.519417 104.281932 130.706174 104.751992 130.706174 
z
" clip-path="url(#p7508c10fd6)" style="stroke: #000000; stroke-width: 0.886227"/>
    <path d="M 108.560836 145.15528 
C 109.030896 145.15528 109.481767 144.968523 109.81415 144.636141 
C 110.146533 144.303758 110.33329 143.852887 110.33329 143.382827 
C 110.33329 142.912766 110.146533 142.461895 109.81415 142.129512 
C 109.481767 141.79713 109.030896 141.610373 108.560836 141.610373 
C 108.090775 141.610373 107.639904 141.79713 107.307522 142.129512 
C 106.975139 142.461895 106.788382 142.912766 106.788382 143.382827 
C 106.788382 143.852887 106.975139 144.303758 107.307522 144.636141 
C 107.639904 144.968523 108.090775 145.15528 108.560836 145.15528 
z
" clip-path="url(#p7508c10fd6)" style="stroke: #000000; stroke-width: 0.886227"/>
    <path d="M 112.369679 166.82894 
C 112.839739 166.82894 113.290611 166.642183 113.622993 166.3098 
C 113.955376 165.977417 114.142133 165.526546 114.142133 165.056486 
C 114.142133 164.586426 113.955376 164.135555 113.622993 163.803172 
C 113.290611 163.470789 112.839739 163.284032 112.369679 163.284032 
C 111.899619 163.284032 111.448748 163.470789 111.116365 163.803172 
C 110.783982 164.135555 110.597225 164.586426 110.597225 165.056486 
C 110.597225 165.526546 110.783982 165.977417 111.116365 166.3098 
C 111.448748 166.642183 111.899619 166.82894 112.369679 166.82894 
z
" clip-path="url(#p7508c10fd6)" style="stroke: #000000; stroke-width: 0.886227"/>
    <path d="M 116.178523 224.625365 
C 116.648583 224.625365 117.099454 224.438608 117.431837 224.106225 
C 117.76422 223.773842 117.950977 223.322971 117.950977 222.852911 
C 117.950977 222.382851 117.76422 221.93198 117.431837 221.599597 
C 117.099454 221.267214 116.648583 221.080457 116.178523 221.080457 
C 115.708463 221.080457 115.257591 221.267214 114.925209 221.599597 
C 114.592826 221.93198 114.406069 222.382851 114.406069 222.852911 
C 114.406069 223.322971 114.592826 223.773842 114.925209 224.106225 
C 115.257591 224.438608 115.708463 224.625365 116.178523 224.625365 
z
" clip-path="url(#p7508c10fd6)" style="stroke: #000000; stroke-width: 0.886227"/>
    <path d="M 119.987366 188.502599 
C 120.457427 188.502599 120.908298 188.315842 121.24068 187.983459 
C 121.573063 187.651077 121.75982 187.200206 121.75982 186.730145 
C 121.75982 186.260085 121.573063 185.809214 121.24068 185.476831 
C 120.908298 185.144448 120.457427 184.957691 119.987366 184.957691 
C 119.517306 184.957691 119.066435 185.144448 118.734052 185.476831 
C 118.401669 185.809214 118.214912 186.260085 118.214912 186.730145 
C 118.214912 187.200206 118.401669 187.651077 118.734052 187.983459 
C 119.066435 188.315842 119.517306 188.502599 119.987366 188.502599 
z
" clip-path="url(#p7508c10fd6)" style="stroke: #000000; stroke-width: 0.886227"/>
    <path d="M 123.79621 109.032515 
C 124.26627 109.032515 124.717141 108.845758 125.049524 108.513375 
C 125.381907 108.180992 125.568664 107.730121 125.568664 107.260061 
C 125.568664 106.790001 125.381907 106.33913 125.049524 106.006747 
C 124.717141 105.674364 124.26627 105.487607 123.79621 105.487607 
C 123.32615 105.487607 122.875279 105.674364 122.542896 106.006747 
C 122.210513 106.33913 122.023756 106.790001 122.023756 107.260061 
C 122.023756 107.730121 122.210513 108.180992 122.542896 108.513375 
C 122.875279 108.845758 123.32615 109.032515 123.79621 109.032515 
z
" clip-path="url(#p7508c10fd6)" style="stroke: #000000; stroke-width: 0.886227"/>
    <path d="M 127.605053 166.82894 
C 128.075114 166.82894 128.525985 166.642183 128.858368 166.3098 
C 129.19075 165.977417 129.377507 165.526546 129.377507 165.056486 
C 129.377507 164.586426 129.19075 164.135555 128.858368 163.803172 
C 128.525985 163.470789 128.075114 163.284032 127.605053 163.284032 
C 127.134993 163.284032 126.684122 163.470789 126.351739 163.803172 
C 126.019356 164.135555 125.8326 164.586426 125.8326 165.056486 
C 125.8326 165.526546 126.019356 165.977417 126.351739 166.3098 
C 126.684122 166.642183 127.134993 166.82894 127.605053 166.82894 
z
" clip-path="url(#p7508c10fd6)" style="stroke: #000000; stroke-width: 0.886227"/>
    <path d="M 131.413897 195.727152 
C 131.883957 195.727152 132.334828 195.540395 132.667211 195.208013 
C 132.999594 194.87563 133.186351 194.424759 133.186351 193.954698 
C 133.186351 193.484638 132.999594 193.033767 132.667211 192.701384 
C 132.334828 192.369002 131.883957 192.182245 131.413897 192.182245 
C 130.943837 192.182245 130.492966 192.369002 130.160583 192.701384 
C 129.8282 193.033767 129.641443 193.484638 129.641443 193.954698 
C 129.641443 194.424759 129.8282 194.87563 130.160583 195.208013 
C 130.492966 195.540395 130.943837 195.727152 131.413897 195.727152 
z
" clip-path="url(#p7508c10fd6)" style="stroke: #000000; stroke-width: 0.886227"/>
    <path d="M 135.222741 195.727152 
C 135.692801 195.727152 136.143672 195.540395 136.476055 195.208013 
C 136.808437 194.87563 136.995194 194.424759 136.995194 193.954698 
C 136.995194 193.484638 136.808437 193.033767 136.476055 192.701384 
C 136.143672 192.369002 135.692801 192.182245 135.222741 192.182245 
C 134.75268 192.182245 134.301809 192.369002 133.969426 192.701384 
C 133.637044 193.033767 133.450287 193.484638 133.450287 193.954698 
C 133.450287 194.424759 133.637044 194.87563 133.969426 195.208013 
C 134.301809 195.540395 134.75268 195.727152 135.222741 195.727152 
z
" clip-path="url(#p7508c10fd6)" style="stroke: #000000; stroke-width: 0.886227"/>
    <path d="M 139.031584 239.074471 
C 139.501644 239.074471 139.952515 238.887714 140.284898 238.555331 
C 140.617281 238.222949 140.804038 237.772078 140.804038 237.302017 
C 140.804038 236.831957 140.617281 236.381086 140.284898 236.048703 
C 139.952515 235.71632 139.501644 235.529563 139.031584 235.529563 
C 138.561524 235.529563 138.110653 235.71632 137.77827 236.048703 
C 137.445887 236.381086 137.25913 236.831957 137.25913 237.302017 
C 137.25913 237.772078 137.445887 238.222949 137.77827 238.555331 
C 138.110653 238.887714 138.561524 239.074471 139.031584 239.074471 
z
" clip-path="url(#p7508c10fd6)" style="stroke: #000000; stroke-width: 0.886227"/>
    <path d="M 142.840428 217.400812 
C 143.310488 217.400812 143.761359 217.214055 144.093742 216.881672 
C 144.426125 216.549289 144.612881 216.098418 144.612881 215.628358 
C 144.612881 215.158298 144.426125 214.707427 144.093742 214.375044 
C 143.761359 214.042661 143.310488 213.855904 142.840428 213.855904 
C 142.370367 213.855904 141.919496 214.042661 141.587113 214.375044 
C 141.254731 214.707427 141.067974 215.158298 141.067974 215.628358 
C 141.067974 216.098418 141.254731 216.549289 141.587113 216.881672 
C 141.919496 217.214055 142.370367 217.400812 142.840428 217.400812 
z
" clip-path="url(#p7508c10fd6)" style="stroke: #000000; stroke-width: 0.886227"/>
    <path d="M 146.649271 22.337877 
C 147.119331 22.337877 147.570202 22.15112 147.902585 21.818737 
C 148.234968 21.486355 148.421725 21.035484 148.421725 20.565423 
C 148.421725 20.095363 148.234968 19.644492 147.902585 19.312109 
C 147.570202 18.979726 147.119331 18.792969 146.649271 18.792969 
C 146.179211 18.792969 145.72834 18.979726 145.395957 19.312109 
C 145.063574 19.644492 144.876817 20.095363 144.876817 20.565423 
C 144.876817 21.035484 145.063574 21.486355 145.395957 21.818737 
C 145.72834 22.15112 146.179211 22.337877 146.649271 22.337877 
z
" clip-path="url(#p7508c10fd6)" style="stroke: #000000; stroke-width: 0.886227"/>
    <path d="M 150.458115 44.011537 
C 150.928175 44.011537 151.379046 43.82478 151.711429 43.492397 
C 152.043812 43.160014 152.230569 42.709143 152.230569 42.239083 
C 152.230569 41.769022 152.043812 41.318151 151.711429 40.985769 
C 151.379046 40.653386 150.928175 40.466629 150.458115 40.466629 
C 149.988054 40.466629 149.537183 40.653386 149.204801 40.985769 
C 148.872418 41.318151 148.685661 41.769022 148.685661 42.239083 
C 148.685661 42.709143 148.872418 43.160014 149.204801 43.492397 
C 149.537183 43.82478 149.988054 44.011537 150.458115 44.011537 
z
" clip-path="url(#p7508c10fd6)" style="stroke: #000000; stroke-width: 0.886227"/>
    <path d="M 154.266958 101.807962 
C 154.737019 101.807962 155.18789 101.621205 155.520272 101.288822 
C 155.852655 100.956439 156.039412 100.505568 156.039412 100.035508 
C 156.039412 99.565447 155.852655 99.114576 155.520272 98.782194 
C 155.18789 98.449811 154.737019 98.263054 154.266958 98.263054 
C 153.796898 98.263054 153.346027 98.449811 153.013644 98.782194 
C 152.681261 99.114576 152.494504 99.565447 152.494504 100.035508 
C 152.494504 100.505568 152.681261 100.956439 153.013644 101.288822 
C 153.346027 101.621205 153.796898 101.807962 154.266958 101.807962 
z
" clip-path="url(#p7508c10fd6)" style="stroke: #000000; stroke-width: 0.886227"/>
    <path d="M 158.075802 145.15528 
C 158.545862 145.15528 158.996733 144.968523 159.329116 144.636141 
C 159.661499 144.303758 159.848256 143.852887 159.848256 143.382827 
C 159.848256 142.912766 159.661499 142.461895 159.329116 142.129512 
C 158.996733 141.79713 158.545862 141.610373 158.075802 141.610373 
C 157.605742 141.610373 157.15487 141.79713 156.822488 142.129512 
C 156.490105 142.461895 156.303348 142.912766 156.303348 143.382827 
C 156.303348 143.852887 156.490105 144.303758 156.822488 144.636141 
C 157.15487 144.968523 157.605742 145.15528 158.075802 145.15528 
z
" clip-path="url(#p7508c10fd6)" style="stroke: #000000; stroke-width: 0.886227"/>
    <path d="M 161.884645 152.379834 
C 162.354706 152.379834 162.805577 152.193077 163.137959 151.860694 
C 163.470342 151.528311 163.657099 151.07744 163.657099 150.60738 
C 163.657099 150.137319 163.470342 149.686448 163.137959 149.354066 
C 162.805577 149.021683 162.354706 148.834926 161.884645 148.834926 
C 161.414585 148.834926 160.963714 149.021683 160.631331 149.354066 
C 160.298948 149.686448 160.112191 150.137319 160.112191 150.60738 
C 160.112191 151.07744 160.298948 151.528311 160.631331 151.860694 
C 160.963714 152.193077 161.414585 152.379834 161.884645 152.379834 
z
" clip-path="url(#p7508c10fd6)" style="stroke: #000000; stroke-width: 0.886227"/>
    <path d="M 165.693489 166.82894 
C 166.163549 166.82894 166.61442 166.642183 166.946803 166.3098 
C 167.279186 165.977417 167.465943 165.526546 167.465943 165.056486 
C 167.465943 164.586426 167.279186 164.135555 166.946803 163.803172 
C 166.61442 163.470789 166.163549 163.284032 165.693489 163.284032 
C 165.223429 163.284032 164.772558 163.470789 164.440175 163.803172 
C 164.107792 164.135555 163.921035 164.586426 163.921035 165.056486 
C 163.921035 165.526546 164.107792 165.977417 164.440175 166.3098 
C 164.772558 166.642183 165.223429 166.82894 165.693489 166.82894 
z
" clip-path="url(#p7508c10fd6)" style="stroke: #000000; stroke-width: 0.886227"/>
    <path d="M 169.502332 195.727152 
C 169.972393 195.727152 170.423264 195.540395 170.755647 195.208013 
C 171.088029 194.87563 171.274786 194.424759 171.274786 193.954698 
C 171.274786 193.484638 171.088029 193.033767 170.755647 192.701384 
C 170.423264 192.369002 169.972393 192.182245 169.502332 192.182245 
C 169.032272 192.182245 168.581401 192.369002 168.249018 192.701384 
C 167.916636 193.033767 167.729879 193.484638 167.729879 193.954698 
C 167.729879 194.424759 167.916636 194.87563 168.249018 195.208013 
C 168.581401 195.540395 169.032272 195.727152 169.502332 195.727152 
z
" clip-path="url(#p7508c10fd6)" style="stroke: #000000; stroke-width: 0.886227"/>
    <path d="M 173.311176 202.951705 
C 173.781236 202.951705 174.232107 202.764949 174.56449 202.432566 
C 174.896873 202.100183 175.08363 201.649312 175.08363 201.179252 
C 175.08363 200.709191 174.896873 200.25832 174.56449 199.925937 
C 174.232107 199.593555 173.781236 199.406798 173.311176 199.406798 
C 172.841116 199.406798 172.390245 199.593555 172.057862 199.925937 
C 171.725479 200.25832 171.538722 200.709191 171.538722 201.179252 
C 171.538722 201.649312 171.725479 202.100183 172.057862 202.432566 
C 172.390245 202.764949 172.841116 202.951705 173.311176 202.951705 
z
" clip-path="url(#p7508c10fd6)" style="stroke: #000000; stroke-width: 0.886227"/>
    <path d="M 177.12002 239.074471 
C 177.59008 239.074471 178.040951 238.887714 178.373334 238.555331 
C 178.705716 238.222949 178.892473 237.772078 178.892473 237.302017 
C 178.892473 236.831957 178.705716 236.381086 178.373334 236.048703 
C 178.040951 235.71632 177.59008 235.529563 177.12002 235.529563 
C 176.649959 235.529563 176.199088 235.71632 175.866705 236.048703 
C 175.534323 236.381086 175.347566 236.831957 175.347566 237.302017 
C 175.347566 237.772078 175.534323 238.222949 175.866705 238.555331 
C 176.199088 238.887714 176.649959 239.074471 177.12002 239.074471 
z
" clip-path="url(#p7508c10fd6)" style="stroke: #000000; stroke-width: 0.886227"/>
    <path d="M 180.928863 181.278046 
C 181.398923 181.278046 181.849794 181.091289 182.182177 180.758906 
C 182.51456 180.426524 182.701317 179.975652 182.701317 179.505592 
C 182.701317 179.035532 182.51456 178.584661 182.182177 178.252278 
C 181.849794 177.919895 181.398923 177.733138 180.928863 177.733138 
C 180.458803 177.733138 180.007932 177.919895 179.675549 178.252278 
C 179.343166 178.584661 179.156409 179.035532 179.156409 179.505592 
C 179.156409 179.975652 179.343166 180.426524 179.675549 180.758906 
C 180.007932 181.091289 180.458803 181.278046 180.928863 181.278046 
z
" clip-path="url(#p7508c10fd6)" style="stroke: #000000; stroke-width: 0.886227"/>
    <path d="M 184.737707 188.502599 
C 185.207767 188.502599 185.658638 188.315842 185.991021 187.983459 
C 186.323404 187.651077 186.51016 187.200206 186.51016 186.730145 
C 186.51016 186.260085 186.323404 185.809214 185.991021 185.476831 
C 185.658638 185.144448 185.207767 184.957691 184.737707 184.957691 
C 184.267646 184.957691 183.816775 185.144448 183.484393 185.476831 
C 183.15201 185.809214 182.965253 186.260085 182.965253 186.730145 
C 182.965253 187.200206 183.15201 187.651077 183.484393 187.983459 
C 183.816775 188.315842 184.267646 188.502599 184.737707 188.502599 
z
" clip-path="url(#p7508c10fd6)" style="stroke: #000000; stroke-width: 0.886227"/>
    <path d="M 188.54655 166.82894 
C 189.01661 166.82894 189.467482 166.642183 189.799864 166.3098 
C 190.132247 165.977417 190.319004 165.526546 190.319004 165.056486 
C 190.319004 164.586426 190.132247 164.135555 189.799864 163.803172 
C 189.467482 163.470789 189.01661 163.284032 188.54655 163.284032 
C 188.07649 163.284032 187.625619 163.470789 187.293236 163.803172 
C 186.960853 164.135555 186.774096 164.586426 186.774096 165.056486 
C 186.774096 165.526546 186.960853 165.977417 187.293236 166.3098 
C 187.625619 166.642183 188.07649 166.82894 188.54655 166.82894 
z
" clip-path="url(#p7508c10fd6)" style="stroke: #000000; stroke-width: 0.886227"/>
    <path d="M 192.355394 246.299024 
C 192.825454 246.299024 193.276325 246.112267 193.608708 245.779885 
C 193.941091 245.447502 194.127848 244.996631 194.127848 244.52657 
C 194.127848 244.05651 193.941091 243.605639 193.608708 243.273256 
C 193.276325 242.940873 192.825454 242.754117 192.355394 242.754117 
C 191.885333 242.754117 191.434462 242.940873 191.10208 243.273256 
C 190.769697 243.605639 190.58294 244.05651 190.58294 244.52657 
C 190.58294 244.996631 190.769697 245.447502 191.10208 245.779885 
C 191.434462 246.112267 191.885333 246.299024 192.355394 246.299024 
z
" clip-path="url(#p7508c10fd6)" style="stroke: #000000; stroke-width: 0.886227"/>
    <path d="M 196.164237 123.481621 
C 196.634298 123.481621 197.085169 123.294864 197.417551 122.962481 
C 197.749934 122.630098 197.936691 122.179227 197.936691 121.709167 
C 197.936691 121.239107 197.749934 120.788236 197.417551 120.455853 
C 197.085169 120.12347 196.634298 119.936713 196.164237 119.936713 
C 195.694177 119.936713 195.243306 120.12347 194.910923 120.455853 
C 194.57854 120.788236 194.391783 121.239107 194.391783 121.709167 
C 194.391783 122.179227 194.57854 122.630098 194.910923 122.962481 
C 195.243306 123.294864 195.694177 123.481621 196.164237 123.481621 
z
" clip-path="url(#p7508c10fd6)" style="stroke: #000000; stroke-width: 0.886227"/>
    <path d="M 199.973081 109.032515 
C 200.443141 109.032515 200.894012 108.845758 201.226395 108.513375 
C 201.558778 108.180992 201.745535 107.730121 201.745535 107.260061 
C 201.745535 106.790001 201.558778 106.33913 201.226395 106.006747 
C 200.894012 105.674364 200.443141 105.487607 199.973081 105.487607 
C 199.503021 105.487607 199.052149 105.674364 198.719767 106.006747 
C 198.387384 106.33913 198.200627 106.790001 198.200627 107.260061 
C 198.200627 107.730121 198.387384 108.180992 198.719767 108.513375 
C 199.052149 108.845758 199.503021 109.032515 199.973081 109.032515 
z
" clip-path="url(#p7508c10fd6)" style="stroke: #000000; stroke-width: 0.886227"/>
    <path d="M 203.781924 101.807962 
C 204.251985 101.807962 204.702856 101.621205 205.035239 101.288822 
C 205.367621 100.956439 205.554378 100.505568 205.554378 100.035508 
C 205.554378 99.565447 205.367621 99.114576 205.035239 98.782194 
C 204.702856 98.449811 204.251985 98.263054 203.781924 98.263054 
C 203.311864 98.263054 202.860993 98.449811 202.52861 98.782194 
C 202.196227 99.114576 202.009471 99.565447 202.009471 100.035508 
C 202.009471 100.505568 202.196227 100.956439 202.52861 101.288822 
C 202.860993 101.621205 203.311864 101.807962 203.781924 101.807962 
z
" clip-path="url(#p7508c10fd6)" style="stroke: #000000; stroke-width: 0.886227"/>
    <path d="M 207.590768 22.337877 
C 208.060828 22.337877 208.511699 22.15112 208.844082 21.818737 
C 209.176465 21.486355 209.363222 21.035484 209.363222 20.565423 
C 209.363222 20.095363 209.176465 19.644492 208.844082 19.312109 
C 208.511699 18.979726 208.060828 18.792969 207.590768 18.792969 
C 207.120708 18.792969 206.669837 18.979726 206.337454 19.312109 
C 206.005071 19.644492 205.818314 20.095363 205.818314 20.565423 
C 205.818314 21.035484 206.005071 21.486355 206.337454 21.818737 
C 206.669837 22.15112 207.120708 22.337877 207.590768 22.337877 
z
" clip-path="url(#p7508c10fd6)" style="stroke: #000000; stroke-width: 0.886227"/>
    <path d="M 211.399611 44.011537 
C 211.869672 44.011537 212.320543 43.82478 212.652926 43.492397 
C 212.985308 43.160014 213.172065 42.709143 213.172065 42.239083 
C 213.172065 41.769022 212.985308 41.318151 212.652926 40.985769 
C 212.320543 40.653386 211.869672 40.466629 211.399611 40.466629 
C 210.929551 40.466629 210.47868 40.653386 210.146297 40.985769 
C 209.813915 41.318151 209.627158 41.769022 209.627158 42.239083 
C 209.627158 42.709143 209.813915 43.160014 210.146297 43.492397 
C 210.47868 43.82478 210.929551 44.011537 211.399611 44.011537 
z
" clip-path="url(#p7508c10fd6)" style="stroke: #000000; stroke-width: 0.886227"/>
    <path d="M 215.208455 87.358855 
C 215.678515 87.358855 216.129386 87.172098 216.461769 86.839716 
C 216.794152 86.507333 216.980909 86.056462 216.980909 85.586401 
C 216.980909 85.116341 216.794152 84.66547 216.461769 84.333087 
C 216.129386 84.000705 215.678515 83.813948 215.208455 83.813948 
C 214.738395 83.813948 214.287524 84.000705 213.955141 84.333087 
C 213.622758 84.66547 213.436001 85.116341 213.436001 85.586401 
C 213.436001 86.056462 213.622758 86.507333 213.955141 86.839716 
C 214.287524 87.172098 214.738395 87.358855 215.208455 87.358855 
z
" clip-path="url(#p7508c10fd6)" style="stroke: #000000; stroke-width: 0.886227"/>
    <path d="M 219.017299 94.583408 
C 219.487359 94.583408 219.93823 94.396652 220.270613 94.064269 
C 220.602996 93.731886 220.789752 93.281015 220.789752 92.810955 
C 220.789752 92.340894 220.602996 91.890023 220.270613 91.55764 
C 219.93823 91.225258 219.487359 91.038501 219.017299 91.038501 
C 218.547238 91.038501 218.096367 91.225258 217.763984 91.55764 
C 217.431602 91.890023 217.244845 92.340894 217.244845 92.810955 
C 217.244845 93.281015 217.431602 93.731886 217.763984 94.064269 
C 218.096367 94.396652 218.547238 94.583408 219.017299 94.583408 
z
" clip-path="url(#p7508c10fd6)" style="stroke: #000000; stroke-width: 0.886227"/>
    <path d="M 222.826142 109.032515 
C 223.296202 109.032515 223.747073 108.845758 224.079456 108.513375 
C 224.411839 108.180992 224.598596 107.730121 224.598596 107.260061 
C 224.598596 106.790001 224.411839 106.33913 224.079456 106.006747 
C 223.747073 105.674364 223.296202 105.487607 222.826142 105.487607 
C 222.356082 105.487607 221.905211 105.674364 221.572828 106.006747 
C 221.240445 106.33913 221.053688 106.790001 221.053688 107.260061 
C 221.053688 107.730121 221.240445 108.180992 221.572828 108.513375 
C 221.905211 108.845758 222.356082 109.032515 222.826142 109.032515 
z
" clip-path="url(#p7508c10fd6)" style="stroke: #000000; stroke-width: 0.886227"/>
    <path d="M 226.634986 166.82894 
C 227.105046 166.82894 227.555917 166.642183 227.8883 166.3098 
C 228.220683 165.977417 228.40744 165.526546 228.40744 165.056486 
C 228.40744 164.586426 228.220683 164.135555 227.8883 163.803172 
C 227.555917 163.470789 227.105046 163.284032 226.634986 163.284032 
C 226.164925 163.284032 225.714054 163.470789 225.381672 163.803172 
C 225.049289 164.135555 224.862532 164.586426 224.862532 165.056486 
C 224.862532 165.526546 225.049289 165.977417 225.381672 166.3098 
C 225.714054 166.642183 226.164925 166.82894 226.634986 166.82894 
z
" clip-path="url(#p7508c10fd6)" style="stroke: #000000; stroke-width: 0.886227"/>
    <path d="M 230.443829 195.727152 
C 230.913889 195.727152 231.364761 195.540395 231.697143 195.208013 
C 232.029526 194.87563 232.216283 194.424759 232.216283 193.954698 
C 232.216283 193.484638 232.029526 193.033767 231.697143 192.701384 
C 231.364761 192.369002 230.913889 192.182245 230.443829 192.182245 
C 229.973769 192.182245 229.522898 192.369002 229.190515 192.701384 
C 228.858132 193.033767 228.671375 193.484638 228.671375 193.954698 
C 228.671375 194.424759 228.858132 194.87563 229.190515 195.208013 
C 229.522898 195.540395 229.973769 195.727152 230.443829 195.727152 
z
" clip-path="url(#p7508c10fd6)" style="stroke: #000000; stroke-width: 0.886227"/>
    <path d="M 234.252673 202.951705 
C 234.722733 202.951705 235.173604 202.764949 235.505987 202.432566 
C 235.83837 202.100183 236.025127 201.649312 236.025127 201.179252 
C 236.025127 200.709191 235.83837 200.25832 235.505987 199.925937 
C 235.173604 199.593555 234.722733 199.406798 234.252673 199.406798 
C 233.782613 199.406798 233.331741 199.593555 232.999359 199.925937 
C 232.666976 200.25832 232.480219 200.709191 232.480219 201.179252 
C 232.480219 201.649312 232.666976 202.100183 232.999359 202.432566 
C 233.331741 202.764949 233.782613 202.951705 234.252673 202.951705 
z
" clip-path="url(#p7508c10fd6)" style="stroke: #000000; stroke-width: 0.886227"/>
    <path d="M 238.061516 239.074471 
C 238.531577 239.074471 238.982448 238.887714 239.31483 238.555331 
C 239.647213 238.222949 239.83397 237.772078 239.83397 237.302017 
C 239.83397 236.831957 239.647213 236.381086 239.31483 236.048703 
C 238.982448 235.71632 238.531577 235.529563 238.061516 235.529563 
C 237.591456 235.529563 237.140585 235.71632 236.808202 236.048703 
C 236.475819 236.381086 236.289062 236.831957 236.289062 237.302017 
C 236.289062 237.772078 236.475819 238.222949 236.808202 238.555331 
C 237.140585 238.887714 237.591456 239.074471 238.061516 239.074471 
z
" clip-path="url(#p7508c10fd6)" style="stroke: #000000; stroke-width: 0.886227"/>
    <path d="M 241.87036 246.299024 
C 242.34042 246.299024 242.791291 246.112267 243.123674 245.779885 
C 243.456057 245.447502 243.642814 244.996631 243.642814 244.52657 
C 243.642814 244.05651 243.456057 243.605639 243.123674 243.273256 
C 242.791291 242.940873 242.34042 242.754117 241.87036 242.754117 
C 241.4003 242.754117 240.949429 242.940873 240.617046 243.273256 
C 240.284663 243.605639 240.097906 244.05651 240.097906 244.52657 
C 240.097906 244.996631 240.284663 245.447502 240.617046 245.779885 
C 240.949429 246.112267 241.4003 246.299024 241.87036 246.299024 
z
" clip-path="url(#p7508c10fd6)" style="stroke: #000000; stroke-width: 0.886227"/>
    <path d="M 245.679203 267.972684 
C 246.149264 267.972684 246.600135 267.785927 246.932518 267.453544 
C 247.2649 267.121161 247.451657 266.67029 247.451657 266.20023 
C 247.451657 265.73017 247.2649 265.279298 246.932518 264.946916 
C 246.600135 264.614533 246.149264 264.427776 245.679203 264.427776 
C 245.209143 264.427776 244.758272 264.614533 244.425889 264.946916 
C 244.093506 265.279298 243.90675 265.73017 243.90675 266.20023 
C 243.90675 266.67029 244.093506 267.121161 244.425889 267.453544 
C 244.758272 267.785927 245.209143 267.972684 245.679203 267.972684 
z
" clip-path="url(#p7508c10fd6)" style="stroke: #000000; stroke-width: 0.886227"/>
    <path d="M 249.488047 210.176259 
C 249.958107 210.176259 250.408978 209.989502 250.741361 209.657119 
C 251.073744 209.324736 251.260501 208.873865 251.260501 208.403805 
C 251.260501 207.933744 251.073744 207.482873 250.741361 207.150491 
C 250.408978 206.818108 249.958107 206.631351 249.488047 206.631351 
C 249.017987 206.631351 248.567116 206.818108 248.234733 207.150491 
C 247.90235 207.482873 247.715593 207.933744 247.715593 208.403805 
C 247.715593 208.873865 247.90235 209.324736 248.234733 209.657119 
C 248.567116 209.989502 249.017987 210.176259 249.488047 210.176259 
z
" clip-path="url(#p7508c10fd6)" style="stroke: #000000; stroke-width: 0.886227"/>
    <path d="M 253.296891 289.646343 
C 253.766951 289.646343 254.217822 289.459586 254.550205 289.127203 
C 254.882587 288.794821 255.069344 288.343949 255.069344 287.873889 
C 255.069344 287.403829 254.882587 286.952958 254.550205 286.620575 
C 254.217822 286.288192 253.766951 286.101435 253.296891 286.101435 
C 252.82683 286.101435 252.375959 286.288192 252.043576 286.620575 
C 251.711194 286.952958 251.524437 287.403829 251.524437 287.873889 
C 251.524437 288.343949 251.711194 288.794821 252.043576 289.127203 
C 252.375959 289.459586 252.82683 289.646343 253.296891 289.646343 
z
" clip-path="url(#p7508c10fd6)" style="stroke: #000000; stroke-width: 0.886227"/>
    <path d="M 257.105734 267.972684 
C 257.575794 267.972684 258.026665 267.785927 258.359048 267.453544 
C 258.691431 267.121161 258.878188 266.67029 258.878188 266.20023 
C 258.878188 265.73017 258.691431 265.279298 258.359048 264.946916 
C 258.026665 264.614533 257.575794 264.427776 257.105734 264.427776 
C 256.635674 264.427776 256.184803 264.614533 255.85242 264.946916 
C 255.520037 265.279298 255.33328 265.73017 255.33328 266.20023 
C 255.33328 266.67029 255.520037 267.121161 255.85242 267.453544 
C 256.184803 267.785927 256.635674 267.972684 257.105734 267.972684 
z
" clip-path="url(#p7508c10fd6)" style="stroke: #000000; stroke-width: 0.886227"/>
    <path d="M 260.914578 231.849918 
C 261.384638 231.849918 261.835509 231.663161 262.167892 231.330778 
C 262.500275 230.998395 262.687031 230.547524 262.687031 230.077464 
C 262.687031 229.607404 262.500275 229.156533 262.167892 228.82415 
C 261.835509 228.491767 261.384638 228.30501 260.914578 228.30501 
C 260.444517 228.30501 259.993646 228.491767 259.661263 228.82415 
C 259.328881 229.156533 259.142124 229.607404 259.142124 230.077464 
C 259.142124 230.547524 259.328881 230.998395 259.661263 231.330778 
C 259.993646 231.663161 260.444517 231.849918 260.914578 231.849918 
z
" clip-path="url(#p7508c10fd6)" style="stroke: #000000; stroke-width: 0.886227"/>
    <path d="M 264.723421 202.951705 
C 265.193481 202.951705 265.644353 202.764949 265.976735 202.432566 
C 266.309118 202.100183 266.495875 201.649312 266.495875 201.179252 
C 266.495875 200.709191 266.309118 200.25832 265.976735 199.925937 
C 265.644353 199.593555 265.193481 199.406798 264.723421 199.406798 
C 264.253361 199.406798 263.80249 199.593555 263.470107 199.925937 
C 263.137724 200.25832 262.950967 200.709191 262.950967 201.179252 
C 262.950967 201.649312 263.137724 202.100183 263.470107 202.432566 
C 263.80249 202.764949 264.253361 202.951705 264.723421 202.951705 
z
" clip-path="url(#p7508c10fd6)" style="stroke: #000000; stroke-width: 0.886227"/>
    <path d="M 268.532265 101.807962 
C 269.002325 101.807962 269.453196 101.621205 269.785579 101.288822 
C 270.117962 100.956439 270.304719 100.505568 270.304719 100.035508 
C 270.304719 99.565447 270.117962 99.114576 269.785579 98.782194 
C 269.453196 98.449811 269.002325 98.263054 268.532265 98.263054 
C 268.062204 98.263054 267.611333 98.449811 267.278951 98.782194 
C 266.946568 99.114576 266.759811 99.565447 266.759811 100.035508 
C 266.759811 100.505568 266.946568 100.956439 267.278951 101.288822 
C 267.611333 101.621205 268.062204 101.807962 268.532265 101.807962 
z
" clip-path="url(#p7508c10fd6)" style="stroke: #000000; stroke-width: 0.886227"/>
    <path d="M 272.341108 109.032515 
C 272.811169 109.032515 273.26204 108.845758 273.594422 108.513375 
C 273.926805 108.180992 274.113562 107.730121 274.113562 107.260061 
C 274.113562 106.790001 273.926805 106.33913 273.594422 106.006747 
C 273.26204 105.674364 272.811169 105.487607 272.341108 105.487607 
C 271.871048 105.487607 271.420177 105.674364 271.087794 106.006747 
C 270.755411 106.33913 270.568654 106.790001 270.568654 107.260061 
C 270.568654 107.730121 270.755411 108.180992 271.087794 108.513375 
C 271.420177 108.845758 271.871048 109.032515 272.341108 109.032515 
z
" clip-path="url(#p7508c10fd6)" style="stroke: #000000; stroke-width: 0.886227"/>
    <path d="M 276.149952 87.358855 
C 276.620012 87.358855 277.070883 87.172098 277.403266 86.839716 
C 277.735649 86.507333 277.922406 86.056462 277.922406 85.586401 
C 277.922406 85.116341 277.735649 84.66547 277.403266 84.333087 
C 277.070883 84.000705 276.620012 83.813948 276.149952 83.813948 
C 275.679892 83.813948 275.22902 84.000705 274.896638 84.333087 
C 274.564255 84.66547 274.377498 85.116341 274.377498 85.586401 
C 274.377498 86.056462 274.564255 86.507333 274.896638 86.839716 
C 275.22902 87.172098 275.679892 87.358855 276.149952 87.358855 
z
" clip-path="url(#p7508c10fd6)" style="stroke: #000000; stroke-width: 0.886227"/>
    <path d="M 279.958795 123.481621 
C 280.428856 123.481621 280.879727 123.294864 281.21211 122.962481 
C 281.544492 122.630098 281.731249 122.179227 281.731249 121.709167 
C 281.731249 121.239107 281.544492 120.788236 281.21211 120.455853 
C 280.879727 120.12347 280.428856 119.936713 279.958795 119.936713 
C 279.488735 119.936713 279.037864 120.12347 278.705481 120.455853 
C 278.373098 120.788236 278.186342 121.239107 278.186342 121.709167 
C 278.186342 122.179227 278.373098 122.630098 278.705481 122.962481 
C 279.037864 123.294864 279.488735 123.481621 279.958795 123.481621 
z
" clip-path="url(#p7508c10fd6)" style="stroke: #000000; stroke-width: 0.886227"/>
    <path d="M 283.767639 22.337877 
C 284.237699 22.337877 284.68857 22.15112 285.020953 21.818737 
C 285.353336 21.486355 285.540093 21.035484 285.540093 20.565423 
C 285.540093 20.095363 285.353336 19.644492 285.020953 19.312109 
C 284.68857 18.979726 284.237699 18.792969 283.767639 18.792969 
C 283.297579 18.792969 282.846708 18.979726 282.514325 19.312109 
C 282.181942 19.644492 281.995185 20.095363 281.995185 20.565423 
C 281.995185 21.035484 282.181942 21.486355 282.514325 21.818737 
C 282.846708 22.15112 283.297579 22.337877 283.767639 22.337877 
z
" clip-path="url(#p7508c10fd6)" style="stroke: #000000; stroke-width: 0.886227"/>
    <path d="M 287.576482 65.685196 
C 288.046543 65.685196 288.497414 65.498439 288.829797 65.166056 
C 289.162179 64.833673 289.348936 64.382802 289.348936 63.912742 
C 289.348936 63.442682 289.162179 62.991811 288.829797 62.659428 
C 288.497414 62.327045 288.046543 62.140288 287.576482 62.140288 
C 287.106422 62.140288 286.655551 62.327045 286.323168 62.659428 
C 285.990786 62.991811 285.804029 63.442682 285.804029 63.912742 
C 285.804029 64.382802 285.990786 64.833673 286.323168 65.166056 
C 286.655551 65.498439 287.106422 65.685196 287.576482 65.685196 
z
" clip-path="url(#p7508c10fd6)" style="stroke: #000000; stroke-width: 0.886227"/>
    <path d="M 291.385326 72.909749 
C 291.855386 72.909749 292.306257 72.722992 292.63864 72.390609 
C 292.971023 72.058227 293.15778 71.607355 293.15778 71.137295 
C 293.15778 70.667235 292.971023 70.216364 292.63864 69.883981 
C 292.306257 69.551598 291.855386 69.364841 291.385326 69.364841 
C 290.915266 69.364841 290.464395 69.551598 290.132012 69.883981 
C 289.799629 70.216364 289.612872 70.667235 289.612872 71.137295 
C 289.612872 71.607355 289.799629 72.058227 290.132012 72.390609 
C 290.464395 72.722992 290.915266 72.909749 291.385326 72.909749 
z
" clip-path="url(#p7508c10fd6)" style="stroke: #000000; stroke-width: 0.886227"/>
    <path d="M 295.19417 152.379834 
C 295.66423 152.379834 296.115101 152.193077 296.447484 151.860694 
C 296.779866 151.528311 296.966623 151.07744 296.966623 150.60738 
C 296.966623 150.137319 296.779866 149.686448 296.447484 149.354066 
C 296.115101 149.021683 295.66423 148.834926 295.19417 148.834926 
C 294.724109 148.834926 294.273238 149.021683 293.940855 149.354066 
C 293.608473 149.686448 293.421716 150.137319 293.421716 150.60738 
C 293.421716 151.07744 293.608473 151.528311 293.940855 151.860694 
C 294.273238 152.193077 294.724109 152.379834 295.19417 152.379834 
z
" clip-path="url(#p7508c10fd6)" style="stroke: #000000; stroke-width: 0.886227"/>
    <path d="M 299.003013 174.053493 
C 299.473073 174.053493 299.923944 173.866736 300.256327 173.534353 
C 300.58871 173.20197 300.775467 172.751099 300.775467 172.281039 
C 300.775467 171.810979 300.58871 171.360108 300.256327 171.027725 
C 299.923944 170.695342 299.473073 170.508585 299.003013 170.508585 
C 298.532953 170.508585 298.082082 170.695342 297.749699 171.027725 
C 297.417316 171.360108 297.230559 171.810979 297.230559 172.281039 
C 297.230559 172.751099 297.417316 173.20197 297.749699 173.534353 
C 298.082082 173.866736 298.532953 174.053493 299.003013 174.053493 
z
" clip-path="url(#p7508c10fd6)" style="stroke: #000000; stroke-width: 0.886227"/>
    <path d="M 302.811857 188.502599 
C 303.281917 188.502599 303.732788 188.315842 304.065171 187.983459 
C 304.397554 187.651077 304.584311 187.200206 304.584311 186.730145 
C 304.584311 186.260085 304.397554 185.809214 304.065171 185.476831 
C 303.732788 185.144448 303.281917 184.957691 302.811857 184.957691 
C 302.341796 184.957691 301.890925 185.144448 301.558543 185.476831 
C 301.22616 185.809214 301.039403 186.260085 301.039403 186.730145 
C 301.039403 187.200206 301.22616 187.651077 301.558543 187.983459 
C 301.890925 188.315842 302.341796 188.502599 302.811857 188.502599 
z
" clip-path="url(#p7508c10fd6)" style="stroke: #000000; stroke-width: 0.886227"/>
    <path d="M 306.6207 224.625365 
C 307.09076 224.625365 307.541632 224.438608 307.874014 224.106225 
C 308.206397 223.773842 308.393154 223.322971 308.393154 222.852911 
C 308.393154 222.382851 308.206397 221.93198 307.874014 221.599597 
C 307.541632 221.267214 307.09076 221.080457 306.6207 221.080457 
C 306.15064 221.080457 305.699769 221.267214 305.367386 221.599597 
C 305.035003 221.93198 304.848246 222.382851 304.848246 222.852911 
C 304.848246 223.322971 305.035003 223.773842 305.367386 224.106225 
C 305.699769 224.438608 306.15064 224.625365 306.6207 224.625365 
z
" clip-path="url(#p7508c10fd6)" style="stroke: #000000; stroke-width: 0.886227"/>
    <path d="M 310.429544 166.82894 
C 310.899604 166.82894 311.350475 166.642183 311.682858 166.3098 
C 312.015241 165.977417 312.201998 165.526546 312.201998 165.056486 
C 312.201998 164.586426 312.015241 164.135555 311.682858 163.803172 
C 311.350475 163.470789 310.899604 163.284032 310.429544 163.284032 
C 309.959484 163.284032 309.508612 163.470789 309.17623 163.803172 
C 308.843847 164.135555 308.65709 164.586426 308.65709 165.056486 
C 308.65709 165.526546 308.843847 165.977417 309.17623 166.3098 
C 309.508612 166.642183 309.959484 166.82894 310.429544 166.82894 
z
" clip-path="url(#p7508c10fd6)" style="stroke: #000000; stroke-width: 0.886227"/>
    <path d="M 314.238387 152.379834 
C 314.708448 152.379834 315.159319 152.193077 315.491701 151.860694 
C 315.824084 151.528311 316.010841 151.07744 316.010841 150.60738 
C 316.010841 150.137319 315.824084 149.686448 315.491701 149.354066 
C 315.159319 149.021683 314.708448 148.834926 314.238387 148.834926 
C 313.768327 148.834926 313.317456 149.021683 312.985073 149.354066 
C 312.65269 149.686448 312.465933 150.137319 312.465933 150.60738 
C 312.465933 151.07744 312.65269 151.528311 312.985073 151.860694 
C 313.317456 152.193077 313.768327 152.379834 314.238387 152.379834 
z
" clip-path="url(#p7508c10fd6)" style="stroke: #000000; stroke-width: 0.886227"/>
    <path d="M 318.047231 217.400812 
C 318.517291 217.400812 318.968162 217.214055 319.300545 216.881672 
C 319.632928 216.549289 319.819685 216.098418 319.819685 215.628358 
C 319.819685 215.158298 319.632928 214.707427 319.300545 214.375044 
C 318.968162 214.042661 318.517291 213.855904 318.047231 213.855904 
C 317.577171 213.855904 317.1263 214.042661 316.793917 214.375044 
C 316.461534 214.707427 316.274777 215.158298 316.274777 215.628358 
C 316.274777 216.098418 316.461534 216.549289 316.793917 216.881672 
C 317.1263 217.214055 317.577171 217.400812 318.047231 217.400812 
z
" clip-path="url(#p7508c10fd6)" style="stroke: #000000; stroke-width: 0.886227"/>
    <path d="M 321.856074 137.930727 
C 322.326135 137.930727 322.777006 137.74397 323.109389 137.411588 
C 323.441771 137.079205 323.628528 136.628334 323.628528 136.158273 
C 323.628528 135.688213 323.441771 135.237342 323.109389 134.904959 
C 322.777006 134.572576 322.326135 134.38582 321.856074 134.38582 
C 321.386014 134.38582 320.935143 134.572576 320.60276 134.904959 
C 320.270377 135.237342 320.083621 135.688213 320.083621 136.158273 
C 320.083621 136.628334 320.270377 137.079205 320.60276 137.411588 
C 320.935143 137.74397 321.386014 137.930727 321.856074 137.930727 
z
" clip-path="url(#p7508c10fd6)" style="stroke: #000000; stroke-width: 0.886227"/>
    <path d="M 325.664918 181.278046 
C 326.134978 181.278046 326.585849 181.091289 326.918232 180.758906 
C 327.250615 180.426524 327.437372 179.975652 327.437372 179.505592 
C 327.437372 179.035532 327.250615 178.584661 326.918232 178.252278 
C 326.585849 177.919895 326.134978 177.733138 325.664918 177.733138 
C 325.194858 177.733138 324.743987 177.919895 324.411604 178.252278 
C 324.079221 178.584661 323.892464 179.035532 323.892464 179.505592 
C 323.892464 179.975652 324.079221 180.426524 324.411604 180.758906 
C 324.743987 181.091289 325.194858 181.278046 325.664918 181.278046 
z
" clip-path="url(#p7508c10fd6)" style="stroke: #000000; stroke-width: 0.886227"/>
    <path d="M 329.473762 188.502599 
C 329.943822 188.502599 330.394693 188.315842 330.727076 187.983459 
C 331.059458 187.651077 331.246215 187.200206 331.246215 186.730145 
C 331.246215 186.260085 331.059458 185.809214 330.727076 185.476831 
C 330.394693 185.144448 329.943822 184.957691 329.473762 184.957691 
C 329.003701 184.957691 328.55283 185.144448 328.220447 185.476831 
C 327.888065 185.809214 327.701308 186.260085 327.701308 186.730145 
C 327.701308 187.200206 327.888065 187.651077 328.220447 187.983459 
C 328.55283 188.315842 329.003701 188.502599 329.473762 188.502599 
z
" clip-path="url(#p7508c10fd6)" style="stroke: #000000; stroke-width: 0.886227"/>
    <path d="M 333.282605 94.583408 
C 333.752665 94.583408 334.203536 94.396652 334.535919 94.064269 
C 334.868302 93.731886 335.055059 93.281015 335.055059 92.810955 
C 335.055059 92.340894 334.868302 91.890023 334.535919 91.55764 
C 334.203536 91.225258 333.752665 91.038501 333.282605 91.038501 
C 332.812545 91.038501 332.361674 91.225258 332.029291 91.55764 
C 331.696908 91.890023 331.510151 92.340894 331.510151 92.810955 
C 331.510151 93.281015 331.696908 93.731886 332.029291 94.064269 
C 332.361674 94.396652 332.812545 94.583408 333.282605 94.583408 
z
" clip-path="url(#p7508c10fd6)" style="stroke: #000000; stroke-width: 0.886227"/>
    <path d="M 337.091449 72.909749 
C 337.561509 72.909749 338.01238 72.722992 338.344763 72.390609 
C 338.677146 72.058227 338.863902 71.607355 338.863902 71.137295 
C 338.863902 70.667235 338.677146 70.216364 338.344763 69.883981 
C 338.01238 69.551598 337.561509 69.364841 337.091449 69.364841 
C 336.621388 69.364841 336.170517 69.551598 335.838134 69.883981 
C 335.505752 70.216364 335.318995 70.667235 335.318995 71.137295 
C 335.318995 71.607355 335.505752 72.058227 335.838134 72.390609 
C 336.170517 72.722992 336.621388 72.909749 337.091449 72.909749 
z
" clip-path="url(#p7508c10fd6)" style="stroke: #000000; stroke-width: 0.886227"/>
    <path d="M 340.900292 152.379834 
C 341.370352 152.379834 341.821223 152.193077 342.153606 151.860694 
C 342.485989 151.528311 342.672746 151.07744 342.672746 150.60738 
C 342.672746 150.137319 342.485989 149.686448 342.153606 149.354066 
C 341.821223 149.021683 341.370352 148.834926 340.900292 148.834926 
C 340.430232 148.834926 339.979361 149.021683 339.646978 149.354066 
C 339.314595 149.686448 339.127838 150.137319 339.127838 150.60738 
C 339.127838 151.07744 339.314595 151.528311 339.646978 151.860694 
C 339.979361 152.193077 340.430232 152.379834 340.900292 152.379834 
z
" clip-path="url(#p7508c10fd6)" style="stroke: #000000; stroke-width: 0.886227"/>
    <path d="M 344.709136 195.727152 
C 345.179196 195.727152 345.630067 195.540395 345.96245 195.208013 
C 346.294833 194.87563 346.48159 194.424759 346.48159 193.954698 
C 346.48159 193.484638 346.294833 193.033767 345.96245 192.701384 
C 345.630067 192.369002 345.179196 192.182245 344.709136 192.182245 
C 344.239075 192.182245 343.788204 192.369002 343.455822 192.701384 
C 343.123439 193.033767 342.936682 193.484638 342.936682 193.954698 
C 342.936682 194.424759 343.123439 194.87563 343.455822 195.208013 
C 343.788204 195.540395 344.239075 195.727152 344.709136 195.727152 
z
" clip-path="url(#p7508c10fd6)" style="stroke: #000000; stroke-width: 0.886227"/>
    <path d="M 348.517979 202.951705 
C 348.98804 202.951705 349.438911 202.764949 349.771293 202.432566 
C 350.103676 202.100183 350.290433 201.649312 350.290433 201.179252 
C 350.290433 200.709191 350.103676 200.25832 349.771293 199.925937 
C 349.438911 199.593555 348.98804 199.406798 348.517979 199.406798 
C 348.047919 199.406798 347.597048 199.593555 347.264665 199.925937 
C 346.932282 200.25832 346.745525 200.709191 346.745525 201.179252 
C 346.745525 201.649312 346.932282 202.100183 347.264665 202.432566 
C 347.597048 202.764949 348.047919 202.951705 348.517979 202.951705 
z
" clip-path="url(#p7508c10fd6)" style="stroke: #000000; stroke-width: 0.886227"/>
    <path d="M 352.326823 116.257068 
C 352.796883 116.257068 353.247754 116.070311 353.580137 115.737928 
C 353.91252 115.405545 354.099277 114.954674 354.099277 114.484614 
C 354.099277 114.014554 353.91252 113.563683 353.580137 113.2313 
C 353.247754 112.898917 352.796883 112.71216 352.326823 112.71216 
C 351.856763 112.71216 351.405891 112.898917 351.073509 113.2313 
C 350.741126 113.563683 350.554369 114.014554 350.554369 114.484614 
C 350.554369 114.954674 350.741126 115.405545 351.073509 115.737928 
C 351.405891 116.070311 351.856763 116.257068 352.326823 116.257068 
z
" clip-path="url(#p7508c10fd6)" style="stroke: #000000; stroke-width: 0.886227"/>
    <path d="M 356.135666 36.786983 
C 356.605727 36.786983 357.056598 36.600226 357.38898 36.267844 
C 357.721363 35.935461 357.90812 35.48459 357.90812 35.01453 
C 357.90812 34.544469 357.721363 34.093598 357.38898 33.761215 
C 357.056598 33.428833 356.605727 33.242076 356.135666 33.242076 
C 355.665606 33.242076 355.214735 33.428833 354.882352 33.761215 
C 354.549969 34.093598 354.363213 34.544469 354.363213 35.01453 
C 354.363213 35.48459 354.549969 35.935461 354.882352 36.267844 
C 355.214735 36.600226 355.665606 36.786983 356.135666 36.786983 
z
" clip-path="url(#p7508c10fd6)" style="stroke: #000000; stroke-width: 0.886227"/>
    <path d="M 359.94451 58.460643 
C 360.41457 58.460643 360.865441 58.273886 361.197824 57.941503 
C 361.530207 57.60912 361.716964 57.158249 361.716964 56.688189 
C 361.716964 56.218129 361.530207 55.767258 361.197824 55.434875 
C 360.865441 55.102492 360.41457 54.915735 359.94451 54.915735 
C 359.47445 54.915735 359.023579 55.102492 358.691196 55.434875 
C 358.358813 55.767258 358.172056 56.218129 358.172056 56.688189 
C 358.172056 57.158249 358.358813 57.60912 358.691196 57.941503 
C 359.023579 58.273886 359.47445 58.460643 359.94451 58.460643 
z
" clip-path="url(#p7508c10fd6)" style="stroke: #000000; stroke-width: 0.886227"/>
    <path d="M 363.753353 116.257068 
C 364.223414 116.257068 364.674285 116.070311 365.006668 115.737928 
C 365.33905 115.405545 365.525807 114.954674 365.525807 114.484614 
C 365.525807 114.014554 365.33905 113.563683 365.006668 113.2313 
C 364.674285 112.898917 364.223414 112.71216 363.753353 112.71216 
C 363.283293 112.71216 362.832422 112.898917 362.500039 113.2313 
C 362.167657 113.563683 361.9809 114.014554 361.9809 114.484614 
C 361.9809 114.954674 362.167657 115.405545 362.500039 115.737928 
C 362.832422 116.070311 363.283293 116.257068 363.753353 116.257068 
z
" clip-path="url(#p7508c10fd6)" style="stroke: #000000; stroke-width: 0.886227"/>
    <path d="M 367.562197 101.807962 
C 368.032257 101.807962 368.483128 101.621205 368.815511 101.288822 
C 369.147894 100.956439 369.334651 100.505568 369.334651 100.035508 
C 369.334651 99.565447 369.147894 99.114576 368.815511 98.782194 
C 368.483128 98.449811 368.032257 98.263054 367.562197 98.263054 
C 367.092137 98.263054 366.641266 98.449811 366.308883 98.782194 
C 365.9765 99.114576 365.789743 99.565447 365.789743 100.035508 
C 365.789743 100.505568 365.9765 100.956439 366.308883 101.288822 
C 366.641266 101.621205 367.092137 101.807962 367.562197 101.807962 
z
" clip-path="url(#p7508c10fd6)" style="stroke: #000000; stroke-width: 0.886227"/>
    <path d="M 371.371041 145.15528 
C 371.841101 145.15528 372.291972 144.968523 372.624355 144.636141 
C 372.956737 144.303758 373.143494 143.852887 373.143494 143.382827 
C 373.143494 142.912766 372.956737 142.461895 372.624355 142.129512 
C 372.291972 141.79713 371.841101 141.610373 371.371041 141.610373 
C 370.90098 141.610373 370.450109 141.79713 370.117726 142.129512 
C 369.785344 142.461895 369.598587 142.912766 369.598587 143.382827 
C 369.598587 143.852887 369.785344 144.303758 370.117726 144.636141 
C 370.450109 144.968523 370.90098 145.15528 371.371041 145.15528 
z
" clip-path="url(#p7508c10fd6)" style="stroke: #000000; stroke-width: 0.886227"/>
    <path d="M 375.179884 152.379834 
C 375.649944 152.379834 376.100815 152.193077 376.433198 151.860694 
C 376.765581 151.528311 376.952338 151.07744 376.952338 150.60738 
C 376.952338 150.137319 376.765581 149.686448 376.433198 149.354066 
C 376.100815 149.021683 375.649944 148.834926 375.179884 148.834926 
C 374.709824 148.834926 374.258953 149.021683 373.92657 149.354066 
C 373.594187 149.686448 373.40743 150.137319 373.40743 150.60738 
C 373.40743 151.07744 373.594187 151.528311 373.92657 151.860694 
C 374.258953 152.193077 374.709824 152.379834 375.179884 152.379834 
z
" clip-path="url(#p7508c10fd6)" style="stroke: #000000; stroke-width: 0.886227"/>
    <path d="M 378.988728 166.82894 
C 379.458788 166.82894 379.909659 166.642183 380.242042 166.3098 
C 380.574425 165.977417 380.761181 165.526546 380.761181 165.056486 
C 380.761181 164.586426 380.574425 164.135555 380.242042 163.803172 
C 379.909659 163.470789 379.458788 163.284032 378.988728 163.284032 
C 378.518667 163.284032 378.067796 163.470789 377.735414 163.803172 
C 377.403031 164.135555 377.216274 164.586426 377.216274 165.056486 
C 377.216274 165.526546 377.403031 165.977417 377.735414 166.3098 
C 378.067796 166.642183 378.518667 166.82894 378.988728 166.82894 
z
" clip-path="url(#p7508c10fd6)" style="stroke: #000000; stroke-width: 0.886227"/>
    <path d="M 382.797571 195.727152 
C 383.267631 195.727152 383.718503 195.540395 384.050885 195.208013 
C 384.383268 194.87563 384.570025 194.424759 384.570025 193.954698 
C 384.570025 193.484638 384.383268 193.033767 384.050885 192.701384 
C 383.718503 192.369002 383.267631 192.182245 382.797571 192.182245 
C 382.327511 192.182245 381.87664 192.369002 381.544257 192.701384 
C 381.211874 193.033767 381.025117 193.484638 381.025117 193.954698 
C 381.025117 194.424759 381.211874 194.87563 381.544257 195.208013 
C 381.87664 195.540395 382.327511 195.727152 382.797571 195.727152 
z
" clip-path="url(#p7508c10fd6)" style="stroke: #000000; stroke-width: 0.886227"/>
    <path d="M 386.606415 202.951705 
C 387.076475 202.951705 387.527346 202.764949 387.859729 202.432566 
C 388.192112 202.100183 388.378869 201.649312 388.378869 201.179252 
C 388.378869 200.709191 388.192112 200.25832 387.859729 199.925937 
C 387.527346 199.593555 387.076475 199.406798 386.606415 199.406798 
C 386.136354 199.406798 385.685483 199.593555 385.353101 199.925937 
C 385.020718 200.25832 384.833961 200.709191 384.833961 201.179252 
C 384.833961 201.649312 385.020718 202.100183 385.353101 202.432566 
C 385.685483 202.764949 386.136354 202.951705 386.606415 202.951705 
z
" clip-path="url(#p7508c10fd6)" style="stroke: #000000; stroke-width: 0.886227"/>
    <path d="M 390.415258 239.074471 
C 390.885319 239.074471 391.33619 238.887714 391.668572 238.555331 
C 392.000955 238.222949 392.187712 237.772078 392.187712 237.302017 
C 392.187712 236.831957 392.000955 236.381086 391.668572 236.048703 
C 391.33619 235.71632 390.885319 235.529563 390.415258 235.529563 
C 389.945198 235.529563 389.494327 235.71632 389.161944 236.048703 
C 388.829561 236.381086 388.642804 236.831957 388.642804 237.302017 
C 388.642804 237.772078 388.829561 238.222949 389.161944 238.555331 
C 389.494327 238.887714 389.945198 239.074471 390.415258 239.074471 
z
" clip-path="url(#p7508c10fd6)" style="stroke: #000000; stroke-width: 0.886227"/>
    <path d="M 394.224102 181.278046 
C 394.694162 181.278046 395.145033 181.091289 395.477416 180.758906 
C 395.809799 180.426524 395.996556 179.975652 395.996556 179.505592 
C 395.996556 179.035532 395.809799 178.584661 395.477416 178.252278 
C 395.145033 177.919895 394.694162 177.733138 394.224102 177.733138 
C 393.754042 177.733138 393.30317 177.919895 392.970788 178.252278 
C 392.638405 178.584661 392.451648 179.035532 392.451648 179.505592 
C 392.451648 179.975652 392.638405 180.426524 392.970788 180.758906 
C 393.30317 181.091289 393.754042 181.278046 394.224102 181.278046 
z
" clip-path="url(#p7508c10fd6)" style="stroke: #000000; stroke-width: 0.886227"/>
    <path d="M 398.032945 188.502599 
C 398.503006 188.502599 398.953877 188.315842 399.28626 187.983459 
C 399.618642 187.651077 399.805399 187.200206 399.805399 186.730145 
C 399.805399 186.260085 399.618642 185.809214 399.28626 185.476831 
C 398.953877 185.144448 398.503006 184.957691 398.032945 184.957691 
C 397.562885 184.957691 397.112014 185.144448 396.779631 185.476831 
C 396.447248 185.809214 396.260492 186.260085 396.260492 186.730145 
C 396.260492 187.200206 396.447248 187.651077 396.779631 187.983459 
C 397.112014 188.315842 397.562885 188.502599 398.032945 188.502599 
z
" clip-path="url(#p7508c10fd6)" style="stroke: #000000; stroke-width: 0.886227"/>
    <path d="M 401.841789 166.82894 
C 402.311849 166.82894 402.76272 166.642183 403.095103 166.3098 
C 403.427486 165.977417 403.614243 165.526546 403.614243 165.056486 
C 403.614243 164.586426 403.427486 164.135555 403.095103 163.803172 
C 402.76272 163.470789 402.311849 163.284032 401.841789 163.284032 
C 401.371729 163.284032 400.920858 163.470789 400.588475 163.803172 
C 400.256092 164.135555 400.069335 164.586426 400.069335 165.056486 
C 400.069335 165.526546 400.256092 165.977417 400.588475 166.3098 
C 400.920858 166.642183 401.371729 166.82894 401.841789 166.82894 
z
" clip-path="url(#p7508c10fd6)" style="stroke: #000000; stroke-width: 0.886227"/>
    <path d="M 405.650632 246.299024 
C 406.120693 246.299024 406.571564 246.112267 406.903947 245.779885 
C 407.236329 245.447502 407.423086 244.996631 407.423086 244.52657 
C 407.423086 244.05651 407.236329 243.605639 406.903947 243.273256 
C 406.571564 242.940873 406.120693 242.754117 405.650632 242.754117 
C 405.180572 242.754117 404.729701 242.940873 404.397318 243.273256 
C 404.064936 243.605639 403.878179 244.05651 403.878179 244.52657 
C 403.878179 244.996631 404.064936 245.447502 404.397318 245.779885 
C 404.729701 246.112267 405.180572 246.299024 405.650632 246.299024 
z
" clip-path="url(#p7508c10fd6)" style="stroke: #000000; stroke-width: 0.886227"/>
    <path d="M 409.459476 123.481621 
C 409.929536 123.481621 410.380407 123.294864 410.71279 122.962481 
C 411.045173 122.630098 411.23193 122.179227 411.23193 121.709167 
C 411.23193 121.239107 411.045173 120.788236 410.71279 120.455853 
C 410.380407 120.12347 409.929536 119.936713 409.459476 119.936713 
C 408.989416 119.936713 408.538545 120.12347 408.206162 120.455853 
C 407.873779 120.788236 407.687022 121.239107 407.687022 121.709167 
C 407.687022 122.179227 407.873779 122.630098 408.206162 122.962481 
C 408.538545 123.294864 408.989416 123.481621 409.459476 123.481621 
z
" clip-path="url(#p7508c10fd6)" style="stroke: #000000; stroke-width: 0.886227"/>
    <path d="M 413.26832 109.032515 
C 413.73838 109.032515 414.189251 108.845758 414.521634 108.513375 
C 414.854017 108.180992 415.040773 107.730121 415.040773 107.260061 
C 415.040773 106.790001 414.854017 106.33913 414.521634 106.006747 
C 414.189251 105.674364 413.73838 105.487607 413.26832 105.487607 
C 412.798259 105.487607 412.347388 105.674364 412.015005 106.006747 
C 411.682623 106.33913 411.495866 106.790001 411.495866 107.260061 
C 411.495866 107.730121 411.682623 108.180992 412.015005 108.513375 
C 412.347388 108.845758 412.798259 109.032515 413.26832 109.032515 
z
" clip-path="url(#p7508c10fd6)" style="stroke: #000000; stroke-width: 0.886227"/>
    <path d="M 417.077163 101.807962 
C 417.547223 101.807962 417.998094 101.621205 418.330477 101.288822 
C 418.66286 100.956439 418.849617 100.505568 418.849617 100.035508 
C 418.849617 99.565447 418.66286 99.114576 418.330477 98.782194 
C 417.998094 98.449811 417.547223 98.263054 417.077163 98.263054 
C 416.607103 98.263054 416.156232 98.449811 415.823849 98.782194 
C 415.491466 99.114576 415.304709 99.565447 415.304709 100.035508 
C 415.304709 100.505568 415.491466 100.956439 415.823849 101.288822 
C 416.156232 101.621205 416.607103 101.807962 417.077163 101.807962 
z
" clip-path="url(#p7508c10fd6)" style="stroke: #000000; stroke-width: 0.886227"/>
    <path d="M 420.886007 22.337877 
C 421.356067 22.337877 421.806938 22.15112 422.139321 21.818737 
C 422.471704 21.486355 422.658461 21.035484 422.658461 20.565423 
C 422.658461 20.095363 422.471704 19.644492 422.139321 19.312109 
C 421.806938 18.979726 421.356067 18.792969 420.886007 18.792969 
C 420.415946 18.792969 419.965075 18.979726 419.632693 19.312109 
C 419.30031 19.644492 419.113553 20.095363 419.113553 20.565423 
C 419.113553 21.035484 419.30031 21.486355 419.632693 21.818737 
C 419.965075 22.15112 420.415946 22.337877 420.886007 22.337877 
z
" clip-path="url(#p7508c10fd6)" style="stroke: #000000; stroke-width: 0.886227"/>
    <path d="M 424.69485 44.011537 
C 425.16491 44.011537 425.615782 43.82478 425.948164 43.492397 
C 426.280547 43.160014 426.467304 42.709143 426.467304 42.239083 
C 426.467304 41.769022 426.280547 41.318151 425.948164 40.985769 
C 425.615782 40.653386 425.16491 40.466629 424.69485 40.466629 
C 424.22479 40.466629 423.773919 40.653386 423.441536 40.985769 
C 423.109153 41.318151 422.922396 41.769022 422.922396 42.239083 
C 422.922396 42.709143 423.109153 43.160014 423.441536 43.492397 
C 423.773919 43.82478 424.22479 44.011537 424.69485 44.011537 
z
" clip-path="url(#p7508c10fd6)" style="stroke: #000000; stroke-width: 0.886227"/>
    <path d="M 428.503694 87.358855 
C 428.973754 87.358855 429.424625 87.172098 429.757008 86.839716 
C 430.089391 86.507333 430.276148 86.056462 430.276148 85.586401 
C 430.276148 85.116341 430.089391 84.66547 429.757008 84.333087 
C 429.424625 84.000705 428.973754 83.813948 428.503694 83.813948 
C 428.033634 83.813948 427.582762 84.000705 427.25038 84.333087 
C 426.917997 84.66547 426.73124 85.116341 426.73124 85.586401 
C 426.73124 86.056462 426.917997 86.507333 427.25038 86.839716 
C 427.582762 87.172098 428.033634 87.358855 428.503694 87.358855 
z
" clip-path="url(#p7508c10fd6)" style="stroke: #000000; stroke-width: 0.886227"/>
    <path d="M 432.312537 94.583408 
C 432.782598 94.583408 433.233469 94.396652 433.565851 94.064269 
C 433.898234 93.731886 434.084991 93.281015 434.084991 92.810955 
C 434.084991 92.340894 433.898234 91.890023 433.565851 91.55764 
C 433.233469 91.225258 432.782598 91.038501 432.312537 91.038501 
C 431.842477 91.038501 431.391606 91.225258 431.059223 91.55764 
C 430.72684 91.890023 430.540083 92.340894 430.540083 92.810955 
C 430.540083 93.281015 430.72684 93.731886 431.059223 94.064269 
C 431.391606 94.396652 431.842477 94.583408 432.312537 94.583408 
z
" clip-path="url(#p7508c10fd6)" style="stroke: #000000; stroke-width: 0.886227"/>
    <path d="M 436.121381 109.032515 
C 436.591441 109.032515 437.042312 108.845758 437.374695 108.513375 
C 437.707078 108.180992 437.893835 107.730121 437.893835 107.260061 
C 437.893835 106.790001 437.707078 106.33913 437.374695 106.006747 
C 437.042312 105.674364 436.591441 105.487607 436.121381 105.487607 
C 435.651321 105.487607 435.20045 105.674364 434.868067 106.006747 
C 434.535684 106.33913 434.348927 106.790001 434.348927 107.260061 
C 434.348927 107.730121 434.535684 108.180992 434.868067 108.513375 
C 435.20045 108.845758 435.651321 109.032515 436.121381 109.032515 
z
" clip-path="url(#p7508c10fd6)" style="stroke: #000000; stroke-width: 0.886227"/>
    <path d="M 439.930224 166.82894 
C 440.400285 166.82894 440.851156 166.642183 441.183539 166.3098 
C 441.515921 165.977417 441.702678 165.526546 441.702678 165.056486 
C 441.702678 164.586426 441.515921 164.135555 441.183539 163.803172 
C 440.851156 163.470789 440.400285 163.284032 439.930224 163.284032 
C 439.460164 163.284032 439.009293 163.470789 438.67691 163.803172 
C 438.344528 164.135555 438.157771 164.586426 438.157771 165.056486 
C 438.157771 165.526546 438.344528 165.977417 438.67691 166.3098 
C 439.009293 166.642183 439.460164 166.82894 439.930224 166.82894 
z
" clip-path="url(#p7508c10fd6)" style="stroke: #000000; stroke-width: 0.886227"/>
   </g>
   <g id="line2d_27">
    <path d="M 62.854713 287.873889 
L 66.663557 179.505592 
L 70.4724 107.260061 
L 74.281244 92.810955 
L 78.090087 56.688189 
L 81.898931 35.01453 
L 85.707774 20.565423 
L 89.516618 100.035508 
L 93.325461 71.137295 
L 97.134305 143.382827 
L 100.943149 107.260061 
L 104.751992 128.93372 
L 108.560836 143.382827 
L 112.369679 165.056486 
L 116.178523 222.852911 
L 119.987366 186.730145 
L 123.79621 107.260061 
L 127.605053 165.056486 
L 131.413897 193.954698 
L 135.222741 193.954698 
L 139.031584 237.302017 
L 142.840428 215.628358 
L 146.649271 20.565423 
L 150.458115 42.239083 
L 154.266958 100.035508 
L 158.075802 143.382827 
L 161.884645 150.60738 
L 165.693489 165.056486 
L 169.502332 193.954698 
L 173.311176 201.179252 
L 177.12002 237.302017 
L 180.928863 179.505592 
L 184.737707 186.730145 
L 188.54655 165.056486 
L 192.355394 244.52657 
L 196.164237 121.709167 
L 199.973081 107.260061 
L 203.781924 100.035508 
L 207.590768 20.565423 
L 211.399611 42.239083 
L 215.208455 85.586401 
L 219.017299 92.810955 
L 222.826142 107.260061 
L 226.634986 165.056486 
L 230.443829 193.954698 
L 234.252673 201.179252 
L 238.061516 237.302017 
L 241.87036 244.52657 
L 245.679203 266.20023 
L 249.488047 208.403805 
L 253.296891 287.873889 
L 257.105734 266.20023 
L 260.914578 230.077464 
L 264.723421 201.179252 
L 268.532265 100.035508 
L 272.341108 107.260061 
L 276.149952 85.586401 
L 279.958795 121.709167 
L 283.767639 20.565423 
L 287.576482 63.912742 
L 291.385326 71.137295 
L 295.19417 150.60738 
L 299.003013 172.281039 
L 302.811857 186.730145 
L 306.6207 222.852911 
L 310.429544 165.056486 
L 314.238387 150.60738 
L 318.047231 215.628358 
L 321.856074 136.158273 
L 325.664918 179.505592 
L 329.473762 186.730145 
L 333.282605 92.810955 
L 337.091449 71.137295 
L 340.900292 150.60738 
L 344.709136 193.954698 
L 348.517979 201.179252 
L 352.326823 114.484614 
L 356.135666 35.01453 
L 359.94451 56.688189 
L 363.753353 114.484614 
L 367.562197 100.035508 
L 371.371041 143.382827 
L 375.179884 150.60738 
L 378.988728 165.056486 
L 382.797571 193.954698 
L 386.606415 201.179252 
L 390.415258 237.302017 
L 394.224102 179.505592 
L 398.032945 186.730145 
L 401.841789 165.056486 
L 405.650632 244.52657 
L 409.459476 121.709167 
L 413.26832 107.260061 
L 417.077163 100.035508 
L 420.886007 20.565423 
L 424.69485 42.239083 
L 428.503694 85.586401 
L 432.312537 92.810955 
L 436.121381 107.260061 
L 439.930224 165.056486 
" clip-path="url(#p7508c10fd6)" style="fill: none; stroke: #000000; stroke-width: 0.886227"/>
   </g>
  </g>
  <g id="text_10">
   <!-- iteracao -->
   <g transform="translate(228.932703 327.472344) scale(0.11 -0.11)">
    <defs>
     <path id="DejaVuSans-69" d="M 603 3500 
L 1178 3500 
L 1178 0 
L 603 0 
L 603 3500 
z
M 603 4863 
L 1178 4863 
L 1178 4134 
L 603 4134 
L 603 4863 
z
" transform="scale(0.015625)"/>
     <path id="DejaVuSans-74" d="M 1172 4494 
L 1172 3500 
L 2356 3500 
L 2356 3053 
L 1172 3053 
L 1172 1153 
Q 1172 725 1289 603 
Q 1406 481 1766 481 
L 2356 481 
L 2356 0 
L 1766 0 
Q 1100 0 847 248 
Q 594 497 594 1153 
L 594 3053 
L 172 3053 
L 172 3500 
L 594 3500 
L 594 4494 
L 1172 4494 
z
" transform="scale(0.015625)"/>
     <path id="DejaVuSans-65" d="M 3597 1894 
L 3597 1613 
L 953 1613 
Q 991 1019 1311 708 
Q 1631 397 2203 397 
Q 2534 397 2845 478 
Q 3156 559 3463 722 
L 3463 178 
Q 3153 47 2828 -22 
Q 2503 -91 2169 -91 
Q 1331 -91 842 396 
Q 353 884 353 1716 
Q 353 2575 817 3079 
Q 1281 3584 2069 3584 
Q 2775 3584 3186 3129 
Q 3597 2675 3597 1894 
z
M 3022 2063 
Q 3016 2534 2758 2815 
Q 2500 3097 2075 3097 
Q 1594 3097 1305 2825 
Q 1016 2553 972 2059 
L 3022 2063 
z
" transform="scale(0.015625)"/>
     <path id="DejaVuSans-72" d="M 2631 2963 
Q 2534 3019 2420 3045 
Q 2306 3072 2169 3072 
Q 1681 3072 1420 2755 
Q 1159 2438 1159 1844 
L 1159 0 
L 581 0 
L 581 3500 
L 1159 3500 
L 1159 2956 
Q 1341 3275 1631 3429 
Q 1922 3584 2338 3584 
Q 2397 3584 2469 3576 
Q 2541 3569 2628 3553 
L 2631 2963 
z
" transform="scale(0.015625)"/>
     <path id="DejaVuSans-61" d="M 2194 1759 
Q 1497 1759 1228 1600 
Q 959 1441 959 1056 
Q 959 750 1161 570 
Q 1363 391 1709 391 
Q 2188 391 2477 730 
Q 2766 1069 2766 1631 
L 2766 1759 
L 2194 1759 
z
M 3341 1997 
L 3341 0 
L 2766 0 
L 2766 531 
Q 2569 213 2275 61 
Q 1981 -91 1556 -91 
Q 1019 -91 701 211 
Q 384 513 384 1019 
Q 384 1609 779 1909 
Q 1175 2209 1959 2209 
L 2766 2209 
L 2766 2266 
Q 2766 2663 2505 2880 
Q 2244 3097 1772 3097 
Q 1472 3097 1187 3025 
Q 903 2953 641 2809 
L 641 3341 
Q 956 3463 1253 3523 
Q 1550 3584 1831 3584 
Q 2591 3584 2966 3190 
Q 3341 2797 3341 1997 
z
" transform="scale(0.015625)"/>
     <path id="DejaVuSans-63" d="M 3122 3366 
L 3122 2828 
Q 2878 2963 2633 3030 
Q 2388 3097 2138 3097 
Q 1578 3097 1268 2742 
Q 959 2388 959 1747 
Q 959 1106 1268 751 
Q 1578 397 2138 397 
Q 2388 397 2633 464 
Q 2878 531 3122 666 
L 3122 134 
Q 2881 22 2623 -34 
Q 2366 -91 2075 -91 
Q 1284 -91 818 406 
Q 353 903 353 1747 
Q 353 2603 823 3093 
Q 1294 3584 2113 3584 
Q 2378 3584 2631 3529 
Q 2884 3475 3122 3366 
z
" transform="scale(0.015625)"/>
     <path id="DejaVuSans-6f" d="M 1959 3097 
Q 1497 3097 1228 2736 
Q 959 2375 959 1747 
Q 959 1119 1226 758 
Q 1494 397 1959 397 
Q 2419 397 2687 759 
Q 2956 1122 2956 1747 
Q 2956 2369 2687 2733 
Q 2419 3097 1959 3097 
z
M 1959 3584 
Q 2709 3584 3137 3096 
Q 3566 2609 3566 1747 
Q 3566 888 3137 398 
Q 2709 -91 1959 -91 
Q 1206 -91 779 398 
Q 353 888 353 1747 
Q 353 2609 779 3096 
Q 1206 3584 1959 3584 
z
" transform="scale(0.015625)"/>
    </defs>
    <use xlink:href="#DejaVuSans-69"/>
    <use xlink:href="#DejaVuSans-74" x="27.783203"/>
    <use xlink:href="#DejaVuSans-65" x="66.992188"/>
    <use xlink:href="#DejaVuSans-72" x="128.515625"/>
    <use xlink:href="#DejaVuSans-61" x="169.628906"/>
    <use xlink:href="#DejaVuSans-63" x="230.908203"/>
    <use xlink:href="#DejaVuSans-61" x="285.888672"/>
    <use xlink:href="#DejaVuSans-6f" x="347.167969"/>
   </g>
  </g>
  <g id="text_11">
   <!-- aptidao -->
   <g transform="translate(15.558281 174.993328) rotate(-90) scale(0.11 -0.11)">
    <defs>
     <path id="DejaVuSans-70" d="M 1159 525 
L 1159 -1331 
L 581 -1331 
L 581 3500 
L 1159 3500 
L 1159 2969 
Q 1341 3281 1617 3432 
Q 1894 3584 2278 3584 
Q 2916 3584 3314 3078 
Q 3713 2572 3713 1747 
Q 3713 922 3314 415 
Q 2916 -91 2278 -91 
Q 1894 -91 1617 61 
Q 1341 213 1159 525 
z
M 3116 1747 
Q 3116 2381 2855 2742 
Q 2594 3103 2138 3103 
Q 1681 3103 1420 2742 
Q 1159 2381 1159 1747 
Q 1159 1113 1420 752 
Q 1681 391 2138 391 
Q 2594 391 2855 752 
Q 3116 1113 3116 1747 
z
" transform="scale(0.015625)"/>
     <path id="DejaVuSans-64" d="M 2906 2969 
L 2906 4863 
L 3481 4863 
L 3481 0 
L 2906 0 
L 2906 525 
Q 2725 213 2448 61 
Q 2172 -91 1784 -91 
Q 1150 -91 751 415 
Q 353 922 353 1747 
Q 353 2572 751 3078 
Q 1150 3584 1784 3584 
Q 2172 3584 2448 3432 
Q 2725 3281 2906 2969 
z
M 947 1747 
Q 947 1113 1208 752 
Q 1469 391 1925 391 
Q 2381 391 2643 752 
Q 2906 1113 2906 1747 
Q 2906 2381 2643 2742 
Q 2381 3103 1925 3103 
Q 1469 3103 1208 2742 
Q 947 2381 947 1747 
z
" transform="scale(0.015625)"/>
    </defs>
    <use xlink:href="#DejaVuSans-61"/>
    <use xlink:href="#DejaVuSans-70" x="61.279297"/>
    <use xlink:href="#DejaVuSans-74" x="124.755859"/>
    <use xlink:href="#DejaVuSans-69" x="163.964844"/>
    <use xlink:href="#DejaVuSans-64" x="191.748047"/>
    <use xlink:href="#DejaVuSans-61" x="255.224609"/>
    <use xlink:href="#DejaVuSans-6f" x="316.503906"/>
   </g>
  </g>
 </g>
 <defs>
  <clipPath id="p7508c10fd6">
   <rect x="44.000938" y="7.2" width="414.783062" height="294.039312"/>
  </clipPath>
 </defs>
</svg>
